<?xml version="1.0" encoding="UTF-8" standalone="no"?>
<!DOCTYPE svg PUBLIC "-//W3C//DTD SVG 1.1//EN"
 "http://www.w3.org/Graphics/SVG/1.1/DTD/svg11.dtd">
<!-- Generated by graphviz version 2.38.0 (20140413.2041)
 -->
<!-- Title: G Pages: 1 -->
<svg width="732pt" height="1962pt"
 viewBox="0.00 0.00 732.18 1962.00" xmlns="http://www.w3.org/2000/svg" xmlns:xlink="http://www.w3.org/1999/xlink">
<g id="graph0" class="graph" transform="scale(1 1) rotate(0) translate(4 1958)">
<title>G</title>
<polygon fill="white" stroke="none" points="-4,4 -4,-1958 728.183,-1958 728.183,4 -4,4"/>
<g id="clust1" class="cluster"><title>cluster_Global</title>
<path fill="none" stroke="gray" d="M137.095,-8C137.095,-8 704.183,-8 704.183,-8 710.183,-8 716.183,-14 716.183,-20 716.183,-20 716.183,-1934 716.183,-1934 716.183,-1940 710.183,-1946 704.183,-1946 704.183,-1946 137.095,-1946 137.095,-1946 131.095,-1946 125.095,-1940 125.095,-1934 125.095,-1934 125.095,-20 125.095,-20 125.095,-14 131.095,-8 137.095,-8"/>
<text text-anchor="middle" x="420.639" y="-1933.2" font-family="Times,serif" font-size="11.00" fill="gray">Global</text>
</g>
<g id="clust2" class="cluster"><title>cluster_\Chameleon</title>
<path fill="none" stroke="gray" d="M156.639,-16C156.639,-16 696.183,-16 696.183,-16 702.183,-16 708.183,-22 708.183,-28 708.183,-28 708.183,-1746 708.183,-1746 708.183,-1752 702.183,-1758 696.183,-1758 696.183,-1758 156.639,-1758 156.639,-1758 150.639,-1758 144.639,-1752 144.639,-1746 144.639,-1746 144.639,-28 144.639,-28 144.639,-22 150.639,-16 156.639,-16"/>
<text text-anchor="middle" x="426.411" y="-1745.2" font-family="Times,serif" font-size="11.00" fill="gray">Chameleon</text>
</g>
<g id="clust3" class="cluster"><title>cluster_\Chameleon\Colors</title>
<path fill="none" stroke="gray" d="M164.639,-312C164.639,-312 634.183,-312 634.183,-312 640.183,-312 646.183,-318 646.183,-324 646.183,-324 646.183,-534 646.183,-534 646.183,-540 640.183,-546 634.183,-546 634.183,-546 164.639,-546 164.639,-546 158.639,-546 152.639,-540 152.639,-534 152.639,-534 152.639,-324 152.639,-324 152.639,-318 158.639,-312 164.639,-312"/>
<text text-anchor="middle" x="399.411" y="-533.2" font-family="Times,serif" font-size="11.00" fill="gray">Colors</text>
</g>
<g id="clust4" class="cluster"><title>cluster_\Chameleon\Filters</title>
<path fill="none" stroke="gray" d="M168.139,-554C168.139,-554 668.183,-554 668.183,-554 674.183,-554 680.183,-560 680.183,-566 680.183,-566 680.183,-1208 680.183,-1208 680.183,-1214 674.183,-1220 668.183,-1220 668.183,-1220 168.139,-1220 168.139,-1220 162.139,-1220 156.139,-1214 156.139,-1208 156.139,-1208 156.139,-566 156.139,-566 156.139,-560 162.139,-554 168.139,-554"/>
<text text-anchor="middle" x="418.161" y="-1207.2" font-family="Times,serif" font-size="11.00" fill="gray">Filters</text>
</g>
<g id="clust5" class="cluster"><title>cluster_\Chameleon\Patterns</title>
<path fill="none" stroke="gray" d="M164.639,-1416C164.639,-1416 654.683,-1416 654.683,-1416 660.683,-1416 666.683,-1422 666.683,-1428 666.683,-1428 666.683,-1584 666.683,-1584 666.683,-1590 660.683,-1596 654.683,-1596 654.683,-1596 164.639,-1596 164.639,-1596 158.639,-1596 152.639,-1590 152.639,-1584 152.639,-1584 152.639,-1428 152.639,-1428 152.639,-1422 158.639,-1416 164.639,-1416"/>
<text text-anchor="middle" x="409.661" y="-1583.2" font-family="Times,serif" font-size="11.00" fill="gray">Patterns</text>
</g>
<g id="clust6" class="cluster"><title>cluster_\Chameleon\Exceptions</title>
<path fill="none" stroke="gray" d="M511.183,-1604C511.183,-1604 688.183,-1604 688.183,-1604 694.183,-1604 700.183,-1610 700.183,-1616 700.183,-1616 700.183,-1718 700.183,-1718 700.183,-1724 694.183,-1730 688.183,-1730 688.183,-1730 511.183,-1730 511.183,-1730 505.183,-1730 499.183,-1724 499.183,-1718 499.183,-1718 499.183,-1616 499.183,-1616 499.183,-1610 505.183,-1604 511.183,-1604"/>
<text text-anchor="middle" x="599.683" y="-1717.2" font-family="Times,serif" font-size="11.00" fill="gray">Exceptions</text>
</g>
<g id="clust7" class="cluster"><title>cluster_\Chameleon\Primitives</title>
<path fill="none" stroke="gray" d="M345.183,-1228C345.183,-1228 634.183,-1228 634.183,-1228 640.183,-1228 646.183,-1234 646.183,-1240 646.183,-1240 646.183,-1396 646.183,-1396 646.183,-1402 640.183,-1408 634.183,-1408 634.183,-1408 345.183,-1408 345.183,-1408 339.183,-1408 333.183,-1402 333.183,-1396 333.183,-1396 333.183,-1240 333.183,-1240 333.183,-1234 339.183,-1228 345.183,-1228"/>
<text text-anchor="middle" x="489.683" y="-1395.2" font-family="Times,serif" font-size="11.00" fill="gray">Primitives</text>
</g>
<g id="clust8" class="cluster"><title>cluster_\Chameleon\Transformations</title>
<path fill="none" stroke="gray" d="M561.683,-178C561.683,-178 637.683,-178 637.683,-178 643.683,-178 649.683,-184 649.683,-190 649.683,-190 649.683,-292 649.683,-292 649.683,-298 643.683,-304 637.683,-304 637.683,-304 561.683,-304 561.683,-304 555.683,-304 549.683,-298 549.683,-292 549.683,-292 549.683,-190 549.683,-190 549.683,-184 555.683,-178 561.683,-178"/>
<text text-anchor="middle" x="599.683" y="-291.2" font-family="Times,serif" font-size="11.00" fill="gray">Transformations</text>
</g>
<g id="clust9" class="cluster"><title>cluster_Global\Chameleon</title>
<path fill="none" stroke="gray" d="M334.987,-1810C334.987,-1810 431.379,-1810 431.379,-1810 437.379,-1810 443.379,-1816 443.379,-1822 443.379,-1822 443.379,-1906 443.379,-1906 443.379,-1912 437.379,-1918 431.379,-1918 431.379,-1918 334.987,-1918 334.987,-1918 328.987,-1918 322.987,-1912 322.987,-1906 322.987,-1906 322.987,-1822 322.987,-1822 322.987,-1816 328.987,-1810 334.987,-1810"/>
<text text-anchor="middle" x="383.183" y="-1905.2" font-family="Times,serif" font-size="11.00" fill="gray">Chameleon</text>
</g>
<g id="clust10" class="cluster"><title>cluster_Global\Chameleon\Primitives</title>
<path fill="none" stroke="gray" d="M342.987,-1818C342.987,-1818 423.379,-1818 423.379,-1818 429.379,-1818 435.379,-1824 435.379,-1830 435.379,-1830 435.379,-1878 435.379,-1878 435.379,-1884 429.379,-1890 423.379,-1890 423.379,-1890 342.987,-1890 342.987,-1890 336.987,-1890 330.987,-1884 330.987,-1878 330.987,-1878 330.987,-1830 330.987,-1830 330.987,-1824 336.987,-1818 342.987,-1818"/>
<text text-anchor="middle" x="383.183" y="-1877.2" font-family="Times,serif" font-size="11.00" fill="gray">Primitives</text>
</g>
<!-- \\Chameleon\\Colors\\HSLColor -->
<g id="node1" class="node"><title>\\Chameleon\\Colors\\HSLColor</title>
<polygon fill="none" stroke="black" points="418.683,-410 347.683,-410 347.683,-374 418.683,-374 418.683,-410"/>
<text text-anchor="middle" x="383.183" y="-389.2" font-family="Courier,monospace" font-size="11.00">HSLColor</text>
</g>
<!-- Color -->
<g id="node42" class="node"><title>Color</title>
<ellipse fill="none" stroke="black" cx="30.5473" cy="-396" rx="30.5947" ry="18"/>
<text text-anchor="middle" x="30.5473" y="-392.3" font-family="Times,serif" font-size="14.00">Color</text>
</g>
<!-- \\Chameleon\\Colors\\HSLColor&#45;&gt;Color -->
<g id="edge1" class="edge"><title>\\Chameleon\\Colors\\HSLColor&#45;&gt;Color</title>
<path fill="none" stroke="black" d="M347.611,-376.236C310.849,-361.181 250.736,-341.409 197.139,-346"/>
</g>
<!-- \\Chameleon\\Colors\\RGBColor -->
<g id="node2" class="node"><title>\\Chameleon\\Colors\\RGBColor</title>
<polygon fill="none" stroke="black" points="231.639,-464 160.639,-464 160.639,-428 231.639,-428 231.639,-464"/>
<text text-anchor="middle" x="196.139" y="-443.2" font-family="Courier,monospace" font-size="11.00">RGBColor</text>
</g>
<!-- \\Chameleon\\Colors\\RGBColor&#45;&gt;Color -->
<g id="edge2" class="edge"><title>\\Chameleon\\Colors\\RGBColor&#45;&gt;Color</title>
<path fill="none" stroke="black" d="M160.445,-435.396C133.214,-427.073 95.4164,-415.521 67.7935,-407.078"/>
<polygon fill="none" stroke="black" points="68.7018,-403.696 58.1154,-404.12 66.6557,-410.39 68.7018,-403.696"/>
</g>
<!-- \\Chameleon\\Colors\\Hex6Color -->
<g id="node3" class="node"><title>\\Chameleon\\Colors\\Hex6Color</title>
<polygon fill="none" stroke="black" points="421.683,-518 344.683,-518 344.683,-482 421.683,-482 421.683,-518"/>
<text text-anchor="middle" x="383.183" y="-497.2" font-family="Courier,monospace" font-size="11.00">Hex6Color</text>
</g>
<!-- \\Chameleon\\Colors\\Hex6Color&#45;&gt;\\Chameleon\\Colors\\RGBColor -->
<g id="edge5" class="edge"><title>\\Chameleon\\Colors\\Hex6Color&#45;&gt;\\Chameleon\\Colors\\RGBColor</title>
<path fill="none" stroke="black" d="M344.29,-488.942C314.522,-480.255 272.999,-468.138 241.649,-458.989"/>
<polygon fill="none" stroke="black" points="242.436,-455.573 231.856,-456.131 240.475,-462.293 242.436,-455.573"/>
</g>
<!-- \\Chameleon\\Colors\\Hex8Color -->
<g id="node4" class="node"><title>\\Chameleon\\Colors\\Hex8Color</title>
<polygon fill="none" stroke="black" points="638.183,-518 561.183,-518 561.183,-482 638.183,-482 638.183,-518"/>
<text text-anchor="middle" x="599.683" y="-497.2" font-family="Courier,monospace" font-size="11.00">Hex8Color</text>
</g>
<!-- \\Chameleon\\Colors\\Hex8Color&#45;&gt;\\Chameleon\\Colors\\Hex6Color -->
<g id="edge10" class="edge"><title>\\Chameleon\\Colors\\Hex8Color&#45;&gt;\\Chameleon\\Colors\\Hex6Color</title>
<path fill="none" stroke="black" d="M560.829,-500C524.947,-500 470.905,-500 432.049,-500"/>
<polygon fill="none" stroke="black" points="432.02,-496.5 422.02,-500 432.02,-503.5 432.02,-496.5"/>
</g>
<!-- \\Chameleon\\Colors\\RGBAColor -->
<g id="node5" class="node"><title>\\Chameleon\\Colors\\RGBAColor</title>
<polygon fill="none" stroke="black" points="421.683,-464 344.683,-464 344.683,-428 421.683,-428 421.683,-464"/>
<text text-anchor="middle" x="383.183" y="-443.2" font-family="Courier,monospace" font-size="11.00">RGBAColor</text>
</g>
<!-- \\Chameleon\\Colors\\RGBAColor&#45;&gt;\\Chameleon\\Colors\\RGBColor -->
<g id="edge11" class="edge"><title>\\Chameleon\\Colors\\RGBAColor&#45;&gt;\\Chameleon\\Colors\\RGBColor</title>
<path fill="none" stroke="black" d="M344.29,-446C314.651,-446 273.359,-446 242.057,-446"/>
<polygon fill="none" stroke="black" points="241.856,-442.5 231.856,-446 241.856,-449.5 241.856,-442.5"/>
</g>
<!-- \\Chameleon\\Colors\\HSVColor -->
<g id="node6" class="node"><title>\\Chameleon\\Colors\\HSVColor</title>
<polygon fill="none" stroke="black" points="635.183,-410 564.183,-410 564.183,-374 635.183,-374 635.183,-410"/>
<text text-anchor="middle" x="599.683" y="-389.2" font-family="Courier,monospace" font-size="11.00">HSVColor</text>
</g>
<!-- \\Chameleon\\Colors\\HSVColor&#45;&gt;Color -->
<g id="edge13" class="edge"><title>\\Chameleon\\Colors\\HSVColor&#45;&gt;Color</title>
<path fill="none" stroke="black" d="M564.106,-383.358C494.676,-367.041 333.294,-334.338 197.139,-346"/>
<path fill="none" stroke="black" d="M195.139,-346C148.31,-349.578 96.9109,-367.815 64.4575,-381.235"/>
<polygon fill="none" stroke="black" points="62.8685,-378.107 55.02,-385.224 65.5937,-384.555 62.8685,-378.107"/>
</g>
<!-- \\Chameleon\\Colors\\HSLAColor -->
<g id="node7" class="node"><title>\\Chameleon\\Colors\\HSLAColor</title>
<polygon fill="none" stroke="black" points="638.183,-464 561.183,-464 561.183,-428 638.183,-428 638.183,-464"/>
<text text-anchor="middle" x="599.683" y="-443.2" font-family="Courier,monospace" font-size="11.00">HSLAColor</text>
</g>
<!-- \\Chameleon\\Colors\\HSLAColor&#45;&gt;\\Chameleon\\Colors\\HSLColor -->
<g id="edge18" class="edge"><title>\\Chameleon\\Colors\\HSLAColor&#45;&gt;\\Chameleon\\Colors\\HSLColor</title>
<path fill="none" stroke="black" d="M560.829,-436.47C523.954,-427.187 467.898,-413.075 428.856,-403.246"/>
<polygon fill="none" stroke="black" points="429.375,-399.768 418.823,-400.721 427.666,-406.556 429.375,-399.768"/>
</g>
<!-- \\Chameleon\\Colors\\IColor -->
<g id="node8" class="node"><title>\\Chameleon\\Colors\\IColor</title>
<polygon fill="none" stroke="black" points="628.183,-356 571.183,-356 571.183,-320 628.183,-320 628.183,-356"/>
<text text-anchor="middle" x="599.683" y="-335.2" font-family="Courier,monospace" font-size="11.00">IColor</text>
</g>
<!-- \\Chameleon\\Filters\\SelectiveBlurFilter -->
<g id="node9" class="node"><title>\\Chameleon\\Filters\\SelectiveBlurFilter</title>
<polygon fill="none" stroke="black" points="672.183,-652 527.183,-652 527.183,-616 672.183,-616 672.183,-652"/>
<text text-anchor="middle" x="599.683" y="-631.2" font-family="Courier,monospace" font-size="11.00">SelectiveBlurFilter</text>
</g>
<!-- \\Chameleon\\Filters\\BuiltinFilter -->
<g id="node20" class="node"><title>\\Chameleon\\Filters\\BuiltinFilter</title>
<polygon fill="none" stroke="black" points="435.183,-895 331.183,-895 331.183,-859 435.183,-859 435.183,-895"/>
<text text-anchor="start" x="349.183" y="-880.2" font-family="Courier,monospace" font-size="11.00">«abstract»</text>
<text text-anchor="start" x="339.183" y="-868.2" font-family="Courier,monospace" font-size="11.00">BuiltinFilter</text>
</g>
<!-- \\Chameleon\\Filters\\SelectiveBlurFilter&#45;&gt;\\Chameleon\\Filters\\BuiltinFilter -->
<g id="edge3" class="edge"><title>\\Chameleon\\Filters\\SelectiveBlurFilter&#45;&gt;\\Chameleon\\Filters\\BuiltinFilter</title>
<path fill="none" stroke="black" d="M527.013,-645.757C517.01,-649.516 507.369,-654.471 499.183,-661 437.119,-710.502 404.387,-802.827 391.235,-849.081"/>
<polygon fill="none" stroke="black" points="387.854,-848.177 388.583,-858.747 394.604,-850.03 387.854,-848.177"/>
</g>
<!-- \\Chameleon\\Filters\\MeanRemovalFilter -->
<g id="node10" class="node"><title>\\Chameleon\\Filters\\MeanRemovalFilter</title>
<polygon fill="none" stroke="black" points="665.183,-598 534.183,-598 534.183,-562 665.183,-562 665.183,-598"/>
<text text-anchor="middle" x="599.683" y="-577.2" font-family="Courier,monospace" font-size="11.00">MeanRemovalFilter</text>
</g>
<!-- \\Chameleon\\Filters\\MeanRemovalFilter&#45;&gt;\\Chameleon\\Filters\\BuiltinFilter -->
<g id="edge4" class="edge"><title>\\Chameleon\\Filters\\MeanRemovalFilter&#45;&gt;\\Chameleon\\Filters\\BuiltinFilter</title>
<path fill="none" stroke="black" d="M533.946,-588.51C521.361,-592.535 509.036,-598.418 499.183,-607 424.625,-671.94 397.021,-793.579 388.028,-848.637"/>
<polygon fill="none" stroke="black" points="384.537,-848.307 386.469,-858.725 391.455,-849.376 384.537,-848.307"/>
</g>
<!-- \\Chameleon\\Filters\\BrightnessFilter -->
<g id="node11" class="node"><title>\\Chameleon\\Filters\\BrightnessFilter</title>
<polygon fill="none" stroke="black" points="662.183,-1192 537.183,-1192 537.183,-1156 662.183,-1156 662.183,-1192"/>
<text text-anchor="middle" x="599.683" y="-1171.2" font-family="Courier,monospace" font-size="11.00">BrightnessFilter</text>
</g>
<!-- \\Chameleon\\Filters\\BrightnessFilter&#45;&gt;\\Chameleon\\Filters\\BuiltinFilter -->
<g id="edge14" class="edge"><title>\\Chameleon\\Filters\\BrightnessFilter&#45;&gt;\\Chameleon\\Filters\\BuiltinFilter</title>
<path fill="none" stroke="black" d="M537.053,-1166.45C523.403,-1162.41 509.846,-1156.29 499.183,-1147 424.625,-1082.06 397.021,-960.421 388.028,-905.363"/>
<polygon fill="none" stroke="black" points="391.455,-904.624 386.469,-895.275 384.537,-905.693 391.455,-904.624"/>
</g>
<!-- \\Chameleon\\Filters\\EdgedetectFilter -->
<g id="node12" class="node"><title>\\Chameleon\\Filters\\EdgedetectFilter</title>
<polygon fill="none" stroke="black" points="662.183,-1138 537.183,-1138 537.183,-1102 662.183,-1102 662.183,-1138"/>
<text text-anchor="middle" x="599.683" y="-1117.2" font-family="Courier,monospace" font-size="11.00">EdgedetectFilter</text>
</g>
<!-- \\Chameleon\\Filters\\EdgedetectFilter&#45;&gt;\\Chameleon\\Filters\\BuiltinFilter -->
<g id="edge17" class="edge"><title>\\Chameleon\\Filters\\EdgedetectFilter&#45;&gt;\\Chameleon\\Filters\\BuiltinFilter</title>
<path fill="none" stroke="black" d="M537.096,-1111.62C523.599,-1107.61 510.098,-1101.71 499.183,-1093 437.119,-1043.5 404.387,-951.173 391.235,-904.919"/>
<polygon fill="none" stroke="black" points="394.604,-903.97 388.583,-895.253 387.854,-905.823 394.604,-903.97"/>
</g>
<!-- \\Chameleon\\Filters\\EmbossFilter -->
<g id="node13" class="node"><title>\\Chameleon\\Filters\\EmbossFilter</title>
<polygon fill="none" stroke="black" points="648.683,-1084 550.683,-1084 550.683,-1048 648.683,-1048 648.683,-1084"/>
<text text-anchor="middle" x="599.683" y="-1063.2" font-family="Courier,monospace" font-size="11.00">EmbossFilter</text>
</g>
<!-- \\Chameleon\\Filters\\EmbossFilter&#45;&gt;\\Chameleon\\Filters\\BuiltinFilter -->
<g id="edge19" class="edge"><title>\\Chameleon\\Filters\\EmbossFilter&#45;&gt;\\Chameleon\\Filters\\BuiltinFilter</title>
<path fill="none" stroke="black" d="M550.492,-1059.84C533.178,-1055.92 514.229,-1049.5 499.183,-1039 449.542,-1004.36 413.916,-941.08 396.42,-904.707"/>
<polygon fill="none" stroke="black" points="399.381,-902.778 391.969,-895.207 393.043,-905.748 399.381,-902.778"/>
</g>
<!-- \\Chameleon\\Filters\\SmoothFilter -->
<g id="node14" class="node"><title>\\Chameleon\\Filters\\SmoothFilter</title>
<polygon fill="none" stroke="black" points="648.683,-1030 550.683,-1030 550.683,-994 648.683,-994 648.683,-1030"/>
<text text-anchor="middle" x="599.683" y="-1009.2" font-family="Courier,monospace" font-size="11.00">SmoothFilter</text>
</g>
<!-- \\Chameleon\\Filters\\SmoothFilter&#45;&gt;\\Chameleon\\Filters\\BuiltinFilter -->
<g id="edge20" class="edge"><title>\\Chameleon\\Filters\\SmoothFilter&#45;&gt;\\Chameleon\\Filters\\BuiltinFilter</title>
<path fill="none" stroke="black" d="M550.53,-1003.93C533.596,-999.82 514.887,-993.774 499.183,-985 461.375,-963.876 426.398,-927.643 405.179,-903.025"/>
<polygon fill="none" stroke="black" points="407.657,-900.535 398.527,-895.161 402.313,-905.056 407.657,-900.535"/>
</g>
<!-- \\Chameleon\\Filters\\GrayscaleFilter -->
<g id="node15" class="node"><title>\\Chameleon\\Filters\\GrayscaleFilter</title>
<polygon fill="none" stroke="black" points="658.683,-976 540.683,-976 540.683,-940 658.683,-940 658.683,-976"/>
<text text-anchor="middle" x="599.683" y="-955.2" font-family="Courier,monospace" font-size="11.00">GrayscaleFilter</text>
</g>
<!-- \\Chameleon\\Filters\\GrayscaleFilter&#45;&gt;\\Chameleon\\Filters\\BuiltinFilter -->
<g id="edge22" class="edge"><title>\\Chameleon\\Filters\\GrayscaleFilter&#45;&gt;\\Chameleon\\Filters\\BuiltinFilter</title>
<path fill="none" stroke="black" d="M540.535,-944.046C526.829,-940.256 512.373,-935.844 499.183,-931 474.926,-922.09 448.784,-910.025 427.564,-899.559"/>
<polygon fill="none" stroke="black" points="429,-896.364 418.489,-895.033 425.876,-902.629 429,-896.364"/>
</g>
<!-- \\Chameleon\\Filters\\GaussianBlurFilter -->
<g id="node16" class="node"><title>\\Chameleon\\Filters\\GaussianBlurFilter</title>
<polygon fill="none" stroke="black" points="668.683,-922 530.683,-922 530.683,-886 668.683,-886 668.683,-922"/>
<text text-anchor="middle" x="599.683" y="-901.2" font-family="Courier,monospace" font-size="11.00">GaussianBlurFilter</text>
</g>
<!-- \\Chameleon\\Filters\\GaussianBlurFilter&#45;&gt;\\Chameleon\\Filters\\BuiltinFilter -->
<g id="edge24" class="edge"><title>\\Chameleon\\Filters\\GaussianBlurFilter&#45;&gt;\\Chameleon\\Filters\\BuiltinFilter</title>
<path fill="none" stroke="black" d="M530.52,-895.42C503.217,-891.983 471.999,-888.054 445.428,-884.709"/>
<polygon fill="none" stroke="black" points="445.85,-881.235 435.491,-883.458 444.975,-888.18 445.85,-881.235"/>
</g>
<!-- \\Chameleon\\Filters\\ColorizeFilter -->
<g id="node17" class="node"><title>\\Chameleon\\Filters\\ColorizeFilter</title>
<polygon fill="none" stroke="black" points="655.183,-868 544.183,-868 544.183,-832 655.183,-832 655.183,-868"/>
<text text-anchor="middle" x="599.683" y="-847.2" font-family="Courier,monospace" font-size="11.00">ColorizeFilter</text>
</g>
<!-- \\Chameleon\\Filters\\ColorizeFilter&#45;&gt;\\Chameleon\\Filters\\BuiltinFilter -->
<g id="edge25" class="edge"><title>\\Chameleon\\Filters\\ColorizeFilter&#45;&gt;\\Chameleon\\Filters\\BuiltinFilter</title>
<path fill="none" stroke="black" d="M544.001,-856.883C514.003,-860.659 476.715,-865.353 445.704,-869.256"/>
<polygon fill="none" stroke="black" points="444.932,-865.826 435.448,-870.547 445.806,-872.771 444.932,-865.826"/>
</g>
<!-- \\Chameleon\\Filters\\InvertFilter -->
<g id="node18" class="node"><title>\\Chameleon\\Filters\\InvertFilter</title>
<polygon fill="none" stroke="black" points="648.683,-814 550.683,-814 550.683,-778 648.683,-778 648.683,-814"/>
<text text-anchor="middle" x="599.683" y="-793.2" font-family="Courier,monospace" font-size="11.00">InvertFilter</text>
</g>
<!-- \\Chameleon\\Filters\\InvertFilter&#45;&gt;\\Chameleon\\Filters\\BuiltinFilter -->
<g id="edge26" class="edge"><title>\\Chameleon\\Filters\\InvertFilter&#45;&gt;\\Chameleon\\Filters\\BuiltinFilter</title>
<path fill="none" stroke="black" d="M550.58,-807.248C534.089,-811.578 515.649,-816.952 499.183,-823 474.926,-831.91 448.784,-843.975 427.564,-854.441"/>
<polygon fill="none" stroke="black" points="425.876,-851.371 418.489,-858.967 429,-857.636 425.876,-851.371"/>
</g>
<!-- \\Chameleon\\Filters\\ContrastFilter -->
<g id="node19" class="node"><title>\\Chameleon\\Filters\\ContrastFilter</title>
<polygon fill="none" stroke="black" points="655.183,-760 544.183,-760 544.183,-724 655.183,-724 655.183,-760"/>
<text text-anchor="middle" x="599.683" y="-739.2" font-family="Courier,monospace" font-size="11.00">ContrastFilter</text>
</g>
<!-- \\Chameleon\\Filters\\ContrastFilter&#45;&gt;\\Chameleon\\Filters\\BuiltinFilter -->
<g id="edge28" class="edge"><title>\\Chameleon\\Filters\\ContrastFilter&#45;&gt;\\Chameleon\\Filters\\BuiltinFilter</title>
<path fill="none" stroke="black" d="M544.138,-751.696C528.988,-755.726 512.934,-761.318 499.183,-769 461.375,-790.124 426.398,-826.357 405.179,-850.975"/>
<polygon fill="none" stroke="black" points="402.313,-848.944 398.527,-858.839 407.657,-853.465 402.313,-848.944"/>
</g>
<!-- \\Chameleon\\Filters\\IFilter -->
<g id="node22" class="node"><title>\\Chameleon\\Filters\\IFilter</title>
<polygon fill="none" stroke="black" points="228.139,-895 164.139,-895 164.139,-859 228.139,-859 228.139,-895"/>
<text text-anchor="middle" x="196.139" y="-874.2" font-family="Courier,monospace" font-size="11.00">IFilter</text>
</g>
<!-- \\Chameleon\\Filters\\BuiltinFilter&#45;&gt;\\Chameleon\\Filters\\IFilter -->
<g id="edge29" class="edge"><title>\\Chameleon\\Filters\\BuiltinFilter&#45;&gt;\\Chameleon\\Filters\\IFilter</title>
<path fill="none" stroke="black" stroke-dasharray="1,5" d="M331.129,-877C301.913,-877 265.741,-877 238.347,-877"/>
<polygon fill="none" stroke="black" points="238.31,-873.5 228.31,-877 238.31,-880.5 238.31,-873.5"/>
</g>
<!-- \\Chameleon\\Filters\\PixelateFilter -->
<g id="node21" class="node"><title>\\Chameleon\\Filters\\PixelateFilter</title>
<polygon fill="none" stroke="black" points="655.183,-706 544.183,-706 544.183,-670 655.183,-670 655.183,-706"/>
<text text-anchor="middle" x="599.683" y="-685.2" font-family="Courier,monospace" font-size="11.00">PixelateFilter</text>
</g>
<!-- \\Chameleon\\Filters\\PixelateFilter&#45;&gt;\\Chameleon\\Filters\\BuiltinFilter -->
<g id="edge30" class="edge"><title>\\Chameleon\\Filters\\PixelateFilter&#45;&gt;\\Chameleon\\Filters\\BuiltinFilter</title>
<path fill="none" stroke="black" d="M544.094,-695.707C528.614,-699.708 512.394,-705.782 499.183,-715 449.542,-749.638 413.916,-812.92 396.42,-849.293"/>
<polygon fill="none" stroke="black" points="393.043,-848.252 391.969,-858.793 399.381,-851.222 393.043,-848.252"/>
</g>
<!-- \\Chameleon\\Patterns\\Pattern -->
<g id="node23" class="node"><title>\\Chameleon\\Patterns\\Pattern</title>
<polygon fill="none" stroke="black" points="425.183,-1541 341.183,-1541 341.183,-1505 425.183,-1505 425.183,-1541"/>
<text text-anchor="start" x="349.183" y="-1526.2" font-family="Courier,monospace" font-size="11.00">«abstract»</text>
<text text-anchor="start" x="359.183" y="-1514.2" font-family="Courier,monospace" font-size="11.00">Pattern</text>
</g>
<!-- \\Chameleon\\Patterns\\IPattern -->
<g id="node27" class="node"><title>\\Chameleon\\Patterns\\IPattern</title>
<polygon fill="none" stroke="black" points="231.639,-1541 160.639,-1541 160.639,-1505 231.639,-1505 231.639,-1541"/>
<text text-anchor="middle" x="196.139" y="-1520.2" font-family="Courier,monospace" font-size="11.00">IPattern</text>
</g>
<!-- \\Chameleon\\Patterns\\Pattern&#45;&gt;\\Chameleon\\Patterns\\IPattern -->
<g id="edge8" class="edge"><title>\\Chameleon\\Patterns\\Pattern&#45;&gt;\\Chameleon\\Patterns\\IPattern</title>
<path fill="none" stroke="black" stroke-dasharray="1,5" d="M341.116,-1523C311.78,-1523 272.325,-1523 242.136,-1523"/>
<polygon fill="none" stroke="black" points="241.877,-1519.5 231.877,-1523 241.877,-1526.5 241.877,-1519.5"/>
</g>
<!-- SplFixedArray -->
<g id="node41" class="node"><title>SplFixedArray</title>
<ellipse fill="none" stroke="black" cx="196.139" cy="-1784" rx="63.0888" ry="18"/>
<text text-anchor="middle" x="196.139" y="-1780.3" font-family="Times,serif" font-size="14.00" fill="gray">SplFixedArray</text>
</g>
<!-- \\Chameleon\\Patterns\\Pattern&#45;&gt;SplFixedArray -->
<g id="edge7" class="edge"><title>\\Chameleon\\Patterns\\Pattern&#45;&gt;SplFixedArray</title>
<path fill="none" stroke="black" d="M341.131,-1533.75C334.593,-1536.68 328.258,-1540.37 322.987,-1545 256.065,-1603.81 219.161,-1706.96 204.578,-1756.25"/>
<polygon fill="none" stroke="black" points="201.199,-1755.34 201.802,-1765.92 207.927,-1757.27 201.199,-1755.34"/>
</g>
<!-- \\Chameleon\\Patterns\\BackgroundColor -->
<g id="node24" class="node"><title>\\Chameleon\\Patterns\\BackgroundColor</title>
<polygon fill="none" stroke="black" points="658.683,-1514 540.683,-1514 540.683,-1478 658.683,-1478 658.683,-1514"/>
<text text-anchor="middle" x="599.683" y="-1493.2" font-family="Courier,monospace" font-size="11.00">BackgroundColor</text>
</g>
<!-- \\Chameleon\\Patterns\\BackgroundColor&#45;&gt;\\Chameleon\\Patterns\\Pattern -->
<g id="edge12" class="edge"><title>\\Chameleon\\Patterns\\BackgroundColor&#45;&gt;\\Chameleon\\Patterns\\Pattern</title>
<path fill="none" stroke="black" d="M540.637,-1503.31C507.722,-1507.45 466.913,-1512.59 435.227,-1516.57"/>
<polygon fill="none" stroke="black" points="434.766,-1513.11 425.281,-1517.83 435.64,-1520.05 434.766,-1513.11"/>
</g>
<!-- \\Chameleon\\Patterns\\RGBNoise -->
<g id="node25" class="node"><title>\\Chameleon\\Patterns\\RGBNoise</title>
<polygon fill="none" stroke="black" points="635.183,-1460 564.183,-1460 564.183,-1424 635.183,-1424 635.183,-1460"/>
<text text-anchor="middle" x="599.683" y="-1439.2" font-family="Courier,monospace" font-size="11.00">RGBNoise</text>
</g>
<!-- \\Chameleon\\Patterns\\RGBNoise&#45;&gt;\\Chameleon\\Patterns\\Pattern -->
<g id="edge23" class="edge"><title>\\Chameleon\\Patterns\\RGBNoise&#45;&gt;\\Chameleon\\Patterns\\Pattern</title>
<path fill="none" stroke="black" d="M564.145,-1449.8C544.788,-1454.56 520.353,-1461.22 499.183,-1469 474.926,-1477.91 448.784,-1489.97 427.564,-1500.44"/>
<polygon fill="none" stroke="black" points="425.876,-1497.37 418.489,-1504.97 429,-1503.64 425.876,-1497.37"/>
</g>
<!-- \\Chameleon\\Patterns\\Grid -->
<g id="node26" class="node"><title>\\Chameleon\\Patterns\\Grid</title>
<polygon fill="none" stroke="black" points="626.683,-1568 572.683,-1568 572.683,-1532 626.683,-1532 626.683,-1568"/>
<text text-anchor="middle" x="599.683" y="-1547.2" font-family="Courier,monospace" font-size="11.00">Grid</text>
</g>
<!-- \\Chameleon\\Patterns\\Grid&#45;&gt;\\Chameleon\\Patterns\\Pattern -->
<g id="edge27" class="edge"><title>\\Chameleon\\Patterns\\Grid&#45;&gt;\\Chameleon\\Patterns\\Pattern</title>
<path fill="none" stroke="black" d="M572.381,-1546.69C538.411,-1542.41 478.538,-1534.88 435.435,-1529.45"/>
<polygon fill="none" stroke="black" points="435.773,-1525.97 425.414,-1528.19 434.899,-1532.91 435.773,-1525.97"/>
</g>
<!-- \\Chameleon\\Exceptions\\ColorNotFoundException -->
<g id="node28" class="node"><title>\\Chameleon\\Exceptions\\ColorNotFoundException</title>
<polygon fill="none" stroke="black" points="682.183,-1702 517.183,-1702 517.183,-1666 682.183,-1666 682.183,-1702"/>
<text text-anchor="middle" x="599.683" y="-1681.2" font-family="Courier,monospace" font-size="11.00">ColorNotFoundException</text>
</g>
<!-- Exception -->
<g id="node40" class="node"><title>Exception</title>
<ellipse fill="none" stroke="black" cx="383.183" cy="-1784" rx="46.2923" ry="18"/>
<text text-anchor="middle" x="383.183" y="-1780.3" font-family="Times,serif" font-size="14.00" fill="gray">Exception</text>
</g>
<!-- \\Chameleon\\Exceptions\\ColorNotFoundException&#45;&gt;Exception -->
<g id="edge6" class="edge"><title>\\Chameleon\\Exceptions\\ColorNotFoundException&#45;&gt;Exception</title>
<path fill="none" stroke="black" d="M559.839,-1702.11C520.997,-1720.22 461.609,-1747.9 422.835,-1765.98"/>
<polygon fill="none" stroke="black" points="421.031,-1762.96 413.446,-1770.36 423.988,-1769.3 421.031,-1762.96"/>
</g>
<!-- \\Chameleon\\Exceptions\\ValueOutOfBoundsException -->
<g id="node29" class="node"><title>\\Chameleon\\Exceptions\\ValueOutOfBoundsException</title>
<polygon fill="none" stroke="black" points="692.183,-1648 507.183,-1648 507.183,-1612 692.183,-1612 692.183,-1648"/>
<text text-anchor="middle" x="599.683" y="-1627.2" font-family="Courier,monospace" font-size="11.00">ValueOutOfBoundsException</text>
</g>
<!-- \\Chameleon\\Exceptions\\ValueOutOfBoundsException&#45;&gt;Exception -->
<g id="edge16" class="edge"><title>\\Chameleon\\Exceptions\\ValueOutOfBoundsException&#45;&gt;Exception</title>
<path fill="none" stroke="black" d="M516.704,-1648.09C510.593,-1650.68 504.677,-1653.63 499.183,-1657 456.898,-1682.92 420.907,-1728.96 400.951,-1757.91"/>
<polygon fill="none" stroke="black" points="397.979,-1756.05 395.284,-1766.3 403.78,-1759.97 397.979,-1756.05"/>
</g>
<!-- \\Chameleon\\Primitives\\Ellipse -->
<g id="node30" class="node"><title>\\Chameleon\\Primitives\\Ellipse</title>
<polygon fill="none" stroke="black" points="631.683,-1380 567.683,-1380 567.683,-1344 631.683,-1344 631.683,-1380"/>
<text text-anchor="middle" x="599.683" y="-1359.2" font-family="Courier,monospace" font-size="11.00">Ellipse</text>
</g>
<!-- Primitive -->
<g id="node39" class="node"><title>Primitive</title>
<ellipse fill="none" stroke="black" cx="383.183" cy="-1844" rx="44.393" ry="18"/>
<text text-anchor="middle" x="383.183" y="-1840.3" font-family="Times,serif" font-size="14.00" fill="gray">Primitive</text>
</g>
<!-- \\Chameleon\\Primitives\\Ellipse&#45;&gt;Primitive -->
<g id="edge9" class="edge"><title>\\Chameleon\\Primitives\\Ellipse&#45;&gt;Primitive</title>
<path fill="none" stroke="black" d="M567.504,-1369.33C544.824,-1376.36 515.364,-1389.35 499.183,-1412 392.299,-1561.65 558.317,-1678.44 443.379,-1822 440.328,-1825.81 436.547,-1828.96 432.383,-1831.57"/>
<polygon fill="none" stroke="black" points="430.698,-1828.5 423.407,-1836.18 433.9,-1834.72 430.698,-1828.5"/>
</g>
<!-- \\Chameleon\\Primitives\\Line -->
<g id="node31" class="node"><title>\\Chameleon\\Primitives\\Line</title>
<polygon fill="none" stroke="black" points="626.683,-1272 572.683,-1272 572.683,-1236 626.683,-1236 626.683,-1272"/>
<text text-anchor="middle" x="599.683" y="-1251.2" font-family="Courier,monospace" font-size="11.00">Line</text>
</g>
<!-- \\Chameleon\\Primitives\\IPrimitive -->
<g id="node33" class="node"><title>\\Chameleon\\Primitives\\IPrimitive</title>
<polygon fill="none" stroke="black" points="425.183,-1272 341.183,-1272 341.183,-1236 425.183,-1236 425.183,-1272"/>
<text text-anchor="middle" x="383.183" y="-1251.2" font-family="Courier,monospace" font-size="11.00">IPrimitive</text>
</g>
<!-- \\Chameleon\\Primitives\\Line&#45;&gt;\\Chameleon\\Primitives\\IPrimitive -->
<g id="edge15" class="edge"><title>\\Chameleon\\Primitives\\Line&#45;&gt;\\Chameleon\\Primitives\\IPrimitive</title>
<path fill="none" stroke="black" stroke-dasharray="1,5" d="M572.381,-1254C538.411,-1254 478.538,-1254 435.435,-1254"/>
<polygon fill="none" stroke="black" points="435.414,-1250.5 425.414,-1254 435.414,-1257.5 435.414,-1250.5"/>
</g>
<!-- \\Chameleon\\Primitives\\Rectangle -->
<g id="node32" class="node"><title>\\Chameleon\\Primitives\\Rectangle</title>
<polygon fill="none" stroke="black" points="638.183,-1326 561.183,-1326 561.183,-1290 638.183,-1290 638.183,-1326"/>
<text text-anchor="middle" x="599.683" y="-1305.2" font-family="Courier,monospace" font-size="11.00">Rectangle</text>
</g>
<!-- \\Chameleon\\Primitives\\Rectangle&#45;&gt;Primitive -->
<g id="edge21" class="edge"><title>\\Chameleon\\Primitives\\Rectangle&#45;&gt;Primitive</title>
<path fill="none" stroke="black" d="M561.122,-1308.36C539.771,-1310.67 514.35,-1317.35 499.183,-1335 357.182,-1500.22 577.732,-1650.5 443.379,-1822 440.369,-1825.84 436.614,-1829.02 432.466,-1831.63"/>
<polygon fill="none" stroke="black" points="430.783,-1828.56 423.509,-1836.27 433.999,-1834.78 430.783,-1828.56"/>
</g>
<!-- \\Chameleon\\Transformations\\ScaleMode -->
<g id="node34" class="node"><title>\\Chameleon\\Transformations\\ScaleMode</title>
<polygon fill="none" stroke="black" points="641.683,-276 557.683,-276 557.683,-240 641.683,-240 641.683,-276"/>
<text text-anchor="start" x="565.683" y="-261.2" font-family="Courier,monospace" font-size="11.00">«abstract»</text>
<text text-anchor="start" x="569.183" y="-249.2" font-family="Courier,monospace" font-size="11.00">ScaleMode</text>
</g>
<!-- \\Chameleon\\Transformations\\FlipMode -->
<g id="node35" class="node"><title>\\Chameleon\\Transformations\\FlipMode</title>
<polygon fill="none" stroke="black" points="641.683,-222 557.683,-222 557.683,-186 641.683,-186 641.683,-222"/>
<text text-anchor="start" x="565.683" y="-207.2" font-family="Courier,monospace" font-size="11.00">«abstract»</text>
<text text-anchor="start" x="572.183" y="-195.2" font-family="Courier,monospace" font-size="11.00">FlipMode</text>
</g>
<!-- \\Chameleon\\Vector2 -->
<g id="node36" class="node"><title>\\Chameleon\\Vector2</title>
<polygon fill="none" stroke="black" points="631.683,-168 567.683,-168 567.683,-132 631.683,-132 631.683,-168"/>
<text text-anchor="middle" x="599.683" y="-147.2" font-family="Courier,monospace" font-size="11.00">Vector2</text>
</g>
<!-- \\Chameleon\\ColorFactory -->
<g id="node37" class="node"><title>\\Chameleon\\ColorFactory</title>
<polygon fill="none" stroke="black" points="648.683,-114 550.683,-114 550.683,-78 648.683,-78 648.683,-114"/>
<text text-anchor="middle" x="599.683" y="-93.2" font-family="Courier,monospace" font-size="11.00">ColorFactory</text>
</g>
<!-- \\Chameleon\\Image -->
<g id="node38" class="node"><title>\\Chameleon\\Image</title>
<polygon fill="none" stroke="black" points="626.683,-60 572.683,-60 572.683,-24 626.683,-24 626.683,-60"/>
<text text-anchor="middle" x="599.683" y="-39.2" font-family="Courier,monospace" font-size="11.00">Image</text>
</g>
</g>
</svg>
