<?xml version="1.0" encoding="UTF-8" standalone="no"?>
<!DOCTYPE svg PUBLIC "-//W3C//DTD SVG 1.1//EN"
 "http://www.w3.org/Graphics/SVG/1.1/DTD/svg11.dtd">
<!-- Generated by graphviz version 2.38.0 (20140413.2041)
 -->
<!-- Title: G Pages: 1 -->
<svg width="720pt" height="1154pt"
 viewBox="0.00 0.00 720.48 1154.00" xmlns="http://www.w3.org/2000/svg" xmlns:xlink="http://www.w3.org/1999/xlink">
<g id="graph0" class="graph" transform="scale(1 1) rotate(0) translate(4 1150)">
<title>G</title>
<polygon fill="white" stroke="none" points="-4,4 -4,-1150 716.475,-1150 716.475,4 -4,4"/>
<g id="clust1" class="cluster"><title>cluster_Global</title>
<path fill="none" stroke="gray" d="M137.095,-8C137.095,-8 692.475,-8 692.475,-8 698.475,-8 704.475,-14 704.475,-20 704.475,-20 704.475,-1126 704.475,-1126 704.475,-1132 698.475,-1138 692.475,-1138 692.475,-1138 137.095,-1138 137.095,-1138 131.095,-1138 125.095,-1132 125.095,-1126 125.095,-1126 125.095,-20 125.095,-20 125.095,-14 131.095,-8 137.095,-8"/>
<text text-anchor="middle" x="414.785" y="-1125.2" font-family="Times,serif" font-size="11.00" fill="gray">Global</text>
</g>
<g id="clust2" class="cluster"><title>cluster_\Chameleon</title>
<path fill="none" stroke="gray" d="M156.639,-16C156.639,-16 684.475,-16 684.475,-16 690.475,-16 696.475,-22 696.475,-28 696.475,-28 696.475,-938 696.475,-938 696.475,-944 690.475,-950 684.475,-950 684.475,-950 156.639,-950 156.639,-950 150.639,-950 144.639,-944 144.639,-938 144.639,-938 144.639,-28 144.639,-28 144.639,-22 150.639,-16 156.639,-16"/>
<text text-anchor="middle" x="420.557" y="-937.2" font-family="Times,serif" font-size="11.00" fill="gray">Chameleon</text>
</g>
<g id="clust3" class="cluster"><title>cluster_\Chameleon\Colors</title>
<path fill="none" stroke="gray" d="M164.639,-178C164.639,-178 622.475,-178 622.475,-178 628.475,-178 634.475,-184 634.475,-190 634.475,-190 634.475,-400 634.475,-400 634.475,-406 628.475,-412 622.475,-412 622.475,-412 164.639,-412 164.639,-412 158.639,-412 152.639,-406 152.639,-400 152.639,-400 152.639,-190 152.639,-190 152.639,-184 158.639,-178 164.639,-178"/>
<text text-anchor="middle" x="393.557" y="-399.2" font-family="Times,serif" font-size="11.00" fill="gray">Colors</text>
</g>
<g id="clust4" class="cluster"><title>cluster_\Chameleon\Patterns</title>
<path fill="none" stroke="gray" d="M164.639,-608C164.639,-608 642.975,-608 642.975,-608 648.975,-608 654.975,-614 654.975,-620 654.975,-620 654.975,-776 654.975,-776 654.975,-782 648.975,-788 642.975,-788 642.975,-788 164.639,-788 164.639,-788 158.639,-788 152.639,-782 152.639,-776 152.639,-776 152.639,-620 152.639,-620 152.639,-614 158.639,-608 164.639,-608"/>
<text text-anchor="middle" x="403.807" y="-775.2" font-family="Times,serif" font-size="11.00" fill="gray">Patterns</text>
</g>
<g id="clust5" class="cluster"><title>cluster_\Chameleon\Exceptions</title>
<path fill="none" stroke="gray" d="M499.475,-796C499.475,-796 676.475,-796 676.475,-796 682.475,-796 688.475,-802 688.475,-808 688.475,-808 688.475,-910 688.475,-910 688.475,-916 682.475,-922 676.475,-922 676.475,-922 499.475,-922 499.475,-922 493.475,-922 487.475,-916 487.475,-910 487.475,-910 487.475,-808 487.475,-808 487.475,-802 493.475,-796 499.475,-796"/>
<text text-anchor="middle" x="587.975" y="-909.2" font-family="Times,serif" font-size="11.00" fill="gray">Exceptions</text>
</g>
<g id="clust6" class="cluster"><title>cluster_\Chameleon\Primitives</title>
<path fill="none" stroke="gray" d="M339.329,-420C339.329,-420 622.475,-420 622.475,-420 628.475,-420 634.475,-426 634.475,-432 634.475,-432 634.475,-588 634.475,-588 634.475,-594 628.475,-600 622.475,-600 622.475,-600 339.329,-600 339.329,-600 333.329,-600 327.329,-594 327.329,-588 327.329,-588 327.329,-432 327.329,-432 327.329,-426 333.329,-420 339.329,-420"/>
<text text-anchor="middle" x="480.902" y="-587.2" font-family="Times,serif" font-size="11.00" fill="gray">Primitives</text>
</g>
<g id="clust7" class="cluster"><title>cluster_Global\Chameleon</title>
<path fill="none" stroke="gray" d="M329.133,-1002C329.133,-1002 425.525,-1002 425.525,-1002 431.525,-1002 437.525,-1008 437.525,-1014 437.525,-1014 437.525,-1098 437.525,-1098 437.525,-1104 431.525,-1110 425.525,-1110 425.525,-1110 329.133,-1110 329.133,-1110 323.133,-1110 317.133,-1104 317.133,-1098 317.133,-1098 317.133,-1014 317.133,-1014 317.133,-1008 323.133,-1002 329.133,-1002"/>
<text text-anchor="middle" x="377.329" y="-1097.2" font-family="Times,serif" font-size="11.00" fill="gray">Chameleon</text>
</g>
<g id="clust8" class="cluster"><title>cluster_Global\Chameleon\Primitives</title>
<path fill="none" stroke="gray" d="M337.133,-1010C337.133,-1010 417.525,-1010 417.525,-1010 423.525,-1010 429.525,-1016 429.525,-1022 429.525,-1022 429.525,-1070 429.525,-1070 429.525,-1076 423.525,-1082 417.525,-1082 417.525,-1082 337.133,-1082 337.133,-1082 331.133,-1082 325.133,-1076 325.133,-1070 325.133,-1070 325.133,-1022 325.133,-1022 325.133,-1016 331.133,-1010 337.133,-1010"/>
<text text-anchor="middle" x="377.329" y="-1069.2" font-family="Times,serif" font-size="11.00" fill="gray">Primitives</text>
</g>
<!-- \\Chameleon\\Colors\\HSLColor -->
<g id="node1" class="node"><title>\\Chameleon\\Colors\\HSLColor</title>
<polygon fill="none" stroke="black" points="412.829,-276 341.829,-276 341.829,-240 412.829,-240 412.829,-276"/>
<text text-anchor="middle" x="377.329" y="-255.2" font-family="Courier,monospace" font-size="11.00">HSLColor</text>
</g>
<!-- Color -->
<g id="node26" class="node"><title>Color</title>
<ellipse fill="none" stroke="black" cx="30.5473" cy="-262" rx="30.5947" ry="18"/>
<text text-anchor="middle" x="30.5473" y="-258.3" font-family="Times,serif" font-size="14.00">Color</text>
</g>
<!-- \\Chameleon\\Colors\\HSLColor&#45;&gt;Color -->
<g id="edge1" class="edge"><title>\\Chameleon\\Colors\\HSLColor&#45;&gt;Color</title>
<path fill="none" stroke="black" d="M341.571,-241.777C305.9,-226.874 248.509,-207.701 197.139,-212"/>
</g>
<!-- \\Chameleon\\Colors\\RGBColor -->
<g id="node2" class="node"><title>\\Chameleon\\Colors\\RGBColor</title>
<polygon fill="none" stroke="black" points="231.639,-330 160.639,-330 160.639,-294 231.639,-294 231.639,-330"/>
<text text-anchor="middle" x="196.139" y="-309.2" font-family="Courier,monospace" font-size="11.00">RGBColor</text>
</g>
<!-- \\Chameleon\\Colors\\RGBColor&#45;&gt;Color -->
<g id="edge2" class="edge"><title>\\Chameleon\\Colors\\RGBColor&#45;&gt;Color</title>
<path fill="none" stroke="black" d="M160.445,-301.396C133.214,-293.073 95.4164,-281.521 67.7935,-273.078"/>
<polygon fill="none" stroke="black" points="68.7018,-269.696 58.1154,-270.12 66.6557,-276.39 68.7018,-269.696"/>
</g>
<!-- \\Chameleon\\Colors\\Hex6Color -->
<g id="node3" class="node"><title>\\Chameleon\\Colors\\Hex6Color</title>
<polygon fill="none" stroke="black" points="415.829,-384 338.829,-384 338.829,-348 415.829,-348 415.829,-384"/>
<text text-anchor="middle" x="377.329" y="-363.2" font-family="Courier,monospace" font-size="11.00">Hex6Color</text>
</g>
<!-- \\Chameleon\\Colors\\Hex6Color&#45;&gt;\\Chameleon\\Colors\\RGBColor -->
<g id="edge3" class="edge"><title>\\Chameleon\\Colors\\Hex6Color&#45;&gt;\\Chameleon\\Colors\\RGBColor</title>
<path fill="none" stroke="black" d="M338.765,-354.68C310.459,-346.15 271.549,-334.424 241.675,-325.421"/>
<polygon fill="none" stroke="black" points="242.503,-322.015 231.919,-322.481 240.483,-328.718 242.503,-322.015"/>
</g>
<!-- \\Chameleon\\Colors\\Hex8Color -->
<g id="node4" class="node"><title>\\Chameleon\\Colors\\Hex8Color</title>
<polygon fill="none" stroke="black" points="626.475,-384 549.475,-384 549.475,-348 626.475,-348 626.475,-384"/>
<text text-anchor="middle" x="587.975" y="-363.2" font-family="Courier,monospace" font-size="11.00">Hex8Color</text>
</g>
<!-- \\Chameleon\\Colors\\Hex8Color&#45;&gt;\\Chameleon\\Colors\\Hex6Color -->
<g id="edge8" class="edge"><title>\\Chameleon\\Colors\\Hex8Color&#45;&gt;\\Chameleon\\Colors\\Hex6Color</title>
<path fill="none" stroke="black" d="M549.191,-366C514.627,-366 463.338,-366 425.976,-366"/>
<polygon fill="none" stroke="black" points="425.832,-362.5 415.832,-366 425.832,-369.5 425.832,-362.5"/>
</g>
<!-- \\Chameleon\\Colors\\RGBAColor -->
<g id="node5" class="node"><title>\\Chameleon\\Colors\\RGBAColor</title>
<polygon fill="none" stroke="black" points="415.829,-330 338.829,-330 338.829,-294 415.829,-294 415.829,-330"/>
<text text-anchor="middle" x="377.329" y="-309.2" font-family="Courier,monospace" font-size="11.00">RGBAColor</text>
</g>
<!-- \\Chameleon\\Colors\\RGBAColor&#45;&gt;\\Chameleon\\Colors\\RGBColor -->
<g id="edge9" class="edge"><title>\\Chameleon\\Colors\\RGBAColor&#45;&gt;\\Chameleon\\Colors\\RGBColor</title>
<path fill="none" stroke="black" d="M338.765,-312C310.582,-312 271.887,-312 242.065,-312"/>
<polygon fill="none" stroke="black" points="241.919,-308.5 231.919,-312 241.919,-315.5 241.919,-308.5"/>
</g>
<!-- \\Chameleon\\Colors\\HSVColor -->
<g id="node6" class="node"><title>\\Chameleon\\Colors\\HSVColor</title>
<polygon fill="none" stroke="black" points="623.475,-276 552.475,-276 552.475,-240 623.475,-240 623.475,-276"/>
<text text-anchor="middle" x="587.975" y="-255.2" font-family="Courier,monospace" font-size="11.00">HSVColor</text>
</g>
<!-- \\Chameleon\\Colors\\HSVColor&#45;&gt;Color -->
<g id="edge11" class="edge"><title>\\Chameleon\\Colors\\HSVColor&#45;&gt;Color</title>
<path fill="none" stroke="black" d="M552.374,-249.21C484.428,-232.994 328.719,-200.989 197.139,-212"/>
<path fill="none" stroke="black" d="M195.139,-212C148.302,-215.473 96.9049,-233.735 64.454,-247.189"/>
<polygon fill="none" stroke="black" points="62.8588,-244.064 55.0174,-251.189 65.5904,-250.509 62.8588,-244.064"/>
</g>
<!-- \\Chameleon\\Colors\\HSLAColor -->
<g id="node7" class="node"><title>\\Chameleon\\Colors\\HSLAColor</title>
<polygon fill="none" stroke="black" points="626.475,-330 549.475,-330 549.475,-294 626.475,-294 626.475,-330"/>
<text text-anchor="middle" x="587.975" y="-309.2" font-family="Courier,monospace" font-size="11.00">HSLAColor</text>
</g>
<!-- \\Chameleon\\Colors\\HSLAColor&#45;&gt;\\Chameleon\\Colors\\HSLColor -->
<g id="edge14" class="edge"><title>\\Chameleon\\Colors\\HSLAColor&#45;&gt;\\Chameleon\\Colors\\HSLColor</title>
<path fill="none" stroke="black" d="M549.191,-302.221C513.768,-293.053 460.779,-279.339 423.217,-269.618"/>
<polygon fill="none" stroke="black" points="423.617,-266.106 413.059,-266.989 421.863,-272.883 423.617,-266.106"/>
</g>
<!-- \\Chameleon\\Colors\\IColor -->
<g id="node8" class="node"><title>\\Chameleon\\Colors\\IColor</title>
<polygon fill="none" stroke="black" points="616.475,-222 559.475,-222 559.475,-186 616.475,-186 616.475,-222"/>
<text text-anchor="middle" x="587.975" y="-201.2" font-family="Courier,monospace" font-size="11.00">IColor</text>
</g>
<!-- \\Chameleon\\Patterns\\Pattern -->
<g id="node9" class="node"><title>\\Chameleon\\Patterns\\Pattern</title>
<polygon fill="none" stroke="black" points="419.329,-733 335.329,-733 335.329,-697 419.329,-697 419.329,-733"/>
<text text-anchor="start" x="343.329" y="-718.2" font-family="Courier,monospace" font-size="11.00">«abstract»</text>
<text text-anchor="start" x="353.329" y="-706.2" font-family="Courier,monospace" font-size="11.00">Pattern</text>
</g>
<!-- \\Chameleon\\Patterns\\IPattern -->
<g id="node13" class="node"><title>\\Chameleon\\Patterns\\IPattern</title>
<polygon fill="none" stroke="black" points="231.639,-733 160.639,-733 160.639,-697 231.639,-697 231.639,-733"/>
<text text-anchor="middle" x="196.139" y="-712.2" font-family="Courier,monospace" font-size="11.00">IPattern</text>
</g>
<!-- \\Chameleon\\Patterns\\Pattern&#45;&gt;\\Chameleon\\Patterns\\IPattern -->
<g id="edge6" class="edge"><title>\\Chameleon\\Patterns\\Pattern&#45;&gt;\\Chameleon\\Patterns\\IPattern</title>
<path fill="none" stroke="black" stroke-dasharray="1,5" d="M335.219,-715C307.336,-715 270.486,-715 241.868,-715"/>
<polygon fill="none" stroke="black" points="241.729,-711.5 231.729,-715 241.729,-718.5 241.729,-711.5"/>
</g>
<!-- SplFixedArray -->
<g id="node25" class="node"><title>SplFixedArray</title>
<ellipse fill="none" stroke="black" cx="196.139" cy="-976" rx="63.0888" ry="18"/>
<text text-anchor="middle" x="196.139" y="-972.3" font-family="Times,serif" font-size="14.00" fill="gray">SplFixedArray</text>
</g>
<!-- \\Chameleon\\Patterns\\Pattern&#45;&gt;SplFixedArray -->
<g id="edge5" class="edge"><title>\\Chameleon\\Patterns\\Pattern&#45;&gt;SplFixedArray</title>
<path fill="none" stroke="black" d="M335.201,-725.66C328.672,-728.601 322.359,-732.317 317.133,-737 251.579,-795.744 217.309,-898.561 203.94,-947.953"/>
<polygon fill="none" stroke="black" points="200.477,-947.363 201.331,-957.924 207.249,-949.135 200.477,-947.363"/>
</g>
<!-- \\Chameleon\\Patterns\\BackgroundColor -->
<g id="node10" class="node"><title>\\Chameleon\\Patterns\\BackgroundColor</title>
<polygon fill="none" stroke="black" points="646.975,-760 528.975,-760 528.975,-724 646.975,-724 646.975,-760"/>
<text text-anchor="middle" x="587.975" y="-739.2" font-family="Courier,monospace" font-size="11.00">BackgroundColor</text>
</g>
<!-- \\Chameleon\\Patterns\\BackgroundColor&#45;&gt;\\Chameleon\\Patterns\\Pattern -->
<g id="edge10" class="edge"><title>\\Chameleon\\Patterns\\BackgroundColor&#45;&gt;\\Chameleon\\Patterns\\Pattern</title>
<path fill="none" stroke="black" d="M528.856,-734.479C497.791,-730.459 459.878,-725.553 429.873,-721.67"/>
<polygon fill="none" stroke="black" points="429.98,-718.155 419.613,-720.342 429.081,-725.097 429.98,-718.155"/>
</g>
<!-- \\Chameleon\\Patterns\\RGBNoise -->
<g id="node11" class="node"><title>\\Chameleon\\Patterns\\RGBNoise</title>
<polygon fill="none" stroke="black" points="623.475,-706 552.475,-706 552.475,-670 623.475,-670 623.475,-706"/>
<text text-anchor="middle" x="587.975" y="-685.2" font-family="Courier,monospace" font-size="11.00">RGBNoise</text>
</g>
<!-- \\Chameleon\\Patterns\\RGBNoise&#45;&gt;\\Chameleon\\Patterns\\Pattern -->
<g id="edge16" class="edge"><title>\\Chameleon\\Patterns\\RGBNoise&#45;&gt;\\Chameleon\\Patterns\\Pattern</title>
<path fill="none" stroke="black" d="M552.053,-692.519C518.65,-696.842 467.876,-703.412 429.832,-708.335"/>
<polygon fill="none" stroke="black" points="428.933,-704.922 419.464,-709.677 429.831,-711.864 428.933,-704.922"/>
</g>
<!-- \\Chameleon\\Patterns\\Grid -->
<g id="node12" class="node"><title>\\Chameleon\\Patterns\\Grid</title>
<polygon fill="none" stroke="black" points="614.975,-652 560.975,-652 560.975,-616 614.975,-616 614.975,-652"/>
<text text-anchor="middle" x="587.975" y="-631.2" font-family="Courier,monospace" font-size="11.00">Grid</text>
</g>
<!-- \\Chameleon\\Patterns\\Grid&#45;&gt;\\Chameleon\\Patterns\\Pattern -->
<g id="edge17" class="edge"><title>\\Chameleon\\Patterns\\Grid&#45;&gt;\\Chameleon\\Patterns\\Pattern</title>
<path fill="none" stroke="black" d="M560.766,-639.64C540.443,-644.363 511.745,-651.804 487.475,-661 464.331,-669.77 439.529,-681.812 419.426,-692.299"/>
<polygon fill="none" stroke="black" points="417.751,-689.225 410.543,-696.991 421.02,-695.415 417.751,-689.225"/>
</g>
<!-- \\Chameleon\\Exceptions\\ColorNotFoundException -->
<g id="node14" class="node"><title>\\Chameleon\\Exceptions\\ColorNotFoundException</title>
<polygon fill="none" stroke="black" points="670.475,-894 505.475,-894 505.475,-858 670.475,-858 670.475,-894"/>
<text text-anchor="middle" x="587.975" y="-873.2" font-family="Courier,monospace" font-size="11.00">ColorNotFoundException</text>
</g>
<!-- Exception -->
<g id="node24" class="node"><title>Exception</title>
<ellipse fill="none" stroke="black" cx="377.329" cy="-976" rx="46.2923" ry="18"/>
<text text-anchor="middle" x="377.329" y="-972.3" font-family="Times,serif" font-size="14.00" fill="gray">Exception</text>
</g>
<!-- \\Chameleon\\Exceptions\\ColorNotFoundException&#45;&gt;Exception -->
<g id="edge4" class="edge"><title>\\Chameleon\\Exceptions\\ColorNotFoundException&#45;&gt;Exception</title>
<path fill="none" stroke="black" d="M549.191,-894.109C511.517,-912.166 453.973,-939.746 416.25,-957.825"/>
<polygon fill="none" stroke="black" points="414.616,-954.727 407.111,-962.205 417.642,-961.039 414.616,-954.727"/>
</g>
<!-- \\Chameleon\\Exceptions\\ValueOutOfBoundsException -->
<g id="node15" class="node"><title>\\Chameleon\\Exceptions\\ValueOutOfBoundsException</title>
<polygon fill="none" stroke="black" points="680.475,-840 495.475,-840 495.475,-804 680.475,-804 680.475,-840"/>
<text text-anchor="middle" x="587.975" y="-819.2" font-family="Courier,monospace" font-size="11.00">ValueOutOfBoundsException</text>
</g>
<!-- \\Chameleon\\Exceptions\\ValueOutOfBoundsException&#45;&gt;Exception -->
<g id="edge13" class="edge"><title>\\Chameleon\\Exceptions\\ValueOutOfBoundsException&#45;&gt;Exception</title>
<path fill="none" stroke="black" d="M504.645,-840.039C498.646,-842.639 492.849,-845.609 487.475,-849 446.654,-874.759 412.873,-920.526 394.17,-949.512"/>
<polygon fill="none" stroke="black" points="391.011,-947.962 388.638,-958.287 396.932,-951.695 391.011,-947.962"/>
</g>
<!-- \\Chameleon\\Primitives\\Ellipse -->
<g id="node16" class="node"><title>\\Chameleon\\Primitives\\Ellipse</title>
<polygon fill="none" stroke="black" points="619.975,-572 555.975,-572 555.975,-536 619.975,-536 619.975,-572"/>
<text text-anchor="middle" x="587.975" y="-551.2" font-family="Courier,monospace" font-size="11.00">Ellipse</text>
</g>
<!-- Primitive -->
<g id="node23" class="node"><title>Primitive</title>
<ellipse fill="none" stroke="black" cx="377.329" cy="-1036" rx="44.393" ry="18"/>
<text text-anchor="middle" x="377.329" y="-1032.3" font-family="Times,serif" font-size="14.00" fill="gray">Primitive</text>
</g>
<!-- \\Chameleon\\Primitives\\Ellipse&#45;&gt;Primitive -->
<g id="edge7" class="edge"><title>\\Chameleon\\Primitives\\Ellipse&#45;&gt;Primitive</title>
<path fill="none" stroke="black" d="M555.704,-561.263C532.976,-568.258 503.496,-581.233 487.475,-604 381.835,-754.127 551.246,-869.898 437.525,-1014 434.501,-1017.83 430.737,-1021 426.583,-1023.61"/>
<polygon fill="none" stroke="black" points="424.9,-1020.54 417.62,-1028.24 428.112,-1026.76 424.9,-1020.54"/>
</g>
<!-- \\Chameleon\\Primitives\\Line -->
<g id="node17" class="node"><title>\\Chameleon\\Primitives\\Line</title>
<polygon fill="none" stroke="black" points="614.975,-464 560.975,-464 560.975,-428 614.975,-428 614.975,-464"/>
<text text-anchor="middle" x="587.975" y="-443.2" font-family="Courier,monospace" font-size="11.00">Line</text>
</g>
<!-- \\Chameleon\\Primitives\\IPrimitive -->
<g id="node19" class="node"><title>\\Chameleon\\Primitives\\IPrimitive</title>
<polygon fill="none" stroke="black" points="419.329,-464 335.329,-464 335.329,-428 419.329,-428 419.329,-464"/>
<text text-anchor="middle" x="377.329" y="-443.2" font-family="Courier,monospace" font-size="11.00">IPrimitive</text>
</g>
<!-- \\Chameleon\\Primitives\\Line&#45;&gt;\\Chameleon\\Primitives\\IPrimitive -->
<g id="edge12" class="edge"><title>\\Chameleon\\Primitives\\Line&#45;&gt;\\Chameleon\\Primitives\\IPrimitive</title>
<path fill="none" stroke="black" stroke-dasharray="1,5" d="M560.972,-446C528.242,-446 471.276,-446 429.645,-446"/>
<polygon fill="none" stroke="black" points="429.416,-442.5 419.416,-446 429.416,-449.5 429.416,-442.5"/>
</g>
<!-- \\Chameleon\\Primitives\\Rectangle -->
<g id="node18" class="node"><title>\\Chameleon\\Primitives\\Rectangle</title>
<polygon fill="none" stroke="black" points="626.475,-518 549.475,-518 549.475,-482 626.475,-482 626.475,-518"/>
<text text-anchor="middle" x="587.975" y="-497.2" font-family="Courier,monospace" font-size="11.00">Rectangle</text>
</g>
<!-- \\Chameleon\\Primitives\\Rectangle&#45;&gt;Primitive -->
<g id="edge15" class="edge"><title>\\Chameleon\\Primitives\\Rectangle&#45;&gt;Primitive</title>
<path fill="none" stroke="black" d="M549.337,-500.294C527.96,-502.578 502.537,-509.263 487.475,-527 346.639,-692.85 570.685,-841.925 437.525,-1014 434.537,-1017.86 430.798,-1021.04 426.658,-1023.67"/>
<polygon fill="none" stroke="black" points="424.977,-1020.6 417.713,-1028.31 428.201,-1026.81 424.977,-1020.6"/>
</g>
<!-- \\Chameleon\\Vector2 -->
<g id="node20" class="node"><title>\\Chameleon\\Vector2</title>
<polygon fill="none" stroke="black" points="619.975,-168 555.975,-168 555.975,-132 619.975,-132 619.975,-168"/>
<text text-anchor="middle" x="587.975" y="-147.2" font-family="Courier,monospace" font-size="11.00">Vector2</text>
</g>
<!-- \\Chameleon\\ColorFactory -->
<g id="node21" class="node"><title>\\Chameleon\\ColorFactory</title>
<polygon fill="none" stroke="black" points="636.975,-114 538.975,-114 538.975,-78 636.975,-78 636.975,-114"/>
<text text-anchor="middle" x="587.975" y="-93.2" font-family="Courier,monospace" font-size="11.00">ColorFactory</text>
</g>
<!-- \\Chameleon\\Image -->
<g id="node22" class="node"><title>\\Chameleon\\Image</title>
<polygon fill="none" stroke="black" points="614.975,-60 560.975,-60 560.975,-24 614.975,-24 614.975,-60"/>
<text text-anchor="middle" x="587.975" y="-39.2" font-family="Courier,monospace" font-size="11.00">Image</text>
</g>
</g>
</svg>
