<?xml version="1.0" encoding="UTF-8" standalone="no"?>
<!DOCTYPE svg PUBLIC "-//W3C//DTD SVG 1.1//EN"
 "http://www.w3.org/Graphics/SVG/1.1/DTD/svg11.dtd">
<!-- Generated by graphviz version 2.38.0 (20140413.2041)
 -->
<!-- Title: G Pages: 1 -->
<svg width="1087pt" height="2000pt"
 viewBox="0.00 0.00 1087.04 2000.00" xmlns="http://www.w3.org/2000/svg" xmlns:xlink="http://www.w3.org/1999/xlink">
<g id="graph0" class="graph" transform="scale(1 1) rotate(0) translate(4 1996)">
<title>G</title>
<polygon fill="white" stroke="none" points="-4,4 -4,-1996 1083.04,-1996 1083.04,4 -4,4"/>
<g id="clust1" class="cluster"><title>cluster_Global</title>
<path fill="none" stroke="gray" d="M294.226,-152C294.226,-152 1059.04,-152 1059.04,-152 1065.04,-152 1071.04,-158 1071.04,-164 1071.04,-164 1071.04,-1972 1071.04,-1972 1071.04,-1978 1065.04,-1984 1059.04,-1984 1059.04,-1984 294.226,-1984 294.226,-1984 288.226,-1984 282.226,-1978 282.226,-1972 282.226,-1972 282.226,-164 282.226,-164 282.226,-158 288.226,-152 294.226,-152"/>
<text text-anchor="middle" x="676.634" y="-1971.2" font-family="Times,serif" font-size="11.00" fill="gray">Global</text>
</g>
<g id="clust2" class="cluster"><title>cluster_\Chameleon</title>
<path fill="none" stroke="gray" d="M302.226,-160C302.226,-160 1051.04,-160 1051.04,-160 1057.04,-160 1063.04,-166 1063.04,-172 1063.04,-172 1063.04,-1944 1063.04,-1944 1063.04,-1950 1057.04,-1956 1051.04,-1956 1051.04,-1956 302.226,-1956 302.226,-1956 296.226,-1956 290.226,-1950 290.226,-1944 290.226,-1944 290.226,-172 290.226,-172 290.226,-166 296.226,-160 302.226,-160"/>
<text text-anchor="middle" x="676.634" y="-1943.2" font-family="Times,serif" font-size="11.00" fill="gray">Chameleon</text>
</g>
<g id="clust3" class="cluster"><title>cluster_\Chameleon\Colors</title>
<path fill="none" stroke="gray" d="M310.226,-1694C310.226,-1694 989.043,-1694 989.043,-1694 995.043,-1694 1001.04,-1700 1001.04,-1706 1001.04,-1706 1001.04,-1916 1001.04,-1916 1001.04,-1922 995.043,-1928 989.043,-1928 989.043,-1928 310.226,-1928 310.226,-1928 304.226,-1928 298.226,-1922 298.226,-1916 298.226,-1916 298.226,-1706 298.226,-1706 298.226,-1700 304.226,-1694 310.226,-1694"/>
<text text-anchor="middle" x="649.634" y="-1915.2" font-family="Times,serif" font-size="11.00" fill="gray">Colors</text>
</g>
<g id="clust4" class="cluster"><title>cluster_\Chameleon\Exceptions</title>
<path fill="none" stroke="gray" d="M866.043,-510C866.043,-510 1043.04,-510 1043.04,-510 1049.04,-510 1055.04,-516 1055.04,-522 1055.04,-522 1055.04,-624 1055.04,-624 1055.04,-630 1049.04,-636 1043.04,-636 1043.04,-636 866.043,-636 866.043,-636 860.043,-636 854.043,-630 854.043,-624 854.043,-624 854.043,-522 854.043,-522 854.043,-516 860.043,-510 866.043,-510"/>
<text text-anchor="middle" x="954.543" y="-623.2" font-family="Times,serif" font-size="11.00" fill="gray">Exceptions</text>
</g>
<g id="clust5" class="cluster"><title>cluster_\Chameleon\Transformations</title>
<path fill="none" stroke="gray" d="M916.543,-322C916.543,-322 992.543,-322 992.543,-322 998.543,-322 1004.54,-328 1004.54,-334 1004.54,-334 1004.54,-490 1004.54,-490 1004.54,-496 998.543,-502 992.543,-502 992.543,-502 916.543,-502 916.543,-502 910.543,-502 904.543,-496 904.543,-490 904.543,-490 904.543,-334 904.543,-334 904.543,-328 910.543,-322 916.543,-322"/>
<text text-anchor="middle" x="954.543" y="-489.2" font-family="Times,serif" font-size="11.00" fill="gray">Transformations</text>
</g>
<g id="clust6" class="cluster"><title>cluster_\Chameleon\Primitives</title>
<path fill="none" stroke="gray" d="M596.706,-832C596.706,-832 989.043,-832 989.043,-832 995.043,-832 1001.04,-838 1001.04,-844 1001.04,-844 1001.04,-1000 1001.04,-1000 1001.04,-1006 995.043,-1012 989.043,-1012 989.043,-1012 596.706,-1012 596.706,-1012 590.706,-1012 584.706,-1006 584.706,-1000 584.706,-1000 584.706,-844 584.706,-844 584.706,-838 590.706,-832 596.706,-832"/>
<text text-anchor="middle" x="792.875" y="-999.2" font-family="Times,serif" font-size="11.00" fill="gray">Primitives</text>
</g>
<g id="clust7" class="cluster"><title>cluster_\Chameleon\Filters</title>
<path fill="none" stroke="gray" d="M313.726,-1020C313.726,-1020 1023.04,-1020 1023.04,-1020 1029.04,-1020 1035.04,-1026 1035.04,-1032 1035.04,-1032 1035.04,-1674 1035.04,-1674 1035.04,-1680 1029.04,-1686 1023.04,-1686 1023.04,-1686 313.726,-1686 313.726,-1686 307.726,-1686 301.726,-1680 301.726,-1674 301.726,-1674 301.726,-1032 301.726,-1032 301.726,-1026 307.726,-1020 313.726,-1020"/>
<text text-anchor="middle" x="668.384" y="-1673.2" font-family="Times,serif" font-size="11.00" fill="gray">Filters</text>
</g>
<g id="clust8" class="cluster"><title>cluster_\Chameleon\Patterns</title>
<path fill="none" stroke="gray" d="M310.226,-644C310.226,-644 1009.54,-644 1009.54,-644 1015.54,-644 1021.54,-650 1021.54,-656 1021.54,-656 1021.54,-812 1021.54,-812 1021.54,-818 1015.54,-824 1009.54,-824 1009.54,-824 310.226,-824 310.226,-824 304.226,-824 298.226,-818 298.226,-812 298.226,-812 298.226,-656 298.226,-656 298.226,-650 304.226,-644 310.226,-644"/>
<text text-anchor="middle" x="659.884" y="-811.2" font-family="Times,serif" font-size="11.00" fill="gray">Patterns</text>
</g>
<!-- \\Chameleon\\Colors\\HSLAColor -->
<g id="node1" class="node"><title>\\Chameleon\\Colors\\HSLAColor</title>
<polygon fill="none" stroke="black" points="993.043,-1846 916.043,-1846 916.043,-1810 993.043,-1810 993.043,-1846"/>
<text text-anchor="middle" x="954.543" y="-1825.2" font-family="Courier,monospace" font-size="11.00">HSLAColor</text>
</g>
<!-- \\Chameleon\\Colors\\HSLColor -->
<g id="node4" class="node"><title>\\Chameleon\\Colors\\HSLColor</title>
<polygon fill="none" stroke="black" points="670.206,-1765 599.206,-1765 599.206,-1729 670.206,-1729 670.206,-1765"/>
<text text-anchor="middle" x="634.706" y="-1744.2" font-family="Courier,monospace" font-size="11.00">HSLColor</text>
</g>
<!-- \\Chameleon\\Colors\\HSLAColor&#45;&gt;\\Chameleon\\Colors\\HSLColor -->
<g id="edge1" class="edge"><title>\\Chameleon\\Colors\\HSLAColor&#45;&gt;\\Chameleon\\Colors\\HSLColor</title>
<path fill="none" stroke="black" d="M915.835,-1818.39C856.955,-1803.38 743.423,-1774.45 680.478,-1758.41"/>
<polygon fill="none" stroke="black" points="681.008,-1754.93 670.454,-1755.86 679.28,-1761.72 681.008,-1754.93"/>
</g>
<!-- \\Chameleon\\Colors\\RGBColor -->
<g id="node2" class="node"><title>\\Chameleon\\Colors\\RGBColor</title>
<polygon fill="none" stroke="black" points="377.226,-1832 306.226,-1832 306.226,-1796 377.226,-1796 377.226,-1832"/>
<text text-anchor="middle" x="341.726" y="-1811.2" font-family="Courier,monospace" font-size="11.00">RGBColor</text>
</g>
<!-- \\Chameleon\\Colors\\Color -->
<g id="node40" class="node"><title>\\Chameleon\\Colors\\Color</title>
<ellipse fill="none" stroke="black" cx="102.041" cy="-626" rx="102.082" ry="18"/>
<text text-anchor="middle" x="102.041" y="-622.3" font-family="Times,serif" font-size="14.00" fill="gray">\Chameleon\Colors\Color</text>
</g>
<!-- \\Chameleon\\Colors\\RGBColor&#45;&gt;\\Chameleon\\Colors\\Color -->
<g id="edge2" class="edge"><title>\\Chameleon\\Colors\\RGBColor&#45;&gt;\\Chameleon\\Colors\\Color</title>
<path fill="none" stroke="black" d="M328.924,-1795.92C314.194,-1772.47 289.329,-1729.86 276.082,-1690 144.292,-1293.5 110.762,-779.323 104.341,-654.299"/>
<polygon fill="none" stroke="black" points="107.824,-653.87 103.832,-644.056 100.833,-654.217 107.824,-653.87"/>
</g>
<!-- \\Chameleon\\Colors\\RGBAColor -->
<g id="node3" class="node"><title>\\Chameleon\\Colors\\RGBAColor</title>
<polygon fill="none" stroke="black" points="673.206,-1886 596.206,-1886 596.206,-1850 673.206,-1850 673.206,-1886"/>
<text text-anchor="middle" x="634.706" y="-1865.2" font-family="Courier,monospace" font-size="11.00">RGBAColor</text>
</g>
<!-- \\Chameleon\\Colors\\RGBAColor&#45;&gt;\\Chameleon\\Colors\\RGBColor -->
<g id="edge3" class="edge"><title>\\Chameleon\\Colors\\RGBAColor&#45;&gt;\\Chameleon\\Colors\\RGBColor</title>
<path fill="none" stroke="black" d="M595.926,-1861.63C564.654,-1856.3 519.081,-1848.4 479.37,-1841 448.594,-1835.27 414,-1828.43 387.32,-1823.07"/>
<polygon fill="none" stroke="black" points="388.001,-1819.63 377.507,-1821.09 386.619,-1826.5 388.001,-1819.63"/>
</g>
<!-- \\Chameleon\\Colors\\HSLColor&#45;&gt;\\Chameleon\\Colors\\Color -->
<g id="edge4" class="edge"><title>\\Chameleon\\Colors\\HSLColor&#45;&gt;\\Chameleon\\Colors\\Color</title>
<path fill="none" stroke="black" d="M599.114,-1744.73C562.891,-1740.34 507.448,-1727.5 479.37,-1690 339.184,-1502.79 574.599,-803.509 407.37,-640 343.661,-577.708 232.011,-591.338 163.107,-607.942"/>
<polygon fill="none" stroke="black" points="162.113,-604.582 153.261,-610.404 163.812,-611.373 162.113,-604.582"/>
</g>
<!-- \\Chameleon\\Colors\\Hex8Color -->
<g id="node5" class="node"><title>\\Chameleon\\Colors\\Hex8Color</title>
<polygon fill="none" stroke="black" points="993.043,-1900 916.043,-1900 916.043,-1864 993.043,-1864 993.043,-1900"/>
<text text-anchor="middle" x="954.543" y="-1879.2" font-family="Courier,monospace" font-size="11.00">Hex8Color</text>
</g>
<!-- \\Chameleon\\Colors\\Hex6Color -->
<g id="node6" class="node"><title>\\Chameleon\\Colors\\Hex6Color</title>
<polygon fill="none" stroke="black" points="673.206,-1832 596.206,-1832 596.206,-1796 673.206,-1796 673.206,-1832"/>
<text text-anchor="middle" x="634.706" y="-1811.2" font-family="Courier,monospace" font-size="11.00">Hex6Color</text>
</g>
<!-- \\Chameleon\\Colors\\Hex8Color&#45;&gt;\\Chameleon\\Colors\\Hex6Color -->
<g id="edge5" class="edge"><title>\\Chameleon\\Colors\\Hex8Color&#45;&gt;\\Chameleon\\Colors\\Hex6Color</title>
<path fill="none" stroke="black" d="M915.731,-1871.69C882.709,-1862.88 833.409,-1850.22 790.043,-1841 754.425,-1833.43 713.855,-1826.39 683.252,-1821.4"/>
<polygon fill="none" stroke="black" points="683.707,-1817.93 673.277,-1819.79 682.591,-1824.84 683.707,-1817.93"/>
</g>
<!-- \\Chameleon\\Colors\\Hex6Color&#45;&gt;\\Chameleon\\Colors\\RGBColor -->
<g id="edge6" class="edge"><title>\\Chameleon\\Colors\\Hex6Color&#45;&gt;\\Chameleon\\Colors\\RGBColor</title>
<path fill="none" stroke="black" d="M595.964,-1814C542.402,-1814 444.513,-1814 387.399,-1814"/>
<polygon fill="none" stroke="black" points="387.229,-1810.5 377.229,-1814 387.229,-1817.5 387.229,-1810.5"/>
</g>
<!-- \\Chameleon\\Colors\\HSVColor -->
<g id="node7" class="node"><title>\\Chameleon\\Colors\\HSVColor</title>
<polygon fill="none" stroke="black" points="990.043,-1792 919.043,-1792 919.043,-1756 990.043,-1756 990.043,-1792"/>
<text text-anchor="middle" x="954.543" y="-1771.2" font-family="Courier,monospace" font-size="11.00">HSVColor</text>
</g>
<!-- \\Chameleon\\Colors\\HSVColor&#45;&gt;\\Chameleon\\Colors\\Color -->
<g id="edge7" class="edge"><title>\\Chameleon\\Colors\\HSVColor&#45;&gt;\\Chameleon\\Colors\\Color</title>
<path fill="none" stroke="black" d="M918.563,-1774.22C896.506,-1772.34 869.383,-1765.9 854.043,-1747 776.401,-1651.34 830.746,-756.288 790.043,-640 741.393,-501.01 538.151,-166.684 407.37,-99 355.549,-72.1804 323.341,-64.7757 276.082,-99 191.328,-160.377 125.764,-497.359 107.891,-597.761"/>
<polygon fill="none" stroke="black" points="104.416,-597.314 106.129,-607.769 111.31,-598.528 104.416,-597.314"/>
</g>
<!-- \\Chameleon\\Colors\\IColor -->
<g id="node8" class="node"><title>\\Chameleon\\Colors\\IColor</title>
<polygon fill="none" stroke="black" points="983.043,-1738 926.043,-1738 926.043,-1702 983.043,-1702 983.043,-1738"/>
<text text-anchor="middle" x="954.543" y="-1717.2" font-family="Courier,monospace" font-size="11.00">IColor</text>
</g>
<!-- \\Chameleon\\Exceptions\\ColorNotFoundException -->
<g id="node9" class="node"><title>\\Chameleon\\Exceptions\\ColorNotFoundException</title>
<polygon fill="none" stroke="black" points="1037.04,-608 872.043,-608 872.043,-572 1037.04,-572 1037.04,-608"/>
<text text-anchor="middle" x="954.543" y="-587.2" font-family="Courier,monospace" font-size="11.00">ColorNotFoundException</text>
</g>
<!-- \\Exception -->
<g id="node41" class="node"><title>\\Exception</title>
<ellipse fill="none" stroke="black" cx="634.706" cy="-72" rx="40.8928" ry="18"/>
<text text-anchor="middle" x="634.706" y="-68.3" font-family="Times,serif" font-size="14.00" fill="gray">xception</text>
</g>
<!-- \\Chameleon\\Exceptions\\ColorNotFoundException&#45;&gt;\\Exception -->
<g id="edge8" class="edge"><title>\\Chameleon\\Exceptions\\ColorNotFoundException&#45;&gt;\\Exception</title>
<path fill="none" stroke="black" d="M871.607,-576.775C865.022,-573.164 859.008,-568.645 854.043,-563 716.55,-406.691 934.562,-248.836 790.043,-99 763.346,-71.3208 719.067,-65.9787 684.766,-66.7441"/>
<polygon fill="none" stroke="black" points="684.323,-63.259 674.473,-67.1597 684.606,-70.2533 684.323,-63.259"/>
</g>
<!-- \\Chameleon\\Exceptions\\ValueOutOfBoundsException -->
<g id="node10" class="node"><title>\\Chameleon\\Exceptions\\ValueOutOfBoundsException</title>
<polygon fill="none" stroke="black" points="1047.04,-554 862.043,-554 862.043,-518 1047.04,-518 1047.04,-554"/>
<text text-anchor="middle" x="954.543" y="-533.2" font-family="Courier,monospace" font-size="11.00">ValueOutOfBoundsException</text>
</g>
<!-- \\Chameleon\\Exceptions\\ValueOutOfBoundsException&#45;&gt;\\Exception -->
<g id="edge9" class="edge"><title>\\Chameleon\\Exceptions\\ValueOutOfBoundsException&#45;&gt;\\Exception</title>
<path fill="none" stroke="black" d="M867.936,-517.879C862.789,-514.549 858.074,-510.624 854.043,-506 733.72,-367.97 918.403,-229.589 790.043,-99 763.085,-71.5744 718.833,-66.2058 684.61,-66.8966"/>
<polygon fill="none" stroke="black" points="684.2,-63.4095 674.341,-67.2878 684.467,-70.4045 684.2,-63.4095"/>
</g>
<!-- \\Chameleon\\Transformations\\ScaleMode -->
<g id="node11" class="node"><title>\\Chameleon\\Transformations\\ScaleMode</title>
<polygon fill="none" stroke="black" points="993.043,-474 916.043,-474 916.043,-438 993.043,-438 993.043,-474"/>
<text text-anchor="middle" x="954.543" y="-453.2" font-family="Courier,monospace" font-size="11.00">ScaleMode</text>
</g>
<!-- \\Eloquent\\Enumeration\\AbstractEnumeration -->
<g id="node42" class="node"><title>\\Eloquent\\Enumeration\\AbstractEnumeration</title>
<ellipse fill="none" stroke="black" cx="634.706" cy="-18" rx="155.173" ry="18"/>
<text text-anchor="middle" x="634.706" y="-14.3" font-family="Times,serif" font-size="14.00" fill="gray">loquentnumeration\AbstractEnumeration</text>
</g>
<!-- \\Chameleon\\Transformations\\ScaleMode&#45;&gt;\\Eloquent\\Enumeration\\AbstractEnumeration -->
<g id="edge10" class="edge"><title>\\Chameleon\\Transformations\\ScaleMode&#45;&gt;\\Eloquent\\Enumeration\\AbstractEnumeration</title>
<path fill="none" stroke="black" d="M915.814,-455.299C894.679,-452.843 869.535,-446.121 854.043,-429 737.955,-300.704 911.894,-167.835 790.043,-45 785.391,-40.3109 780.234,-36.2685 774.708,-32.7921"/>
<polygon fill="none" stroke="black" points="776.178,-29.6046 765.741,-27.7837 772.765,-35.7159 776.178,-29.6046"/>
</g>
<!-- \\Chameleon\\Transformations\\FlipMode -->
<g id="node12" class="node"><title>\\Chameleon\\Transformations\\FlipMode</title>
<polygon fill="none" stroke="black" points="990.043,-420 919.043,-420 919.043,-384 990.043,-384 990.043,-420"/>
<text text-anchor="middle" x="954.543" y="-399.2" font-family="Courier,monospace" font-size="11.00">FlipMode</text>
</g>
<!-- \\Chameleon\\Transformations\\FlipMode&#45;&gt;\\Eloquent\\Enumeration\\AbstractEnumeration -->
<g id="edge11" class="edge"><title>\\Chameleon\\Transformations\\FlipMode&#45;&gt;\\Eloquent\\Enumeration\\AbstractEnumeration</title>
<path fill="none" stroke="black" d="M918.893,-401.47C897.261,-399.242 870.49,-392.702 854.043,-375 752.349,-265.553 896.65,-149.667 790.043,-45 785.266,-40.3102 779.981,-36.2726 774.331,-32.8051"/>
<polygon fill="none" stroke="black" points="775.626,-29.525 765.17,-27.8136 772.277,-35.6718 775.626,-29.525"/>
</g>
<!-- \\Chameleon\\Transformations\\RotateMode -->
<g id="node13" class="node"><title>\\Chameleon\\Transformations\\RotateMode</title>
<polygon fill="none" stroke="black" points="996.543,-366 912.543,-366 912.543,-330 996.543,-330 996.543,-366"/>
<text text-anchor="middle" x="954.543" y="-345.2" font-family="Courier,monospace" font-size="11.00">RotateMode</text>
</g>
<!-- \\Chameleon\\Transformations\\RotateMode&#45;&gt;\\Eloquent\\Enumeration\\AbstractEnumeration -->
<g id="edge12" class="edge"><title>\\Chameleon\\Transformations\\RotateMode&#45;&gt;\\Eloquent\\Enumeration\\AbstractEnumeration</title>
<path fill="none" stroke="black" d="M912.384,-348.687C892.286,-346.829 869.227,-341.089 854.043,-326 763.185,-235.716 882.883,-133.244 790.043,-45 785.009,-40.2154 779.444,-36.1166 773.504,-32.6144"/>
<polygon fill="none" stroke="black" points="775.03,-29.4625 764.552,-27.8998 771.769,-35.6562 775.03,-29.4625"/>
</g>
<!-- \\Chameleon\\Primitives\\Line -->
<g id="node14" class="node"><title>\\Chameleon\\Primitives\\Line</title>
<polygon fill="none" stroke="black" points="981.543,-984 927.543,-984 927.543,-948 981.543,-948 981.543,-984"/>
<text text-anchor="middle" x="954.543" y="-963.2" font-family="Courier,monospace" font-size="11.00">Line</text>
</g>
<!-- \\Chameleon\\Primitives\\IPrimitive -->
<g id="node17" class="node"><title>\\Chameleon\\Primitives\\IPrimitive</title>
<polygon fill="none" stroke="black" points="676.706,-984 592.706,-984 592.706,-948 676.706,-948 676.706,-984"/>
<text text-anchor="middle" x="634.706" y="-963.2" font-family="Courier,monospace" font-size="11.00">IPrimitive</text>
</g>
<!-- \\Chameleon\\Primitives\\Line&#45;&gt;\\Chameleon\\Primitives\\IPrimitive -->
<g id="edge13" class="edge"><title>\\Chameleon\\Primitives\\Line&#45;&gt;\\Chameleon\\Primitives\\IPrimitive</title>
<path fill="none" stroke="black" stroke-dasharray="1,5" d="M927.533,-966C875.073,-966 755.746,-966 687.028,-966"/>
<polygon fill="none" stroke="black" points="686.861,-962.5 676.861,-966 686.861,-969.5 686.861,-962.5"/>
</g>
<!-- \\Chameleon\\Primitives\\Rectangle -->
<g id="node15" class="node"><title>\\Chameleon\\Primitives\\Rectangle</title>
<polygon fill="none" stroke="black" points="993.043,-930 916.043,-930 916.043,-894 993.043,-894 993.043,-930"/>
<text text-anchor="middle" x="954.543" y="-909.2" font-family="Courier,monospace" font-size="11.00">Rectangle</text>
</g>
<!-- \\Chameleon\\Primitives\\Primitive -->
<g id="node43" class="node"><title>\\Chameleon\\Primitives\\Primitive</title>
<ellipse fill="none" stroke="black" cx="634.706" cy="-126" rx="128.077" ry="18"/>
<text text-anchor="middle" x="634.706" y="-122.3" font-family="Times,serif" font-size="14.00" fill="gray">\Chameleon\Primitives\Primitive</text>
</g>
<!-- \\Chameleon\\Primitives\\Rectangle&#45;&gt;\\Chameleon\\Primitives\\Primitive -->
<g id="edge14" class="edge"><title>\\Chameleon\\Primitives\\Rectangle&#45;&gt;\\Chameleon\\Primitives\\Primitive</title>
<path fill="none" stroke="black" d="M915.811,-911.785C894.401,-909.528 868.976,-902.845 854.043,-885 749.959,-760.625 897.842,-279.168 790.043,-158 782.165,-149.145 772.534,-142.37 761.971,-137.226"/>
<polygon fill="none" stroke="black" points="763.035,-133.873 752.467,-133.113 760.255,-140.297 763.035,-133.873"/>
</g>
<!-- \\Chameleon\\Primitives\\Ellipse -->
<g id="node16" class="node"><title>\\Chameleon\\Primitives\\Ellipse</title>
<polygon fill="none" stroke="black" points="986.543,-876 922.543,-876 922.543,-840 986.543,-840 986.543,-876"/>
<text text-anchor="middle" x="954.543" y="-855.2" font-family="Courier,monospace" font-size="11.00">Ellipse</text>
</g>
<!-- \\Chameleon\\Primitives\\Ellipse&#45;&gt;\\Chameleon\\Primitives\\Primitive -->
<g id="edge15" class="edge"><title>\\Chameleon\\Primitives\\Ellipse&#45;&gt;\\Chameleon\\Primitives\\Primitive</title>
<path fill="none" stroke="black" d="M922.529,-857.336C899.936,-855.074 870.512,-848.094 854.043,-828 759.231,-712.324 889.873,-269.374 790.043,-158 782.052,-149.085 772.285,-142.283 761.582,-137.131"/>
<polygon fill="none" stroke="black" points="762.959,-133.914 752.39,-133.182 760.196,-140.345 762.959,-133.914"/>
</g>
<!-- \\Chameleon\\Filters\\EmbossFilter -->
<g id="node18" class="node"><title>\\Chameleon\\Filters\\EmbossFilter</title>
<polygon fill="none" stroke="black" points="1003.54,-1658 905.543,-1658 905.543,-1622 1003.54,-1622 1003.54,-1658"/>
<text text-anchor="middle" x="954.543" y="-1637.2" font-family="Courier,monospace" font-size="11.00">EmbossFilter</text>
</g>
<!-- \\Chameleon\\Filters\\BuiltinFilter -->
<g id="node29" class="node"><title>\\Chameleon\\Filters\\BuiltinFilter</title>
<polygon fill="none" stroke="black" points="686.706,-1361 582.706,-1361 582.706,-1325 686.706,-1325 686.706,-1361"/>
<text text-anchor="start" x="600.706" y="-1346.2" font-family="Courier,monospace" font-size="11.00">«abstract»</text>
<text text-anchor="start" x="590.706" y="-1334.2" font-family="Courier,monospace" font-size="11.00">BuiltinFilter</text>
</g>
<!-- \\Chameleon\\Filters\\EmbossFilter&#45;&gt;\\Chameleon\\Filters\\BuiltinFilter -->
<g id="edge16" class="edge"><title>\\Chameleon\\Filters\\EmbossFilter&#45;&gt;\\Chameleon\\Filters\\BuiltinFilter</title>
<path fill="none" stroke="black" d="M905.445,-1633.27C888.237,-1629.29 869.335,-1622.97 854.043,-1613 755.201,-1548.54 679.861,-1424.8 649.872,-1370.12"/>
<polygon fill="none" stroke="black" points="652.8,-1368.17 644.965,-1361.04 646.643,-1371.5 652.8,-1368.17"/>
</g>
<!-- \\Chameleon\\Filters\\InvertFilter -->
<g id="node19" class="node"><title>\\Chameleon\\Filters\\InvertFilter</title>
<polygon fill="none" stroke="black" points="1003.54,-1604 905.543,-1604 905.543,-1568 1003.54,-1568 1003.54,-1604"/>
<text text-anchor="middle" x="954.543" y="-1583.2" font-family="Courier,monospace" font-size="11.00">InvertFilter</text>
</g>
<!-- \\Chameleon\\Filters\\InvertFilter&#45;&gt;\\Chameleon\\Filters\\BuiltinFilter -->
<g id="edge17" class="edge"><title>\\Chameleon\\Filters\\InvertFilter&#45;&gt;\\Chameleon\\Filters\\BuiltinFilter</title>
<path fill="none" stroke="black" d="M905.514,-1578.21C888.501,-1574.13 869.709,-1568.02 854.043,-1559 766.791,-1508.75 689.464,-1415.11 654.892,-1369.43"/>
<polygon fill="none" stroke="black" points="657.542,-1367.13 648.749,-1361.22 651.938,-1371.32 657.542,-1367.13"/>
</g>
<!-- \\Chameleon\\Filters\\GrayscaleFilter -->
<g id="node20" class="node"><title>\\Chameleon\\Filters\\GrayscaleFilter</title>
<polygon fill="none" stroke="black" points="1013.54,-1550 895.543,-1550 895.543,-1514 1013.54,-1514 1013.54,-1550"/>
<text text-anchor="middle" x="954.543" y="-1529.2" font-family="Courier,monospace" font-size="11.00">GrayscaleFilter</text>
</g>
<!-- \\Chameleon\\Filters\\GrayscaleFilter&#45;&gt;\\Chameleon\\Filters\\BuiltinFilter -->
<g id="edge18" class="edge"><title>\\Chameleon\\Filters\\GrayscaleFilter&#45;&gt;\\Chameleon\\Filters\\BuiltinFilter</title>
<path fill="none" stroke="black" d="M895.388,-1520.12C881.474,-1516.23 866.926,-1511.25 854.043,-1505 778.119,-1468.17 701.753,-1403.77 662.593,-1368.27"/>
<polygon fill="none" stroke="black" points="664.556,-1365.32 654.815,-1361.16 659.831,-1370.49 664.556,-1365.32"/>
</g>
<!-- \\Chameleon\\Filters\\MeanRemovalFilter -->
<g id="node21" class="node"><title>\\Chameleon\\Filters\\MeanRemovalFilter</title>
<polygon fill="none" stroke="black" points="1020.04,-1496 889.043,-1496 889.043,-1460 1020.04,-1460 1020.04,-1496"/>
<text text-anchor="middle" x="954.543" y="-1475.2" font-family="Courier,monospace" font-size="11.00">MeanRemovalFilter</text>
</g>
<!-- \\Chameleon\\Filters\\MeanRemovalFilter&#45;&gt;\\Chameleon\\Filters\\BuiltinFilter -->
<g id="edge19" class="edge"><title>\\Chameleon\\Filters\\MeanRemovalFilter&#45;&gt;\\Chameleon\\Filters\\BuiltinFilter</title>
<path fill="none" stroke="black" d="M888.994,-1462.45C877.235,-1459.07 865.173,-1455.22 854.043,-1451 789.802,-1426.66 719.175,-1389.72 676.133,-1365.98"/>
<polygon fill="none" stroke="black" points="677.822,-1362.91 667.38,-1361.12 674.425,-1369.03 677.822,-1362.91"/>
</g>
<!-- \\Chameleon\\Filters\\BrightnessFilter -->
<g id="node22" class="node"><title>\\Chameleon\\Filters\\BrightnessFilter</title>
<polygon fill="none" stroke="black" points="1017.04,-1442 892.043,-1442 892.043,-1406 1017.04,-1406 1017.04,-1442"/>
<text text-anchor="middle" x="954.543" y="-1421.2" font-family="Courier,monospace" font-size="11.00">BrightnessFilter</text>
</g>
<!-- \\Chameleon\\Filters\\BrightnessFilter&#45;&gt;\\Chameleon\\Filters\\BuiltinFilter -->
<g id="edge20" class="edge"><title>\\Chameleon\\Filters\\BrightnessFilter&#45;&gt;\\Chameleon\\Filters\\BuiltinFilter</title>
<path fill="none" stroke="black" d="M891.884,-1408.29C835.515,-1393.92 752.619,-1372.79 696.518,-1358.5"/>
<polygon fill="none" stroke="black" points="697.268,-1355.08 686.714,-1356 695.54,-1361.86 697.268,-1355.08"/>
</g>
<!-- \\Chameleon\\Filters\\ColorizeFilter -->
<g id="node23" class="node"><title>\\Chameleon\\Filters\\ColorizeFilter</title>
<polygon fill="none" stroke="black" points="1010.04,-1388 899.043,-1388 899.043,-1352 1010.04,-1352 1010.04,-1388"/>
<text text-anchor="middle" x="954.543" y="-1367.2" font-family="Courier,monospace" font-size="11.00">ColorizeFilter</text>
</g>
<!-- \\Chameleon\\Filters\\ColorizeFilter&#45;&gt;\\Chameleon\\Filters\\BuiltinFilter -->
<g id="edge21" class="edge"><title>\\Chameleon\\Filters\\ColorizeFilter&#45;&gt;\\Chameleon\\Filters\\BuiltinFilter</title>
<path fill="none" stroke="black" d="M898.905,-1365.36C842.73,-1360.59 755.432,-1353.17 696.954,-1348.2"/>
<polygon fill="none" stroke="black" points="697.006,-1344.69 686.745,-1347.34 696.413,-1351.67 697.006,-1344.69"/>
</g>
<!-- \\Chameleon\\Filters\\SelectiveBlurFilter -->
<g id="node24" class="node"><title>\\Chameleon\\Filters\\SelectiveBlurFilter</title>
<polygon fill="none" stroke="black" points="1027.04,-1334 882.043,-1334 882.043,-1298 1027.04,-1298 1027.04,-1334"/>
<text text-anchor="middle" x="954.543" y="-1313.2" font-family="Courier,monospace" font-size="11.00">SelectiveBlurFilter</text>
</g>
<!-- \\Chameleon\\Filters\\SelectiveBlurFilter&#45;&gt;\\Chameleon\\Filters\\BuiltinFilter -->
<g id="edge22" class="edge"><title>\\Chameleon\\Filters\\SelectiveBlurFilter&#45;&gt;\\Chameleon\\Filters\\BuiltinFilter</title>
<path fill="none" stroke="black" d="M881.818,-1322.09C826.204,-1326.82 749.956,-1333.29 697.131,-1337.78"/>
<polygon fill="none" stroke="black" points="696.559,-1334.32 686.891,-1338.65 697.151,-1341.29 696.559,-1334.32"/>
</g>
<!-- \\Chameleon\\Filters\\SmoothFilter -->
<g id="node25" class="node"><title>\\Chameleon\\Filters\\SmoothFilter</title>
<polygon fill="none" stroke="black" points="1003.54,-1280 905.543,-1280 905.543,-1244 1003.54,-1244 1003.54,-1280"/>
<text text-anchor="middle" x="954.543" y="-1259.2" font-family="Courier,monospace" font-size="11.00">SmoothFilter</text>
</g>
<!-- \\Chameleon\\Filters\\SmoothFilter&#45;&gt;\\Chameleon\\Filters\\BuiltinFilter -->
<g id="edge23" class="edge"><title>\\Chameleon\\Filters\\SmoothFilter&#45;&gt;\\Chameleon\\Filters\\BuiltinFilter</title>
<path fill="none" stroke="black" d="M905.27,-1274.3C849.422,-1288.54 757.381,-1311.99 696.647,-1327.47"/>
<polygon fill="none" stroke="black" points="695.633,-1324.12 686.807,-1329.98 697.361,-1330.9 695.633,-1324.12"/>
</g>
<!-- \\Chameleon\\Filters\\GaussianBlurFilter -->
<g id="node26" class="node"><title>\\Chameleon\\Filters\\GaussianBlurFilter</title>
<polygon fill="none" stroke="black" points="1023.54,-1226 885.543,-1226 885.543,-1190 1023.54,-1190 1023.54,-1226"/>
<text text-anchor="middle" x="954.543" y="-1205.2" font-family="Courier,monospace" font-size="11.00">GaussianBlurFilter</text>
</g>
<!-- \\Chameleon\\Filters\\GaussianBlurFilter&#45;&gt;\\Chameleon\\Filters\\BuiltinFilter -->
<g id="edge24" class="edge"><title>\\Chameleon\\Filters\\GaussianBlurFilter&#45;&gt;\\Chameleon\\Filters\\BuiltinFilter</title>
<path fill="none" stroke="black" d="M885.538,-1224.55C874.886,-1227.69 864.085,-1231.2 854.043,-1235 789.802,-1259.34 719.175,-1296.28 676.133,-1320.02"/>
<polygon fill="none" stroke="black" points="674.425,-1316.97 667.38,-1324.88 677.822,-1323.09 674.425,-1316.97"/>
</g>
<!-- \\Chameleon\\Filters\\EdgedetectFilter -->
<g id="node27" class="node"><title>\\Chameleon\\Filters\\EdgedetectFilter</title>
<polygon fill="none" stroke="black" points="1017.04,-1172 892.043,-1172 892.043,-1136 1017.04,-1136 1017.04,-1172"/>
<text text-anchor="middle" x="954.543" y="-1151.2" font-family="Courier,monospace" font-size="11.00">EdgedetectFilter</text>
</g>
<!-- \\Chameleon\\Filters\\EdgedetectFilter&#45;&gt;\\Chameleon\\Filters\\BuiltinFilter -->
<g id="edge25" class="edge"><title>\\Chameleon\\Filters\\EdgedetectFilter&#45;&gt;\\Chameleon\\Filters\\BuiltinFilter</title>
<path fill="none" stroke="black" d="M891.985,-1166.85C879.121,-1170.59 865.879,-1175.26 854.043,-1181 778.119,-1217.83 701.753,-1282.23 662.593,-1317.73"/>
<polygon fill="none" stroke="black" points="659.831,-1315.51 654.815,-1324.84 664.556,-1320.68 659.831,-1315.51"/>
</g>
<!-- \\Chameleon\\Filters\\ContrastFilter -->
<g id="node28" class="node"><title>\\Chameleon\\Filters\\ContrastFilter</title>
<polygon fill="none" stroke="black" points="1010.04,-1118 899.043,-1118 899.043,-1082 1010.04,-1082 1010.04,-1118"/>
<text text-anchor="middle" x="954.543" y="-1097.2" font-family="Courier,monospace" font-size="11.00">ContrastFilter</text>
</g>
<!-- \\Chameleon\\Filters\\ContrastFilter&#45;&gt;\\Chameleon\\Filters\\BuiltinFilter -->
<g id="edge26" class="edge"><title>\\Chameleon\\Filters\\ContrastFilter&#45;&gt;\\Chameleon\\Filters\\BuiltinFilter</title>
<path fill="none" stroke="black" d="M898.867,-1109.47C883.715,-1113.49 867.692,-1119.14 854.043,-1127 766.791,-1177.25 689.464,-1270.89 654.892,-1316.57"/>
<polygon fill="none" stroke="black" points="651.938,-1314.68 648.749,-1324.78 657.542,-1318.87 651.938,-1314.68"/>
</g>
<!-- \\Chameleon\\Filters\\IFilter -->
<g id="node31" class="node"><title>\\Chameleon\\Filters\\IFilter</title>
<polygon fill="none" stroke="black" points="373.726,-1361 309.726,-1361 309.726,-1325 373.726,-1325 373.726,-1361"/>
<text text-anchor="middle" x="341.726" y="-1340.2" font-family="Courier,monospace" font-size="11.00">IFilter</text>
</g>
<!-- \\Chameleon\\Filters\\BuiltinFilter&#45;&gt;\\Chameleon\\Filters\\IFilter -->
<g id="edge27" class="edge"><title>\\Chameleon\\Filters\\BuiltinFilter&#45;&gt;\\Chameleon\\Filters\\IFilter</title>
<path fill="none" stroke="black" stroke-dasharray="1,5" d="M582.689,-1343C526.268,-1343 436.455,-1343 384.189,-1343"/>
<polygon fill="none" stroke="black" points="383.945,-1339.5 373.945,-1343 383.945,-1346.5 383.945,-1339.5"/>
</g>
<!-- \\Chameleon\\Filters\\PixelateFilter -->
<g id="node30" class="node"><title>\\Chameleon\\Filters\\PixelateFilter</title>
<polygon fill="none" stroke="black" points="1010.04,-1064 899.043,-1064 899.043,-1028 1010.04,-1028 1010.04,-1064"/>
<text text-anchor="middle" x="954.543" y="-1043.2" font-family="Courier,monospace" font-size="11.00">PixelateFilter</text>
</g>
<!-- \\Chameleon\\Filters\\PixelateFilter&#45;&gt;\\Chameleon\\Filters\\BuiltinFilter -->
<g id="edge28" class="edge"><title>\\Chameleon\\Filters\\PixelateFilter&#45;&gt;\\Chameleon\\Filters\\BuiltinFilter</title>
<path fill="none" stroke="black" d="M898.794,-1054.37C883.478,-1058.38 867.386,-1064.3 854.043,-1073 755.201,-1137.46 679.861,-1261.2 649.872,-1315.88"/>
<polygon fill="none" stroke="black" points="646.643,-1314.5 644.965,-1324.96 652.8,-1317.83 646.643,-1314.5"/>
</g>
<!-- \\Chameleon\\Patterns\\Grid -->
<g id="node32" class="node"><title>\\Chameleon\\Patterns\\Grid</title>
<polygon fill="none" stroke="black" points="981.543,-796 927.543,-796 927.543,-760 981.543,-760 981.543,-796"/>
<text text-anchor="middle" x="954.543" y="-775.2" font-family="Courier,monospace" font-size="11.00">Grid</text>
</g>
<!-- \\Chameleon\\Patterns\\Pattern -->
<g id="node33" class="node"><title>\\Chameleon\\Patterns\\Pattern</title>
<polygon fill="none" stroke="black" points="676.706,-716 592.706,-716 592.706,-680 676.706,-680 676.706,-716"/>
<text text-anchor="start" x="600.706" y="-701.2" font-family="Courier,monospace" font-size="11.00">«abstract»</text>
<text text-anchor="start" x="610.706" y="-689.2" font-family="Courier,monospace" font-size="11.00">Pattern</text>
</g>
<!-- \\Chameleon\\Patterns\\Grid&#45;&gt;\\Chameleon\\Patterns\\Pattern -->
<g id="edge29" class="edge"><title>\\Chameleon\\Patterns\\Grid&#45;&gt;\\Chameleon\\Patterns\\Pattern</title>
<path fill="none" stroke="black" d="M927.533,-771.453C874.966,-758.222 755.255,-728.091 686.605,-710.811"/>
<polygon fill="none" stroke="black" points="687.413,-707.406 676.861,-708.359 685.704,-714.194 687.413,-707.406"/>
</g>
<!-- \\Chameleon\\Patterns\\IPattern -->
<g id="node36" class="node"><title>\\Chameleon\\Patterns\\IPattern</title>
<polygon fill="none" stroke="black" points="377.226,-716 306.226,-716 306.226,-680 377.226,-680 377.226,-716"/>
<text text-anchor="middle" x="341.726" y="-695.2" font-family="Courier,monospace" font-size="11.00">IPattern</text>
</g>
<!-- \\Chameleon\\Patterns\\Pattern&#45;&gt;\\Chameleon\\Patterns\\IPattern -->
<g id="edge31" class="edge"><title>\\Chameleon\\Patterns\\Pattern&#45;&gt;\\Chameleon\\Patterns\\IPattern</title>
<path fill="none" stroke="black" stroke-dasharray="1,5" d="M592.633,-698C538.474,-698 443.512,-698 387.544,-698"/>
<polygon fill="none" stroke="black" points="387.23,-694.5 377.23,-698 387.23,-701.5 387.23,-694.5"/>
</g>
<!-- \\SplFixedArray -->
<g id="node44" class="node"><title>\\SplFixedArray</title>
<ellipse fill="none" stroke="black" cx="341.726" cy="-126" rx="65.7887" ry="18"/>
<text text-anchor="middle" x="341.726" y="-122.3" font-family="Times,serif" font-size="14.00" fill="gray">\SplFixedArray</text>
</g>
<!-- \\Chameleon\\Patterns\\Pattern&#45;&gt;\\SplFixedArray -->
<g id="edge30" class="edge"><title>\\Chameleon\\Patterns\\Pattern&#45;&gt;\\SplFixedArray</title>
<path fill="none" stroke="black" d="M624.517,-679.936C582.353,-597.052 407.296,-252.93 356.563,-153.199"/>
<polygon fill="none" stroke="black" points="359.571,-151.394 351.917,-144.068 353.332,-154.568 359.571,-151.394"/>
</g>
<!-- \\Chameleon\\Patterns\\RGBNoise -->
<g id="node34" class="node"><title>\\Chameleon\\Patterns\\RGBNoise</title>
<polygon fill="none" stroke="black" points="990.043,-742 919.043,-742 919.043,-706 990.043,-706 990.043,-742"/>
<text text-anchor="middle" x="954.543" y="-721.2" font-family="Courier,monospace" font-size="11.00">RGBNoise</text>
</g>
<!-- \\Chameleon\\Patterns\\RGBNoise&#45;&gt;\\Chameleon\\Patterns\\Pattern -->
<g id="edge32" class="edge"><title>\\Chameleon\\Patterns\\RGBNoise&#45;&gt;\\Chameleon\\Patterns\\Pattern</title>
<path fill="none" stroke="black" d="M918.924,-721.168C862.875,-716.583 751.984,-707.512 686.828,-702.182"/>
<polygon fill="none" stroke="black" points="687.031,-698.687 676.778,-701.36 686.46,-705.664 687.031,-698.687"/>
</g>
<!-- \\Chameleon\\Patterns\\BackgroundColor -->
<g id="node35" class="node"><title>\\Chameleon\\Patterns\\BackgroundColor</title>
<polygon fill="none" stroke="black" points="1013.54,-688 895.543,-688 895.543,-652 1013.54,-652 1013.54,-688"/>
<text text-anchor="middle" x="954.543" y="-667.2" font-family="Courier,monospace" font-size="11.00">BackgroundColor</text>
</g>
<!-- \\Chameleon\\Patterns\\BackgroundColor&#45;&gt;\\Chameleon\\Patterns\\Pattern -->
<g id="edge33" class="edge"><title>\\Chameleon\\Patterns\\BackgroundColor&#45;&gt;\\Chameleon\\Patterns\\Pattern</title>
<path fill="none" stroke="black" d="M895.247,-675.136C835.691,-680.382 744.108,-688.45 687.162,-693.467"/>
<polygon fill="none" stroke="black" points="686.602,-690.003 676.947,-694.367 687.216,-696.976 686.602,-690.003"/>
</g>
<!-- \\Chameleon\\Image -->
<g id="node37" class="node"><title>\\Chameleon\\Image</title>
<polygon fill="none" stroke="black" points="981.543,-312 927.543,-312 927.543,-276 981.543,-276 981.543,-312"/>
<text text-anchor="middle" x="954.543" y="-291.2" font-family="Courier,monospace" font-size="11.00">Image</text>
</g>
<!-- \\Chameleon\\Vector2 -->
<g id="node38" class="node"><title>\\Chameleon\\Vector2</title>
<polygon fill="none" stroke="black" points="986.543,-258 922.543,-258 922.543,-222 986.543,-222 986.543,-258"/>
<text text-anchor="middle" x="954.543" y="-237.2" font-family="Courier,monospace" font-size="11.00">Vector2</text>
</g>
<!-- \\Chameleon\\ColorFactory -->
<g id="node39" class="node"><title>\\Chameleon\\ColorFactory</title>
<polygon fill="none" stroke="black" points="1003.54,-204 905.543,-204 905.543,-168 1003.54,-168 1003.54,-204"/>
<text text-anchor="middle" x="954.543" y="-183.2" font-family="Courier,monospace" font-size="11.00">ColorFactory</text>
</g>
</g>
</svg>
