<?xml version="1.0" encoding="UTF-8" standalone="no"?>
<!DOCTYPE svg PUBLIC "-//W3C//DTD SVG 1.1//EN"
 "http://www.w3.org/Graphics/SVG/1.1/DTD/svg11.dtd">
<!-- Generated by graphviz version 2.38.0 (20140413.2041)
 -->
<!-- Title: G Pages: 1 -->
<svg width="1032pt" height="1084pt"
 viewBox="0.00 0.00 1032.45 1084.00" xmlns="http://www.w3.org/2000/svg" xmlns:xlink="http://www.w3.org/1999/xlink">
<g id="graph0" class="graph" transform="scale(1 1) rotate(0) translate(4 1080)">
<title>G</title>
<polygon fill="white" stroke="none" points="-4,4 -4,-1080 1028.45,-1080 1028.45,4 -4,4"/>
<g id="clust1" class="cluster"><title>cluster_Global</title>
<path fill="none" stroke="gray" d="M294.226,-98C294.226,-98 1004.45,-98 1004.45,-98 1010.45,-98 1016.45,-104 1016.45,-110 1016.45,-110 1016.45,-1056 1016.45,-1056 1016.45,-1062 1010.45,-1068 1004.45,-1068 1004.45,-1068 294.226,-1068 294.226,-1068 288.226,-1068 282.226,-1062 282.226,-1056 282.226,-1056 282.226,-110 282.226,-110 282.226,-104 288.226,-98 294.226,-98"/>
<text text-anchor="middle" x="649.337" y="-1055.2" font-family="Times,serif" font-size="11.00" fill="gray">Global</text>
</g>
<g id="clust2" class="cluster"><title>cluster_\Chameleon</title>
<path fill="none" stroke="gray" d="M302.226,-106C302.226,-106 996.448,-106 996.448,-106 1002.45,-106 1008.45,-112 1008.45,-118 1008.45,-118 1008.45,-1028 1008.45,-1028 1008.45,-1034 1002.45,-1040 996.448,-1040 996.448,-1040 302.226,-1040 302.226,-1040 296.226,-1040 290.226,-1034 290.226,-1028 290.226,-1028 290.226,-118 290.226,-118 290.226,-112 296.226,-106 302.226,-106"/>
<text text-anchor="middle" x="649.337" y="-1027.2" font-family="Times,serif" font-size="11.00" fill="gray">Chameleon</text>
</g>
<g id="clust3" class="cluster"><title>cluster_\Chameleon\Colors</title>
<path fill="none" stroke="gray" d="M310.226,-778C310.226,-778 934.448,-778 934.448,-778 940.448,-778 946.448,-784 946.448,-790 946.448,-790 946.448,-1000 946.448,-1000 946.448,-1006 940.448,-1012 934.448,-1012 934.448,-1012 310.226,-1012 310.226,-1012 304.226,-1012 298.226,-1006 298.226,-1000 298.226,-1000 298.226,-790 298.226,-790 298.226,-784 304.226,-778 310.226,-778"/>
<text text-anchor="middle" x="622.337" y="-999.2" font-family="Times,serif" font-size="11.00" fill="gray">Colors</text>
</g>
<g id="clust4" class="cluster"><title>cluster_\Chameleon\Patterns</title>
<path fill="none" stroke="gray" d="M310.226,-590C310.226,-590 954.948,-590 954.948,-590 960.948,-590 966.948,-596 966.948,-602 966.948,-602 966.948,-758 966.948,-758 966.948,-764 960.948,-770 954.948,-770 954.948,-770 310.226,-770 310.226,-770 304.226,-770 298.226,-764 298.226,-758 298.226,-758 298.226,-602 298.226,-602 298.226,-596 304.226,-590 310.226,-590"/>
<text text-anchor="middle" x="632.587" y="-757.2" font-family="Times,serif" font-size="11.00" fill="gray">Patterns</text>
</g>
<g id="clust5" class="cluster"><title>cluster_\Chameleon\Exceptions</title>
<path fill="none" stroke="gray" d="M811.448,-268C811.448,-268 988.448,-268 988.448,-268 994.448,-268 1000.45,-274 1000.45,-280 1000.45,-280 1000.45,-382 1000.45,-382 1000.45,-388 994.448,-394 988.448,-394 988.448,-394 811.448,-394 811.448,-394 805.448,-394 799.448,-388 799.448,-382 799.448,-382 799.448,-280 799.448,-280 799.448,-274 805.448,-268 811.448,-268"/>
<text text-anchor="middle" x="899.948" y="-381.2" font-family="Times,serif" font-size="11.00" fill="gray">Exceptions</text>
</g>
<g id="clust6" class="cluster"><title>cluster_\Chameleon\Primitives</title>
<path fill="none" stroke="gray" d="M569.409,-402C569.409,-402 934.448,-402 934.448,-402 940.448,-402 946.448,-408 946.448,-414 946.448,-414 946.448,-570 946.448,-570 946.448,-576 940.448,-582 934.448,-582 934.448,-582 569.409,-582 569.409,-582 563.409,-582 557.409,-576 557.409,-570 557.409,-570 557.409,-414 557.409,-414 557.409,-408 563.409,-402 569.409,-402"/>
<text text-anchor="middle" x="751.928" y="-569.2" font-family="Times,serif" font-size="11.00" fill="gray">Primitives</text>
</g>
<!-- \\Chameleon\\Colors\\HSLColor -->
<g id="node1" class="node"><title>\\Chameleon\\Colors\\HSLColor</title>
<polygon fill="none" stroke="black" points="642.909,-849 571.909,-849 571.909,-813 642.909,-813 642.909,-849"/>
<text text-anchor="middle" x="607.409" y="-828.2" font-family="Courier,monospace" font-size="11.00">HSLColor</text>
</g>
<!-- \\Chameleon\\Colors\\Color -->
<g id="node23" class="node"><title>\\Chameleon\\Colors\\Color</title>
<ellipse fill="none" stroke="black" cx="102.041" cy="-572" rx="102.082" ry="18"/>
<text text-anchor="middle" x="102.041" y="-568.3" font-family="Times,serif" font-size="14.00" fill="gray">\Chameleon\Colors\Color</text>
</g>
<!-- \\Chameleon\\Colors\\HSLColor&#45;&gt;\\Chameleon\\Colors\\Color -->
<g id="edge1" class="edge"><title>\\Chameleon\\Colors\\HSLColor&#45;&gt;\\Chameleon\\Colors\\Color</title>
<path fill="none" stroke="black" d="M571.634,-823.248C543.354,-815.288 504.199,-800.26 479.37,-774 417.899,-708.986 479.903,-638.388 407.37,-586 339.058,-536.661 237.902,-543.312 171.241,-555.372"/>
<polygon fill="none" stroke="black" points="170.429,-551.963 161.257,-557.265 171.734,-558.841 170.429,-551.963"/>
</g>
<!-- \\Chameleon\\Colors\\RGBColor -->
<g id="node2" class="node"><title>\\Chameleon\\Colors\\RGBColor</title>
<polygon fill="none" stroke="black" points="377.226,-916 306.226,-916 306.226,-880 377.226,-880 377.226,-916"/>
<text text-anchor="middle" x="341.726" y="-895.2" font-family="Courier,monospace" font-size="11.00">RGBColor</text>
</g>
<!-- \\Chameleon\\Colors\\RGBColor&#45;&gt;\\Chameleon\\Colors\\Color -->
<g id="edge2" class="edge"><title>\\Chameleon\\Colors\\RGBColor&#45;&gt;\\Chameleon\\Colors\\Color</title>
<path fill="none" stroke="black" d="M327.266,-879.539C287.216,-824.608 168.709,-662.068 122.14,-598.195"/>
<polygon fill="none" stroke="black" points="124.781,-595.877 116.062,-589.859 119.125,-600.001 124.781,-595.877"/>
</g>
<!-- \\Chameleon\\Colors\\Hex6Color -->
<g id="node3" class="node"><title>\\Chameleon\\Colors\\Hex6Color</title>
<polygon fill="none" stroke="black" points="645.909,-977 568.909,-977 568.909,-941 645.909,-941 645.909,-977"/>
<text text-anchor="middle" x="607.409" y="-956.2" font-family="Courier,monospace" font-size="11.00">Hex6Color</text>
</g>
<!-- \\Chameleon\\Colors\\Hex6Color&#45;&gt;\\Chameleon\\Colors\\RGBColor -->
<g id="edge3" class="edge"><title>\\Chameleon\\Colors\\Hex6Color&#45;&gt;\\Chameleon\\Colors\\RGBColor</title>
<path fill="none" stroke="black" d="M568.63,-950.26C520.702,-939.173 438.17,-920.08 387.238,-908.297"/>
<polygon fill="none" stroke="black" points="388.024,-904.887 377.492,-906.043 386.446,-911.707 388.024,-904.887"/>
</g>
<!-- \\Chameleon\\Colors\\Hex8Color -->
<g id="node4" class="node"><title>\\Chameleon\\Colors\\Hex8Color</title>
<polygon fill="none" stroke="black" points="938.448,-984 861.448,-984 861.448,-948 938.448,-948 938.448,-984"/>
<text text-anchor="middle" x="899.948" y="-963.2" font-family="Courier,monospace" font-size="11.00">Hex8Color</text>
</g>
<!-- \\Chameleon\\Colors\\Hex8Color&#45;&gt;\\Chameleon\\Colors\\Hex6Color -->
<g id="edge8" class="edge"><title>\\Chameleon\\Colors\\Hex8Color&#45;&gt;\\Chameleon\\Colors\\Hex6Color</title>
<path fill="none" stroke="black" d="M861.263,-965.092C808.793,-963.828 713.723,-961.537 656.294,-960.154"/>
<polygon fill="none" stroke="black" points="656.109,-956.648 646.027,-959.906 655.94,-963.646 656.109,-956.648"/>
</g>
<!-- \\Chameleon\\Colors\\RGBAColor -->
<g id="node5" class="node"><title>\\Chameleon\\Colors\\RGBAColor</title>
<polygon fill="none" stroke="black" points="645.909,-916 568.909,-916 568.909,-880 645.909,-880 645.909,-916"/>
<text text-anchor="middle" x="607.409" y="-895.2" font-family="Courier,monospace" font-size="11.00">RGBAColor</text>
</g>
<!-- \\Chameleon\\Colors\\RGBAColor&#45;&gt;\\Chameleon\\Colors\\RGBColor -->
<g id="edge9" class="edge"><title>\\Chameleon\\Colors\\RGBAColor&#45;&gt;\\Chameleon\\Colors\\RGBColor</title>
<path fill="none" stroke="black" d="M568.63,-898C520.802,-898 438.514,-898 387.557,-898"/>
<polygon fill="none" stroke="black" points="387.493,-894.5 377.492,-898 387.492,-901.5 387.493,-894.5"/>
</g>
<!-- \\Chameleon\\Colors\\HSVColor -->
<g id="node6" class="node"><title>\\Chameleon\\Colors\\HSVColor</title>
<polygon fill="none" stroke="black" points="935.448,-876 864.448,-876 864.448,-840 935.448,-840 935.448,-876"/>
<text text-anchor="middle" x="899.948" y="-855.2" font-family="Courier,monospace" font-size="11.00">HSVColor</text>
</g>
<!-- \\Chameleon\\Colors\\HSVColor&#45;&gt;\\Chameleon\\Colors\\Color -->
<g id="edge11" class="edge"><title>\\Chameleon\\Colors\\HSVColor&#45;&gt;\\Chameleon\\Colors\\Color</title>
<path fill="none" stroke="black" d="M864.029,-857.714C842.287,-855.586 815.494,-849.066 799.448,-831 670.258,-685.556 819.675,-573.356 735.448,-398 712.264,-349.733 456.458,-66.3925 407.37,-45 353.879,-21.6882 323.341,-10.7757 276.082,-45 191.328,-106.377 125.764,-443.359 107.891,-543.761"/>
<polygon fill="none" stroke="black" points="104.416,-543.314 106.129,-553.769 111.31,-544.528 104.416,-543.314"/>
</g>
<!-- \\Chameleon\\Colors\\HSLAColor -->
<g id="node7" class="node"><title>\\Chameleon\\Colors\\HSLAColor</title>
<polygon fill="none" stroke="black" points="938.448,-930 861.448,-930 861.448,-894 938.448,-894 938.448,-930"/>
<text text-anchor="middle" x="899.948" y="-909.2" font-family="Courier,monospace" font-size="11.00">HSLAColor</text>
</g>
<!-- \\Chameleon\\Colors\\HSLAColor&#45;&gt;\\Chameleon\\Colors\\HSLColor -->
<g id="edge14" class="edge"><title>\\Chameleon\\Colors\\HSLAColor&#45;&gt;\\Chameleon\\Colors\\HSLColor</title>
<path fill="none" stroke="black" d="M861.124,-901.836C842.532,-896.815 819.802,-890.638 799.448,-885 749.291,-871.106 691.835,-854.815 653.143,-843.788"/>
<polygon fill="none" stroke="black" points="653.815,-840.34 643.238,-840.964 651.895,-847.072 653.815,-840.34"/>
</g>
<!-- \\Chameleon\\Colors\\IColor -->
<g id="node8" class="node"><title>\\Chameleon\\Colors\\IColor</title>
<polygon fill="none" stroke="black" points="928.448,-822 871.448,-822 871.448,-786 928.448,-786 928.448,-822"/>
<text text-anchor="middle" x="899.948" y="-801.2" font-family="Courier,monospace" font-size="11.00">IColor</text>
</g>
<!-- \\Chameleon\\Patterns\\Pattern -->
<g id="node9" class="node"><title>\\Chameleon\\Patterns\\Pattern</title>
<polygon fill="none" stroke="black" points="649.409,-662 565.409,-662 565.409,-626 649.409,-626 649.409,-662"/>
<text text-anchor="start" x="573.409" y="-647.2" font-family="Courier,monospace" font-size="11.00">«abstract»</text>
<text text-anchor="start" x="583.409" y="-635.2" font-family="Courier,monospace" font-size="11.00">Pattern</text>
</g>
<!-- \\Chameleon\\Patterns\\IPattern -->
<g id="node13" class="node"><title>\\Chameleon\\Patterns\\IPattern</title>
<polygon fill="none" stroke="black" points="377.226,-662 306.226,-662 306.226,-626 377.226,-626 377.226,-662"/>
<text text-anchor="middle" x="341.726" y="-641.2" font-family="Courier,monospace" font-size="11.00">IPattern</text>
</g>
<!-- \\Chameleon\\Patterns\\Pattern&#45;&gt;\\Chameleon\\Patterns\\IPattern -->
<g id="edge6" class="edge"><title>\\Chameleon\\Patterns\\Pattern&#45;&gt;\\Chameleon\\Patterns\\IPattern</title>
<path fill="none" stroke="black" stroke-dasharray="1,5" d="M565.208,-644C516.933,-644 437.231,-644 387.474,-644"/>
<polygon fill="none" stroke="black" points="387.333,-640.5 377.333,-644 387.333,-647.5 387.333,-640.5"/>
</g>
<!-- \\SplFixedArray -->
<g id="node25" class="node"><title>\\SplFixedArray</title>
<ellipse fill="none" stroke="black" cx="341.726" cy="-72" rx="65.7887" ry="18"/>
<text text-anchor="middle" x="341.726" y="-68.3" font-family="Times,serif" font-size="14.00" fill="gray">\SplFixedArray</text>
</g>
<!-- \\Chameleon\\Patterns\\Pattern&#45;&gt;\\SplFixedArray -->
<g id="edge5" class="edge"><title>\\Chameleon\\Patterns\\Pattern&#45;&gt;\\SplFixedArray</title>
<path fill="none" stroke="black" d="M565.284,-635.042C537.208,-626.85 501.267,-611.936 479.37,-586 353.826,-437.302 342.382,-185.056 342.258,-100.549"/>
<polygon fill="none" stroke="black" points="345.758,-100.44 342.298,-90.4265 338.758,-100.412 345.758,-100.44"/>
</g>
<!-- \\Chameleon\\Patterns\\BackgroundColor -->
<g id="node10" class="node"><title>\\Chameleon\\Patterns\\BackgroundColor</title>
<polygon fill="none" stroke="black" points="958.948,-742 840.948,-742 840.948,-706 958.948,-706 958.948,-742"/>
<text text-anchor="middle" x="899.948" y="-721.2" font-family="Courier,monospace" font-size="11.00">BackgroundColor</text>
</g>
<!-- \\Chameleon\\Patterns\\BackgroundColor&#45;&gt;\\Chameleon\\Patterns\\Pattern -->
<g id="edge10" class="edge"><title>\\Chameleon\\Patterns\\BackgroundColor&#45;&gt;\\Chameleon\\Patterns\\Pattern</title>
<path fill="none" stroke="black" d="M840.794,-708.279C827.222,-704.593 812.825,-700.671 799.448,-697 752.067,-683.999 698.129,-669.019 659.677,-658.308"/>
<polygon fill="none" stroke="black" points="660.328,-654.856 649.755,-655.543 658.449,-661.599 660.328,-654.856"/>
</g>
<!-- \\Chameleon\\Patterns\\RGBNoise -->
<g id="node11" class="node"><title>\\Chameleon\\Patterns\\RGBNoise</title>
<polygon fill="none" stroke="black" points="935.448,-688 864.448,-688 864.448,-652 935.448,-652 935.448,-688"/>
<text text-anchor="middle" x="899.948" y="-667.2" font-family="Courier,monospace" font-size="11.00">RGBNoise</text>
</g>
<!-- \\Chameleon\\Patterns\\RGBNoise&#45;&gt;\\Chameleon\\Patterns\\Pattern -->
<g id="edge16" class="edge"><title>\\Chameleon\\Patterns\\RGBNoise&#45;&gt;\\Chameleon\\Patterns\\Pattern</title>
<path fill="none" stroke="black" d="M864.19,-666.89C813.464,-662.35 718.803,-653.879 659.953,-648.613"/>
<polygon fill="none" stroke="black" points="660.029,-645.106 649.757,-647.7 659.405,-652.078 660.029,-645.106"/>
</g>
<!-- \\Chameleon\\Patterns\\Grid -->
<g id="node12" class="node"><title>\\Chameleon\\Patterns\\Grid</title>
<polygon fill="none" stroke="black" points="926.948,-634 872.948,-634 872.948,-598 926.948,-598 926.948,-634"/>
<text text-anchor="middle" x="899.948" y="-613.2" font-family="Courier,monospace" font-size="11.00">Grid</text>
</g>
<!-- \\Chameleon\\Patterns\\Grid&#45;&gt;\\Chameleon\\Patterns\\Pattern -->
<g id="edge17" class="edge"><title>\\Chameleon\\Patterns\\Grid&#45;&gt;\\Chameleon\\Patterns\\Pattern</title>
<path fill="none" stroke="black" d="M872.908,-618.509C824.949,-623.131 721.868,-633.066 659.497,-639.076"/>
<polygon fill="none" stroke="black" points="659.094,-635.599 649.476,-640.042 659.766,-642.567 659.094,-635.599"/>
</g>
<!-- \\Chameleon\\Exceptions\\ColorNotFoundException -->
<g id="node14" class="node"><title>\\Chameleon\\Exceptions\\ColorNotFoundException</title>
<polygon fill="none" stroke="black" points="982.448,-366 817.448,-366 817.448,-330 982.448,-330 982.448,-366"/>
<text text-anchor="middle" x="899.948" y="-345.2" font-family="Courier,monospace" font-size="11.00">ColorNotFoundException</text>
</g>
<!-- \\Exception -->
<g id="node24" class="node"><title>\\Exception</title>
<ellipse fill="none" stroke="black" cx="607.409" cy="-18" rx="40.8928" ry="18"/>
<text text-anchor="middle" x="607.409" y="-14.3" font-family="Times,serif" font-size="14.00" fill="gray">xception</text>
</g>
<!-- \\Chameleon\\Exceptions\\ColorNotFoundException&#45;&gt;\\Exception -->
<g id="edge4" class="edge"><title>\\Chameleon\\Exceptions\\ColorNotFoundException&#45;&gt;\\Exception</title>
<path fill="none" stroke="black" d="M817.061,-334.038C810.553,-330.569 804.539,-326.285 799.448,-321 712.075,-230.323 825.305,-133.215 735.448,-45 715.348,-25.2678 684.615,-18.3638 658.413,-16.4671"/>
<polygon fill="none" stroke="black" points="658.415,-12.9629 648.253,-15.9581 658.065,-19.9542 658.415,-12.9629"/>
</g>
<!-- \\Chameleon\\Exceptions\\ValueOutOfBoundsException -->
<g id="node15" class="node"><title>\\Chameleon\\Exceptions\\ValueOutOfBoundsException</title>
<polygon fill="none" stroke="black" points="992.448,-312 807.448,-312 807.448,-276 992.448,-276 992.448,-312"/>
<text text-anchor="middle" x="899.948" y="-291.2" font-family="Courier,monospace" font-size="11.00">ValueOutOfBoundsException</text>
</g>
<!-- \\Chameleon\\Exceptions\\ValueOutOfBoundsException&#45;&gt;\\Exception -->
<g id="edge13" class="edge"><title>\\Chameleon\\Exceptions\\ValueOutOfBoundsException&#45;&gt;\\Exception</title>
<path fill="none" stroke="black" d="M807.294,-278.28C804.521,-276.394 801.891,-274.308 799.448,-272 723.238,-200.03 811.951,-116.658 735.448,-45 714.963,-25.813 684.364,-18.9014 658.329,-16.8639"/>
<polygon fill="none" stroke="black" points="658.419,-13.3635 648.237,-16.2929 658.024,-20.3523 658.419,-13.3635"/>
</g>
<!-- \\Chameleon\\Primitives\\Ellipse -->
<g id="node16" class="node"><title>\\Chameleon\\Primitives\\Ellipse</title>
<polygon fill="none" stroke="black" points="931.948,-500 867.948,-500 867.948,-464 931.948,-464 931.948,-500"/>
<text text-anchor="middle" x="899.948" y="-479.2" font-family="Courier,monospace" font-size="11.00">Ellipse</text>
</g>
<!-- \\Chameleon\\Primitives\\Primitive -->
<g id="node26" class="node"><title>\\Chameleon\\Primitives\\Primitive</title>
<ellipse fill="none" stroke="black" cx="607.409" cy="-72" rx="128.077" ry="18"/>
<text text-anchor="middle" x="607.409" y="-68.3" font-family="Times,serif" font-size="14.00" fill="gray">\Chameleon\Primitives\Primitive</text>
</g>
<!-- \\Chameleon\\Primitives\\Ellipse&#45;&gt;\\Chameleon\\Primitives\\Primitive -->
<g id="edge7" class="edge"><title>\\Chameleon\\Primitives\\Ellipse&#45;&gt;\\Chameleon\\Primitives\\Primitive</title>
<path fill="none" stroke="black" d="M867.557,-481.841C845.377,-479.977 816.643,-473.716 799.448,-455 692.163,-338.23 843.791,-219.788 735.448,-104 729.407,-97.5444 722.272,-92.3115 714.514,-88.0788"/>
<polygon fill="none" stroke="black" points="716.04,-84.9292 705.515,-83.7131 712.985,-91.2271 716.04,-84.9292"/>
</g>
<!-- \\Chameleon\\Primitives\\Line -->
<g id="node17" class="node"><title>\\Chameleon\\Primitives\\Line</title>
<polygon fill="none" stroke="black" points="926.948,-554 872.948,-554 872.948,-518 926.948,-518 926.948,-554"/>
<text text-anchor="middle" x="899.948" y="-533.2" font-family="Courier,monospace" font-size="11.00">Line</text>
</g>
<!-- \\Chameleon\\Primitives\\IPrimitive -->
<g id="node19" class="node"><title>\\Chameleon\\Primitives\\IPrimitive</title>
<polygon fill="none" stroke="black" points="649.409,-554 565.409,-554 565.409,-518 649.409,-518 649.409,-554"/>
<text text-anchor="middle" x="607.409" y="-533.2" font-family="Courier,monospace" font-size="11.00">IPrimitive</text>
</g>
<!-- \\Chameleon\\Primitives\\Line&#45;&gt;\\Chameleon\\Primitives\\IPrimitive -->
<g id="edge12" class="edge"><title>\\Chameleon\\Primitives\\Line&#45;&gt;\\Chameleon\\Primitives\\IPrimitive</title>
<path fill="none" stroke="black" stroke-dasharray="1,5" d="M872.908,-536C824.949,-536 721.868,-536 659.497,-536"/>
<polygon fill="none" stroke="black" points="659.476,-532.5 649.476,-536 659.476,-539.5 659.476,-532.5"/>
</g>
<!-- \\Chameleon\\Primitives\\Rectangle -->
<g id="node18" class="node"><title>\\Chameleon\\Primitives\\Rectangle</title>
<polygon fill="none" stroke="black" points="938.448,-446 861.448,-446 861.448,-410 938.448,-410 938.448,-446"/>
<text text-anchor="middle" x="899.948" y="-425.2" font-family="Courier,monospace" font-size="11.00">Rectangle</text>
</g>
<!-- \\Chameleon\\Primitives\\Rectangle&#45;&gt;\\Chameleon\\Primitives\\Primitive -->
<g id="edge15" class="edge"><title>\\Chameleon\\Primitives\\Rectangle&#45;&gt;\\Chameleon\\Primitives\\Primitive</title>
<path fill="none" stroke="black" d="M861.446,-425.794C840.389,-422.575 815.247,-415.091 799.448,-398 708.672,-299.803 828.462,-200.079 735.448,-104 729.241,-97.5886 721.952,-92.3909 714.06,-88.1853"/>
<polygon fill="none" stroke="black" points="715.453,-84.9722 704.918,-83.8468 712.452,-91.2962 715.453,-84.9722"/>
</g>
<!-- \\Chameleon\\Vector2 -->
<g id="node20" class="node"><title>\\Chameleon\\Vector2</title>
<polygon fill="none" stroke="black" points="931.948,-258 867.948,-258 867.948,-222 931.948,-222 931.948,-258"/>
<text text-anchor="middle" x="899.948" y="-237.2" font-family="Courier,monospace" font-size="11.00">Vector2</text>
</g>
<!-- \\Chameleon\\ColorFactory -->
<g id="node21" class="node"><title>\\Chameleon\\ColorFactory</title>
<polygon fill="none" stroke="black" points="948.948,-204 850.948,-204 850.948,-168 948.948,-168 948.948,-204"/>
<text text-anchor="middle" x="899.948" y="-183.2" font-family="Courier,monospace" font-size="11.00">ColorFactory</text>
</g>
<!-- \\Chameleon\\Image -->
<g id="node22" class="node"><title>\\Chameleon\\Image</title>
<polygon fill="none" stroke="black" points="926.948,-150 872.948,-150 872.948,-114 926.948,-114 926.948,-150"/>
<text text-anchor="middle" x="899.948" y="-129.2" font-family="Courier,monospace" font-size="11.00">Image</text>
</g>
</g>
</svg>
