<?xml version="1.0" encoding="UTF-8" standalone="no"?>
<!DOCTYPE svg PUBLIC "-//W3C//DTD SVG 1.1//EN"
 "http://www.w3.org/Graphics/SVG/1.1/DTD/svg11.dtd">
<!-- Generated by graphviz version 2.38.0 (20140413.2041)
 -->
<!-- Title: G Pages: 1 -->
<svg width="1087pt" height="1946pt"
 viewBox="0.00 0.00 1087.04 1946.00" xmlns="http://www.w3.org/2000/svg" xmlns:xlink="http://www.w3.org/1999/xlink">
<g id="graph0" class="graph" transform="scale(1 1) rotate(0) translate(4 1942)">
<title>G</title>
<polygon fill="white" stroke="none" points="-4,4 -4,-1942 1083.04,-1942 1083.04,4 -4,4"/>
<g id="clust1" class="cluster"><title>cluster_Global</title>
<path fill="none" stroke="gray" d="M294.226,-152C294.226,-152 1059.04,-152 1059.04,-152 1065.04,-152 1071.04,-158 1071.04,-164 1071.04,-164 1071.04,-1918 1071.04,-1918 1071.04,-1924 1065.04,-1930 1059.04,-1930 1059.04,-1930 294.226,-1930 294.226,-1930 288.226,-1930 282.226,-1924 282.226,-1918 282.226,-1918 282.226,-164 282.226,-164 282.226,-158 288.226,-152 294.226,-152"/>
<text text-anchor="middle" x="676.634" y="-1917.2" font-family="Times,serif" font-size="11.00" fill="gray">Global</text>
</g>
<g id="clust2" class="cluster"><title>cluster_\Chameleon</title>
<path fill="none" stroke="gray" d="M302.226,-160C302.226,-160 1051.04,-160 1051.04,-160 1057.04,-160 1063.04,-166 1063.04,-172 1063.04,-172 1063.04,-1890 1063.04,-1890 1063.04,-1896 1057.04,-1902 1051.04,-1902 1051.04,-1902 302.226,-1902 302.226,-1902 296.226,-1902 290.226,-1896 290.226,-1890 290.226,-1890 290.226,-172 290.226,-172 290.226,-166 296.226,-160 302.226,-160"/>
<text text-anchor="middle" x="676.634" y="-1889.2" font-family="Times,serif" font-size="11.00" fill="gray">Chameleon</text>
</g>
<g id="clust3" class="cluster"><title>cluster_\Chameleon\Colors</title>
<path fill="none" stroke="gray" d="M310.226,-966C310.226,-966 989.043,-966 989.043,-966 995.043,-966 1001.04,-972 1001.04,-978 1001.04,-978 1001.04,-1188 1001.04,-1188 1001.04,-1194 995.043,-1200 989.043,-1200 989.043,-1200 310.226,-1200 310.226,-1200 304.226,-1200 298.226,-1194 298.226,-1188 298.226,-1188 298.226,-978 298.226,-978 298.226,-972 304.226,-966 310.226,-966"/>
<text text-anchor="middle" x="649.634" y="-1187.2" font-family="Times,serif" font-size="11.00" fill="gray">Colors</text>
</g>
<g id="clust4" class="cluster"><title>cluster_\Chameleon\Filters</title>
<path fill="none" stroke="gray" d="M313.726,-1208C313.726,-1208 1023.04,-1208 1023.04,-1208 1029.04,-1208 1035.04,-1214 1035.04,-1220 1035.04,-1220 1035.04,-1862 1035.04,-1862 1035.04,-1868 1029.04,-1874 1023.04,-1874 1023.04,-1874 313.726,-1874 313.726,-1874 307.726,-1874 301.726,-1868 301.726,-1862 301.726,-1862 301.726,-1220 301.726,-1220 301.726,-1214 307.726,-1208 313.726,-1208"/>
<text text-anchor="middle" x="668.384" y="-1861.2" font-family="Times,serif" font-size="11.00" fill="gray">Filters</text>
</g>
<g id="clust5" class="cluster"><title>cluster_\Chameleon\Patterns</title>
<path fill="none" stroke="gray" d="M310.226,-778C310.226,-778 1009.54,-778 1009.54,-778 1015.54,-778 1021.54,-784 1021.54,-790 1021.54,-790 1021.54,-946 1021.54,-946 1021.54,-952 1015.54,-958 1009.54,-958 1009.54,-958 310.226,-958 310.226,-958 304.226,-958 298.226,-952 298.226,-946 298.226,-946 298.226,-790 298.226,-790 298.226,-784 304.226,-778 310.226,-778"/>
<text text-anchor="middle" x="659.884" y="-945.2" font-family="Times,serif" font-size="11.00" fill="gray">Patterns</text>
</g>
<g id="clust6" class="cluster"><title>cluster_\Chameleon\Exceptions</title>
<path fill="none" stroke="gray" d="M866.043,-510C866.043,-510 1043.04,-510 1043.04,-510 1049.04,-510 1055.04,-516 1055.04,-522 1055.04,-522 1055.04,-624 1055.04,-624 1055.04,-630 1049.04,-636 1043.04,-636 1043.04,-636 866.043,-636 866.043,-636 860.043,-636 854.043,-630 854.043,-624 854.043,-624 854.043,-522 854.043,-522 854.043,-516 860.043,-510 866.043,-510"/>
<text text-anchor="middle" x="954.543" y="-623.2" font-family="Times,serif" font-size="11.00" fill="gray">Exceptions</text>
</g>
<g id="clust7" class="cluster"><title>cluster_\Chameleon\Primitives</title>
<path fill="none" stroke="gray" d="M596.706,-644C596.706,-644 989.043,-644 989.043,-644 995.043,-644 1001.04,-650 1001.04,-656 1001.04,-656 1001.04,-758 1001.04,-758 1001.04,-764 995.043,-770 989.043,-770 989.043,-770 596.706,-770 596.706,-770 590.706,-770 584.706,-764 584.706,-758 584.706,-758 584.706,-656 584.706,-656 584.706,-650 590.706,-644 596.706,-644"/>
<text text-anchor="middle" x="792.875" y="-757.2" font-family="Times,serif" font-size="11.00" fill="gray">Primitives</text>
</g>
<g id="clust8" class="cluster"><title>cluster_\Chameleon\Transformations</title>
<path fill="none" stroke="gray" d="M916.543,-322C916.543,-322 992.543,-322 992.543,-322 998.543,-322 1004.54,-328 1004.54,-334 1004.54,-334 1004.54,-490 1004.54,-490 1004.54,-496 998.543,-502 992.543,-502 992.543,-502 916.543,-502 916.543,-502 910.543,-502 904.543,-496 904.543,-490 904.543,-490 904.543,-334 904.543,-334 904.543,-328 910.543,-322 916.543,-322"/>
<text text-anchor="middle" x="954.543" y="-489.2" font-family="Times,serif" font-size="11.00" fill="gray">Transformations</text>
</g>
<!-- \\Chameleon\\Colors\\HSLColor -->
<g id="node1" class="node"><title>\\Chameleon\\Colors\\HSLColor</title>
<polygon fill="none" stroke="black" points="670.206,-1037 599.206,-1037 599.206,-1001 670.206,-1001 670.206,-1037"/>
<text text-anchor="middle" x="634.706" y="-1016.2" font-family="Courier,monospace" font-size="11.00">HSLColor</text>
</g>
<!-- \\Chameleon\\Colors\\Color -->
<g id="node39" class="node"><title>\\Chameleon\\Colors\\Color</title>
<ellipse fill="none" stroke="black" cx="102.041" cy="-760" rx="102.082" ry="18"/>
<text text-anchor="middle" x="102.041" y="-756.3" font-family="Times,serif" font-size="14.00" fill="gray">\Chameleon\Colors\Color</text>
</g>
<!-- \\Chameleon\\Colors\\HSLColor&#45;&gt;\\Chameleon\\Colors\\Color -->
<g id="edge1" class="edge"><title>\\Chameleon\\Colors\\HSLColor&#45;&gt;\\Chameleon\\Colors\\Color</title>
<path fill="none" stroke="black" d="M598.911,-1014.57C564.365,-1008.45 511.98,-994.222 479.37,-962 415.726,-899.112 479.903,-826.388 407.37,-774 339.058,-724.661 237.902,-731.312 171.241,-743.372"/>
<polygon fill="none" stroke="black" points="170.429,-739.963 161.257,-745.265 171.734,-746.841 170.429,-739.963"/>
</g>
<!-- \\Chameleon\\Colors\\RGBColor -->
<g id="node2" class="node"><title>\\Chameleon\\Colors\\RGBColor</title>
<polygon fill="none" stroke="black" points="377.226,-1104 306.226,-1104 306.226,-1068 377.226,-1068 377.226,-1104"/>
<text text-anchor="middle" x="341.726" y="-1083.2" font-family="Courier,monospace" font-size="11.00">RGBColor</text>
</g>
<!-- \\Chameleon\\Colors\\RGBColor&#45;&gt;\\Chameleon\\Colors\\Color -->
<g id="edge2" class="edge"><title>\\Chameleon\\Colors\\RGBColor&#45;&gt;\\Chameleon\\Colors\\Color</title>
<path fill="none" stroke="black" d="M327.266,-1067.54C287.216,-1012.61 168.709,-850.068 122.14,-786.195"/>
<polygon fill="none" stroke="black" points="124.781,-783.877 116.062,-777.859 119.125,-788.001 124.781,-783.877"/>
</g>
<!-- \\Chameleon\\Colors\\Hex6Color -->
<g id="node3" class="node"><title>\\Chameleon\\Colors\\Hex6Color</title>
<polygon fill="none" stroke="black" points="673.206,-1165 596.206,-1165 596.206,-1129 673.206,-1129 673.206,-1165"/>
<text text-anchor="middle" x="634.706" y="-1144.2" font-family="Courier,monospace" font-size="11.00">Hex6Color</text>
</g>
<!-- \\Chameleon\\Colors\\Hex6Color&#45;&gt;\\Chameleon\\Colors\\RGBColor -->
<g id="edge5" class="edge"><title>\\Chameleon\\Colors\\Hex6Color&#45;&gt;\\Chameleon\\Colors\\RGBColor</title>
<path fill="none" stroke="black" d="M595.964,-1139.09C542.291,-1127.84 444.106,-1107.25 387.044,-1095.29"/>
<polygon fill="none" stroke="black" points="387.734,-1091.86 377.229,-1093.23 386.298,-1098.71 387.734,-1091.86"/>
</g>
<!-- \\Chameleon\\Colors\\Hex8Color -->
<g id="node4" class="node"><title>\\Chameleon\\Colors\\Hex8Color</title>
<polygon fill="none" stroke="black" points="993.043,-1172 916.043,-1172 916.043,-1136 993.043,-1136 993.043,-1172"/>
<text text-anchor="middle" x="954.543" y="-1151.2" font-family="Courier,monospace" font-size="11.00">Hex8Color</text>
</g>
<!-- \\Chameleon\\Colors\\Hex8Color&#45;&gt;\\Chameleon\\Colors\\Hex6Color -->
<g id="edge9" class="edge"><title>\\Chameleon\\Colors\\Hex8Color&#45;&gt;\\Chameleon\\Colors\\Hex6Color</title>
<path fill="none" stroke="black" d="M915.835,-1153.17C857.89,-1151.89 747.013,-1149.45 683.513,-1148.05"/>
<polygon fill="none" stroke="black" points="683.44,-1144.55 673.365,-1147.83 683.286,-1151.55 683.44,-1144.55"/>
</g>
<!-- \\Chameleon\\Colors\\RGBAColor -->
<g id="node5" class="node"><title>\\Chameleon\\Colors\\RGBAColor</title>
<polygon fill="none" stroke="black" points="673.206,-1104 596.206,-1104 596.206,-1068 673.206,-1068 673.206,-1104"/>
<text text-anchor="middle" x="634.706" y="-1083.2" font-family="Courier,monospace" font-size="11.00">RGBAColor</text>
</g>
<!-- \\Chameleon\\Colors\\RGBAColor&#45;&gt;\\Chameleon\\Colors\\RGBColor -->
<g id="edge10" class="edge"><title>\\Chameleon\\Colors\\RGBAColor&#45;&gt;\\Chameleon\\Colors\\RGBColor</title>
<path fill="none" stroke="black" d="M595.964,-1086C542.402,-1086 444.513,-1086 387.399,-1086"/>
<polygon fill="none" stroke="black" points="387.229,-1082.5 377.229,-1086 387.229,-1089.5 387.229,-1082.5"/>
</g>
<!-- \\Chameleon\\Colors\\HSVColor -->
<g id="node6" class="node"><title>\\Chameleon\\Colors\\HSVColor</title>
<polygon fill="none" stroke="black" points="990.043,-1064 919.043,-1064 919.043,-1028 990.043,-1028 990.043,-1064"/>
<text text-anchor="middle" x="954.543" y="-1043.2" font-family="Courier,monospace" font-size="11.00">HSVColor</text>
</g>
<!-- \\Chameleon\\Colors\\HSVColor&#45;&gt;\\Chameleon\\Colors\\Color -->
<g id="edge12" class="edge"><title>\\Chameleon\\Colors\\HSVColor&#45;&gt;\\Chameleon\\Colors\\Color</title>
<path fill="none" stroke="black" d="M918.748,-1045.6C897.057,-1043.43 870.274,-1036.9 854.043,-1019 739.29,-892.452 855.221,-797.906 790.043,-640 733.858,-503.882 538.151,-166.684 407.37,-99 355.549,-72.1804 322.272,-63.3454 276.082,-99 172.037,-179.313 118.459,-615.882 105.939,-731.754"/>
<polygon fill="none" stroke="black" points="102.432,-731.63 104.855,-741.944 109.393,-732.37 102.432,-731.63"/>
</g>
<!-- \\Chameleon\\Colors\\HSLAColor -->
<g id="node7" class="node"><title>\\Chameleon\\Colors\\HSLAColor</title>
<polygon fill="none" stroke="black" points="993.043,-1118 916.043,-1118 916.043,-1082 993.043,-1082 993.043,-1118"/>
<text text-anchor="middle" x="954.543" y="-1097.2" font-family="Courier,monospace" font-size="11.00">HSLAColor</text>
</g>
<!-- \\Chameleon\\Colors\\HSLAColor&#45;&gt;\\Chameleon\\Colors\\HSLColor -->
<g id="edge17" class="edge"><title>\\Chameleon\\Colors\\HSLAColor&#45;&gt;\\Chameleon\\Colors\\HSLColor</title>
<path fill="none" stroke="black" d="M915.835,-1090.39C856.955,-1075.38 743.423,-1046.45 680.478,-1030.41"/>
<polygon fill="none" stroke="black" points="681.008,-1026.93 670.454,-1027.86 679.28,-1033.72 681.008,-1026.93"/>
</g>
<!-- \\Chameleon\\Colors\\IColor -->
<g id="node8" class="node"><title>\\Chameleon\\Colors\\IColor</title>
<polygon fill="none" stroke="black" points="983.043,-1010 926.043,-1010 926.043,-974 983.043,-974 983.043,-1010"/>
<text text-anchor="middle" x="954.543" y="-989.2" font-family="Courier,monospace" font-size="11.00">IColor</text>
</g>
<!-- \\Chameleon\\Filters\\SelectiveBlurFilter -->
<g id="node9" class="node"><title>\\Chameleon\\Filters\\SelectiveBlurFilter</title>
<polygon fill="none" stroke="black" points="1027.04,-1306 882.043,-1306 882.043,-1270 1027.04,-1270 1027.04,-1306"/>
<text text-anchor="middle" x="954.543" y="-1285.2" font-family="Courier,monospace" font-size="11.00">SelectiveBlurFilter</text>
</g>
<!-- \\Chameleon\\Filters\\BuiltinFilter -->
<g id="node20" class="node"><title>\\Chameleon\\Filters\\BuiltinFilter</title>
<polygon fill="none" stroke="black" points="686.706,-1549 582.706,-1549 582.706,-1513 686.706,-1513 686.706,-1549"/>
<text text-anchor="start" x="600.706" y="-1534.2" font-family="Courier,monospace" font-size="11.00">«abstract»</text>
<text text-anchor="start" x="590.706" y="-1522.2" font-family="Courier,monospace" font-size="11.00">BuiltinFilter</text>
</g>
<!-- \\Chameleon\\Filters\\SelectiveBlurFilter&#45;&gt;\\Chameleon\\Filters\\BuiltinFilter -->
<g id="edge3" class="edge"><title>\\Chameleon\\Filters\\SelectiveBlurFilter&#45;&gt;\\Chameleon\\Filters\\BuiltinFilter</title>
<path fill="none" stroke="black" d="M881.886,-1302.62C872.204,-1305.97 862.651,-1310.04 854.043,-1315 766.791,-1365.25 689.464,-1458.89 654.892,-1504.57"/>
<polygon fill="none" stroke="black" points="651.938,-1502.68 648.749,-1512.78 657.542,-1506.87 651.938,-1502.68"/>
</g>
<!-- \\Chameleon\\Filters\\MeanRemovalFilter -->
<g id="node10" class="node"><title>\\Chameleon\\Filters\\MeanRemovalFilter</title>
<polygon fill="none" stroke="black" points="1020.04,-1252 889.043,-1252 889.043,-1216 1020.04,-1216 1020.04,-1252"/>
<text text-anchor="middle" x="954.543" y="-1231.2" font-family="Courier,monospace" font-size="11.00">MeanRemovalFilter</text>
</g>
<!-- \\Chameleon\\Filters\\MeanRemovalFilter&#45;&gt;\\Chameleon\\Filters\\BuiltinFilter -->
<g id="edge4" class="edge"><title>\\Chameleon\\Filters\\MeanRemovalFilter&#45;&gt;\\Chameleon\\Filters\\BuiltinFilter</title>
<path fill="none" stroke="black" d="M888.913,-1245.21C876.732,-1249.04 864.537,-1254.16 854.043,-1261 755.201,-1325.46 679.861,-1449.2 649.872,-1503.88"/>
<polygon fill="none" stroke="black" points="646.643,-1502.5 644.965,-1512.96 652.8,-1505.83 646.643,-1502.5"/>
</g>
<!-- \\Chameleon\\Filters\\BrightnessFilter -->
<g id="node11" class="node"><title>\\Chameleon\\Filters\\BrightnessFilter</title>
<polygon fill="none" stroke="black" points="1017.04,-1846 892.043,-1846 892.043,-1810 1017.04,-1810 1017.04,-1846"/>
<text text-anchor="middle" x="954.543" y="-1825.2" font-family="Courier,monospace" font-size="11.00">BrightnessFilter</text>
</g>
<!-- \\Chameleon\\Filters\\BrightnessFilter&#45;&gt;\\Chameleon\\Filters\\BuiltinFilter -->
<g id="edge13" class="edge"><title>\\Chameleon\\Filters\\BrightnessFilter&#45;&gt;\\Chameleon\\Filters\\BuiltinFilter</title>
<path fill="none" stroke="black" d="M891.783,-1817.67C878.659,-1813.76 865.362,-1808.38 854.043,-1801 755.201,-1736.54 679.861,-1612.8 649.872,-1558.12"/>
<polygon fill="none" stroke="black" points="652.8,-1556.17 644.965,-1549.04 646.643,-1559.5 652.8,-1556.17"/>
</g>
<!-- \\Chameleon\\Filters\\EdgedetectFilter -->
<g id="node12" class="node"><title>\\Chameleon\\Filters\\EdgedetectFilter</title>
<polygon fill="none" stroke="black" points="1017.04,-1792 892.043,-1792 892.043,-1756 1017.04,-1756 1017.04,-1792"/>
<text text-anchor="middle" x="954.543" y="-1771.2" font-family="Courier,monospace" font-size="11.00">EdgedetectFilter</text>
</g>
<!-- \\Chameleon\\Filters\\EdgedetectFilter&#45;&gt;\\Chameleon\\Filters\\BuiltinFilter -->
<g id="edge16" class="edge"><title>\\Chameleon\\Filters\\EdgedetectFilter&#45;&gt;\\Chameleon\\Filters\\BuiltinFilter</title>
<path fill="none" stroke="black" d="M891.844,-1762.56C878.855,-1758.72 865.598,-1753.65 854.043,-1747 766.791,-1696.75 689.464,-1603.11 654.892,-1557.43"/>
<polygon fill="none" stroke="black" points="657.542,-1555.13 648.749,-1549.22 651.938,-1559.32 657.542,-1555.13"/>
</g>
<!-- \\Chameleon\\Filters\\EmbossFilter -->
<g id="node13" class="node"><title>\\Chameleon\\Filters\\EmbossFilter</title>
<polygon fill="none" stroke="black" points="1003.54,-1738 905.543,-1738 905.543,-1702 1003.54,-1702 1003.54,-1738"/>
<text text-anchor="middle" x="954.543" y="-1717.2" font-family="Courier,monospace" font-size="11.00">EmbossFilter</text>
</g>
<!-- \\Chameleon\\Filters\\EmbossFilter&#45;&gt;\\Chameleon\\Filters\\BuiltinFilter -->
<g id="edge18" class="edge"><title>\\Chameleon\\Filters\\EmbossFilter&#45;&gt;\\Chameleon\\Filters\\BuiltinFilter</title>
<path fill="none" stroke="black" d="M905.417,-1710.78C888.665,-1706.58 870.066,-1700.77 854.043,-1693 778.119,-1656.17 701.753,-1591.77 662.593,-1556.27"/>
<polygon fill="none" stroke="black" points="664.556,-1553.32 654.815,-1549.16 659.831,-1558.49 664.556,-1553.32"/>
</g>
<!-- \\Chameleon\\Filters\\SmoothFilter -->
<g id="node14" class="node"><title>\\Chameleon\\Filters\\SmoothFilter</title>
<polygon fill="none" stroke="black" points="1003.54,-1684 905.543,-1684 905.543,-1648 1003.54,-1648 1003.54,-1684"/>
<text text-anchor="middle" x="954.543" y="-1663.2" font-family="Courier,monospace" font-size="11.00">SmoothFilter</text>
</g>
<!-- \\Chameleon\\Filters\\SmoothFilter&#45;&gt;\\Chameleon\\Filters\\BuiltinFilter -->
<g id="edge19" class="edge"><title>\\Chameleon\\Filters\\SmoothFilter&#45;&gt;\\Chameleon\\Filters\\BuiltinFilter</title>
<path fill="none" stroke="black" d="M905.368,-1654.94C888.872,-1650.63 870.446,-1645.21 854.043,-1639 789.802,-1614.66 719.175,-1577.72 676.133,-1553.98"/>
<polygon fill="none" stroke="black" points="677.822,-1550.91 667.38,-1549.12 674.425,-1557.03 677.822,-1550.91"/>
</g>
<!-- \\Chameleon\\Filters\\GrayscaleFilter -->
<g id="node15" class="node"><title>\\Chameleon\\Filters\\GrayscaleFilter</title>
<polygon fill="none" stroke="black" points="1013.54,-1630 895.543,-1630 895.543,-1594 1013.54,-1594 1013.54,-1630"/>
<text text-anchor="middle" x="954.543" y="-1609.2" font-family="Courier,monospace" font-size="11.00">GrayscaleFilter</text>
</g>
<!-- \\Chameleon\\Filters\\GrayscaleFilter&#45;&gt;\\Chameleon\\Filters\\BuiltinFilter -->
<g id="edge21" class="edge"><title>\\Chameleon\\Filters\\GrayscaleFilter&#45;&gt;\\Chameleon\\Filters\\BuiltinFilter</title>
<path fill="none" stroke="black" d="M895.247,-1597.14C838.949,-1582.8 754.032,-1561.15 696.807,-1546.57"/>
<polygon fill="none" stroke="black" points="697.366,-1543.1 686.811,-1544.02 695.637,-1549.89 697.366,-1543.1"/>
</g>
<!-- \\Chameleon\\Filters\\GaussianBlurFilter -->
<g id="node16" class="node"><title>\\Chameleon\\Filters\\GaussianBlurFilter</title>
<polygon fill="none" stroke="black" points="1023.54,-1576 885.543,-1576 885.543,-1540 1023.54,-1540 1023.54,-1576"/>
<text text-anchor="middle" x="954.543" y="-1555.2" font-family="Courier,monospace" font-size="11.00">GaussianBlurFilter</text>
</g>
<!-- \\Chameleon\\Filters\\GaussianBlurFilter&#45;&gt;\\Chameleon\\Filters\\BuiltinFilter -->
<g id="edge25" class="edge"><title>\\Chameleon\\Filters\\GaussianBlurFilter&#45;&gt;\\Chameleon\\Filters\\BuiltinFilter</title>
<path fill="none" stroke="black" d="M885.359,-1552.21C829.496,-1547.46 751.137,-1540.81 697.183,-1536.22"/>
<polygon fill="none" stroke="black" points="697.328,-1532.72 687.068,-1535.36 696.735,-1539.7 697.328,-1532.72"/>
</g>
<!-- \\Chameleon\\Filters\\ColorizeFilter -->
<g id="node17" class="node"><title>\\Chameleon\\Filters\\ColorizeFilter</title>
<polygon fill="none" stroke="black" points="1010.04,-1522 899.043,-1522 899.043,-1486 1010.04,-1486 1010.04,-1522"/>
<text text-anchor="middle" x="954.543" y="-1501.2" font-family="Courier,monospace" font-size="11.00">ColorizeFilter</text>
</g>
<!-- \\Chameleon\\Filters\\ColorizeFilter&#45;&gt;\\Chameleon\\Filters\\BuiltinFilter -->
<g id="edge26" class="edge"><title>\\Chameleon\\Filters\\ColorizeFilter&#45;&gt;\\Chameleon\\Filters\\BuiltinFilter</title>
<path fill="none" stroke="black" d="M898.905,-1508.64C842.73,-1513.41 755.432,-1520.83 696.954,-1525.8"/>
<polygon fill="none" stroke="black" points="696.413,-1522.33 686.745,-1526.66 697.006,-1529.31 696.413,-1522.33"/>
</g>
<!-- \\Chameleon\\Filters\\InvertFilter -->
<g id="node18" class="node"><title>\\Chameleon\\Filters\\InvertFilter</title>
<polygon fill="none" stroke="black" points="1003.54,-1468 905.543,-1468 905.543,-1432 1003.54,-1432 1003.54,-1468"/>
<text text-anchor="middle" x="954.543" y="-1447.2" font-family="Courier,monospace" font-size="11.00">InvertFilter</text>
</g>
<!-- \\Chameleon\\Filters\\InvertFilter&#45;&gt;\\Chameleon\\Filters\\BuiltinFilter -->
<g id="edge27" class="edge"><title>\\Chameleon\\Filters\\InvertFilter&#45;&gt;\\Chameleon\\Filters\\BuiltinFilter</title>
<path fill="none" stroke="black" d="M905.27,-1462.3C849.422,-1476.54 757.381,-1499.99 696.647,-1515.47"/>
<polygon fill="none" stroke="black" points="695.633,-1512.12 686.807,-1517.98 697.361,-1518.9 695.633,-1512.12"/>
</g>
<!-- \\Chameleon\\Filters\\ContrastFilter -->
<g id="node19" class="node"><title>\\Chameleon\\Filters\\ContrastFilter</title>
<polygon fill="none" stroke="black" points="1010.04,-1414 899.043,-1414 899.043,-1378 1010.04,-1378 1010.04,-1414"/>
<text text-anchor="middle" x="954.543" y="-1393.2" font-family="Courier,monospace" font-size="11.00">ContrastFilter</text>
</g>
<!-- \\Chameleon\\Filters\\ContrastFilter&#45;&gt;\\Chameleon\\Filters\\BuiltinFilter -->
<g id="edge29" class="edge"><title>\\Chameleon\\Filters\\ContrastFilter&#45;&gt;\\Chameleon\\Filters\\BuiltinFilter</title>
<path fill="none" stroke="black" d="M898.969,-1408.76C884.204,-1412.77 868.354,-1417.58 854.043,-1423 789.802,-1447.34 719.175,-1484.28 676.133,-1508.02"/>
<polygon fill="none" stroke="black" points="674.425,-1504.97 667.38,-1512.88 677.822,-1511.09 674.425,-1504.97"/>
</g>
<!-- \\Chameleon\\Filters\\IFilter -->
<g id="node22" class="node"><title>\\Chameleon\\Filters\\IFilter</title>
<polygon fill="none" stroke="black" points="373.726,-1549 309.726,-1549 309.726,-1513 373.726,-1513 373.726,-1549"/>
<text text-anchor="middle" x="341.726" y="-1528.2" font-family="Courier,monospace" font-size="11.00">IFilter</text>
</g>
<!-- \\Chameleon\\Filters\\BuiltinFilter&#45;&gt;\\Chameleon\\Filters\\IFilter -->
<g id="edge30" class="edge"><title>\\Chameleon\\Filters\\BuiltinFilter&#45;&gt;\\Chameleon\\Filters\\IFilter</title>
<path fill="none" stroke="black" stroke-dasharray="1,5" d="M582.689,-1531C526.268,-1531 436.455,-1531 384.189,-1531"/>
<polygon fill="none" stroke="black" points="383.945,-1527.5 373.945,-1531 383.945,-1534.5 383.945,-1527.5"/>
</g>
<!-- \\Chameleon\\Filters\\PixelateFilter -->
<g id="node21" class="node"><title>\\Chameleon\\Filters\\PixelateFilter</title>
<polygon fill="none" stroke="black" points="1010.04,-1360 899.043,-1360 899.043,-1324 1010.04,-1324 1010.04,-1360"/>
<text text-anchor="middle" x="954.543" y="-1339.2" font-family="Courier,monospace" font-size="11.00">PixelateFilter</text>
</g>
<!-- \\Chameleon\\Filters\\PixelateFilter&#45;&gt;\\Chameleon\\Filters\\BuiltinFilter -->
<g id="edge32" class="edge"><title>\\Chameleon\\Filters\\PixelateFilter&#45;&gt;\\Chameleon\\Filters\\BuiltinFilter</title>
<path fill="none" stroke="black" d="M899.025,-1352.88C884.033,-1356.91 868.053,-1362.2 854.043,-1369 778.119,-1405.83 701.753,-1470.23 662.593,-1505.73"/>
<polygon fill="none" stroke="black" points="659.831,-1503.51 654.815,-1512.84 664.556,-1508.68 659.831,-1503.51"/>
</g>
<!-- \\Chameleon\\Patterns\\Pattern -->
<g id="node23" class="node"><title>\\Chameleon\\Patterns\\Pattern</title>
<polygon fill="none" stroke="black" points="676.706,-850 592.706,-850 592.706,-814 676.706,-814 676.706,-850"/>
<text text-anchor="start" x="600.706" y="-835.2" font-family="Courier,monospace" font-size="11.00">«abstract»</text>
<text text-anchor="start" x="610.706" y="-823.2" font-family="Courier,monospace" font-size="11.00">Pattern</text>
</g>
<!-- \\Chameleon\\Patterns\\IPattern -->
<g id="node27" class="node"><title>\\Chameleon\\Patterns\\IPattern</title>
<polygon fill="none" stroke="black" points="377.226,-850 306.226,-850 306.226,-814 377.226,-814 377.226,-850"/>
<text text-anchor="middle" x="341.726" y="-829.2" font-family="Courier,monospace" font-size="11.00">IPattern</text>
</g>
<!-- \\Chameleon\\Patterns\\Pattern&#45;&gt;\\Chameleon\\Patterns\\IPattern -->
<g id="edge8" class="edge"><title>\\Chameleon\\Patterns\\Pattern&#45;&gt;\\Chameleon\\Patterns\\IPattern</title>
<path fill="none" stroke="black" stroke-dasharray="1,5" d="M592.633,-832C538.474,-832 443.512,-832 387.544,-832"/>
<polygon fill="none" stroke="black" points="387.23,-828.5 377.23,-832 387.23,-835.5 387.23,-828.5"/>
</g>
<!-- \\SplFixedArray -->
<g id="node41" class="node"><title>\\SplFixedArray</title>
<ellipse fill="none" stroke="black" cx="341.726" cy="-126" rx="65.7887" ry="18"/>
<text text-anchor="middle" x="341.726" y="-122.3" font-family="Times,serif" font-size="14.00" fill="gray">\SplFixedArray</text>
</g>
<!-- \\Chameleon\\Patterns\\Pattern&#45;&gt;\\SplFixedArray -->
<g id="edge7" class="edge"><title>\\Chameleon\\Patterns\\Pattern&#45;&gt;\\SplFixedArray</title>
<path fill="none" stroke="black" d="M592.369,-827.463C557.134,-821.359 507.81,-807.116 479.37,-774 396.728,-677.769 355.034,-266.019 345.095,-154.147"/>
<polygon fill="none" stroke="black" points="348.565,-153.649 344.208,-143.992 341.592,-154.258 348.565,-153.649"/>
</g>
<!-- \\Chameleon\\Patterns\\BackgroundColor -->
<g id="node24" class="node"><title>\\Chameleon\\Patterns\\BackgroundColor</title>
<polygon fill="none" stroke="black" points="1013.54,-876 895.543,-876 895.543,-840 1013.54,-840 1013.54,-876"/>
<text text-anchor="middle" x="954.543" y="-855.2" font-family="Courier,monospace" font-size="11.00">BackgroundColor</text>
</g>
<!-- \\Chameleon\\Patterns\\BackgroundColor&#45;&gt;\\Chameleon\\Patterns\\Pattern -->
<g id="edge11" class="edge"><title>\\Chameleon\\Patterns\\BackgroundColor&#45;&gt;\\Chameleon\\Patterns\\Pattern</title>
<path fill="none" stroke="black" d="M895.247,-853.231C835.691,-848.359 744.108,-840.868 687.162,-836.209"/>
<polygon fill="none" stroke="black" points="687.2,-832.701 676.947,-835.374 686.629,-839.677 687.2,-832.701"/>
</g>
<!-- \\Chameleon\\Patterns\\RGBNoise -->
<g id="node25" class="node"><title>\\Chameleon\\Patterns\\RGBNoise</title>
<polygon fill="none" stroke="black" points="990.043,-822 919.043,-822 919.043,-786 990.043,-786 990.043,-822"/>
<text text-anchor="middle" x="954.543" y="-801.2" font-family="Courier,monospace" font-size="11.00">RGBNoise</text>
</g>
<!-- \\Chameleon\\Patterns\\RGBNoise&#45;&gt;\\Chameleon\\Patterns\\Pattern -->
<g id="edge23" class="edge"><title>\\Chameleon\\Patterns\\RGBNoise&#45;&gt;\\Chameleon\\Patterns\\Pattern</title>
<path fill="none" stroke="black" d="M918.924,-807.05C862.875,-811.987 751.984,-821.756 686.828,-827.496"/>
<polygon fill="none" stroke="black" points="686.433,-824.018 676.778,-828.382 687.047,-830.991 686.433,-824.018"/>
</g>
<!-- \\Chameleon\\Patterns\\Grid -->
<g id="node26" class="node"><title>\\Chameleon\\Patterns\\Grid</title>
<polygon fill="none" stroke="black" points="981.543,-930 927.543,-930 927.543,-894 981.543,-894 981.543,-930"/>
<text text-anchor="middle" x="954.543" y="-909.2" font-family="Courier,monospace" font-size="11.00">Grid</text>
</g>
<!-- \\Chameleon\\Patterns\\Grid&#45;&gt;\\Chameleon\\Patterns\\Pattern -->
<g id="edge28" class="edge"><title>\\Chameleon\\Patterns\\Grid&#45;&gt;\\Chameleon\\Patterns\\Pattern</title>
<path fill="none" stroke="black" d="M927.533,-905.453C874.966,-892.222 755.255,-862.091 686.605,-844.811"/>
<polygon fill="none" stroke="black" points="687.413,-841.406 676.861,-842.359 685.704,-848.194 687.413,-841.406"/>
</g>
<!-- \\Chameleon\\Exceptions\\ColorNotFoundException -->
<g id="node28" class="node"><title>\\Chameleon\\Exceptions\\ColorNotFoundException</title>
<polygon fill="none" stroke="black" points="1037.04,-608 872.043,-608 872.043,-572 1037.04,-572 1037.04,-608"/>
<text text-anchor="middle" x="954.543" y="-587.2" font-family="Courier,monospace" font-size="11.00">ColorNotFoundException</text>
</g>
<!-- \\Exception -->
<g id="node40" class="node"><title>\\Exception</title>
<ellipse fill="none" stroke="black" cx="634.706" cy="-72" rx="40.8928" ry="18"/>
<text text-anchor="middle" x="634.706" y="-68.3" font-family="Times,serif" font-size="14.00" fill="gray">xception</text>
</g>
<!-- \\Chameleon\\Exceptions\\ColorNotFoundException&#45;&gt;\\Exception -->
<g id="edge6" class="edge"><title>\\Chameleon\\Exceptions\\ColorNotFoundException&#45;&gt;\\Exception</title>
<path fill="none" stroke="black" d="M871.607,-576.775C865.022,-573.164 859.008,-568.645 854.043,-563 716.55,-406.691 934.562,-248.836 790.043,-99 763.346,-71.3208 719.067,-65.9787 684.766,-66.7441"/>
<polygon fill="none" stroke="black" points="684.323,-63.259 674.473,-67.1597 684.606,-70.2533 684.323,-63.259"/>
</g>
<!-- \\Chameleon\\Exceptions\\ValueOutOfBoundsException -->
<g id="node29" class="node"><title>\\Chameleon\\Exceptions\\ValueOutOfBoundsException</title>
<polygon fill="none" stroke="black" points="1047.04,-554 862.043,-554 862.043,-518 1047.04,-518 1047.04,-554"/>
<text text-anchor="middle" x="954.543" y="-533.2" font-family="Courier,monospace" font-size="11.00">ValueOutOfBoundsException</text>
</g>
<!-- \\Chameleon\\Exceptions\\ValueOutOfBoundsException&#45;&gt;\\Exception -->
<g id="edge15" class="edge"><title>\\Chameleon\\Exceptions\\ValueOutOfBoundsException&#45;&gt;\\Exception</title>
<path fill="none" stroke="black" d="M867.936,-517.879C862.789,-514.549 858.074,-510.624 854.043,-506 733.72,-367.97 918.403,-229.589 790.043,-99 763.085,-71.5744 718.833,-66.2058 684.61,-66.8966"/>
<polygon fill="none" stroke="black" points="684.2,-63.4095 674.341,-67.2878 684.467,-70.4045 684.2,-63.4095"/>
</g>
<!-- \\Chameleon\\Primitives\\Line -->
<g id="node30" class="node"><title>\\Chameleon\\Primitives\\Line</title>
<polygon fill="none" stroke="black" points="981.543,-742 927.543,-742 927.543,-706 981.543,-706 981.543,-742"/>
<text text-anchor="middle" x="954.543" y="-721.2" font-family="Courier,monospace" font-size="11.00">Line</text>
</g>
<!-- \\Chameleon\\Primitives\\IPrimitive -->
<g id="node32" class="node"><title>\\Chameleon\\Primitives\\IPrimitive</title>
<polygon fill="none" stroke="black" points="676.706,-742 592.706,-742 592.706,-706 676.706,-706 676.706,-742"/>
<text text-anchor="middle" x="634.706" y="-721.2" font-family="Courier,monospace" font-size="11.00">IPrimitive</text>
</g>
<!-- \\Chameleon\\Primitives\\Line&#45;&gt;\\Chameleon\\Primitives\\IPrimitive -->
<g id="edge14" class="edge"><title>\\Chameleon\\Primitives\\Line&#45;&gt;\\Chameleon\\Primitives\\IPrimitive</title>
<path fill="none" stroke="black" stroke-dasharray="1,5" d="M927.533,-724C875.073,-724 755.746,-724 687.028,-724"/>
<polygon fill="none" stroke="black" points="686.861,-720.5 676.861,-724 686.861,-727.5 686.861,-720.5"/>
</g>
<!-- \\Chameleon\\Primitives\\Rectangle -->
<g id="node31" class="node"><title>\\Chameleon\\Primitives\\Rectangle</title>
<polygon fill="none" stroke="black" points="993.043,-688 916.043,-688 916.043,-652 993.043,-652 993.043,-688"/>
<text text-anchor="middle" x="954.543" y="-667.2" font-family="Courier,monospace" font-size="11.00">Rectangle</text>
</g>
<!-- \\Chameleon\\Primitives\\Primitive -->
<g id="node42" class="node"><title>\\Chameleon\\Primitives\\Primitive</title>
<ellipse fill="none" stroke="black" cx="634.706" cy="-126" rx="128.077" ry="18"/>
<text text-anchor="middle" x="634.706" y="-122.3" font-family="Times,serif" font-size="14.00" fill="gray">\Chameleon\Primitives\Primitive</text>
</g>
<!-- \\Chameleon\\Primitives\\Rectangle&#45;&gt;\\Chameleon\\Primitives\\Primitive -->
<g id="edge20" class="edge"><title>\\Chameleon\\Primitives\\Rectangle&#45;&gt;\\Chameleon\\Primitives\\Primitive</title>
<path fill="none" stroke="black" d="M916.005,-668.334C894.663,-665.321 869.242,-657.864 854.043,-640 714.004,-475.411 937.217,-316.24 790.043,-158 781.817,-149.155 771.839,-142.409 760.958,-137.301"/>
<polygon fill="none" stroke="black" points="762.2,-134.027 751.624,-133.386 759.492,-140.482 762.2,-134.027"/>
</g>
<!-- \\Chameleon\\Transformations\\ScaleMode -->
<g id="node33" class="node"><title>\\Chameleon\\Transformations\\ScaleMode</title>
<polygon fill="none" stroke="black" points="993.043,-420 916.043,-420 916.043,-384 993.043,-384 993.043,-420"/>
<text text-anchor="middle" x="954.543" y="-399.2" font-family="Courier,monospace" font-size="11.00">ScaleMode</text>
</g>
<!-- \\Eloquent\\Enumeration\\AbstractEnumeration -->
<g id="node43" class="node"><title>\\Eloquent\\Enumeration\\AbstractEnumeration</title>
<ellipse fill="none" stroke="black" cx="634.706" cy="-18" rx="155.173" ry="18"/>
<text text-anchor="middle" x="634.706" y="-14.3" font-family="Times,serif" font-size="14.00" fill="gray">loquentnumeration\AbstractEnumeration</text>
</g>
<!-- \\Chameleon\\Transformations\\ScaleMode&#45;&gt;\\Eloquent\\Enumeration\\AbstractEnumeration -->
<g id="edge22" class="edge"><title>\\Chameleon\\Transformations\\ScaleMode&#45;&gt;\\Eloquent\\Enumeration\\AbstractEnumeration</title>
<path fill="none" stroke="black" d="M915.98,-401.147C894.902,-398.639 869.759,-391.915 854.043,-375 752.349,-265.553 896.65,-149.667 790.043,-45 785.266,-40.3102 779.981,-36.2726 774.331,-32.8051"/>
<polygon fill="none" stroke="black" points="775.626,-29.525 765.17,-27.8136 772.277,-35.6718 775.626,-29.525"/>
</g>
<!-- \\Chameleon\\Transformations\\FlipMode -->
<g id="node34" class="node"><title>\\Chameleon\\Transformations\\FlipMode</title>
<polygon fill="none" stroke="black" points="990.043,-366 919.043,-366 919.043,-330 990.043,-330 990.043,-366"/>
<text text-anchor="middle" x="954.543" y="-345.2" font-family="Courier,monospace" font-size="11.00">FlipMode</text>
</g>
<!-- \\Chameleon\\Transformations\\FlipMode&#45;&gt;\\Eloquent\\Enumeration\\AbstractEnumeration -->
<g id="edge24" class="edge"><title>\\Chameleon\\Transformations\\FlipMode&#45;&gt;\\Eloquent\\Enumeration\\AbstractEnumeration</title>
<path fill="none" stroke="black" d="M918.746,-349.158C897.332,-347.954 870.859,-342.71 854.043,-326 763.185,-235.716 882.883,-133.244 790.043,-45 785.009,-40.2154 779.444,-36.1166 773.504,-32.6144"/>
<polygon fill="none" stroke="black" points="775.03,-29.4625 764.552,-27.8998 771.769,-35.6562 775.03,-29.4625"/>
</g>
<!-- \\Chameleon\\Transformations\\RotateMode -->
<g id="node35" class="node"><title>\\Chameleon\\Transformations\\RotateMode</title>
<polygon fill="none" stroke="black" points="996.543,-474 912.543,-474 912.543,-438 996.543,-438 996.543,-474"/>
<text text-anchor="middle" x="954.543" y="-453.2" font-family="Courier,monospace" font-size="11.00">RotateMode</text>
</g>
<!-- \\Chameleon\\Transformations\\RotateMode&#45;&gt;\\Eloquent\\Enumeration\\AbstractEnumeration -->
<g id="edge31" class="edge"><title>\\Chameleon\\Transformations\\RotateMode&#45;&gt;\\Eloquent\\Enumeration\\AbstractEnumeration</title>
<path fill="none" stroke="black" d="M912.34,-454.861C891.978,-452.083 868.694,-445.192 854.043,-429 737.955,-300.704 911.894,-167.835 790.043,-45 785.391,-40.3109 780.234,-36.2685 774.708,-32.7921"/>
<polygon fill="none" stroke="black" points="776.178,-29.6046 765.741,-27.7837 772.765,-35.7159 776.178,-29.6046"/>
</g>
<!-- \\Chameleon\\Vector2 -->
<g id="node36" class="node"><title>\\Chameleon\\Vector2</title>
<polygon fill="none" stroke="black" points="986.543,-312 922.543,-312 922.543,-276 986.543,-276 986.543,-312"/>
<text text-anchor="middle" x="954.543" y="-291.2" font-family="Courier,monospace" font-size="11.00">Vector2</text>
</g>
<!-- \\Chameleon\\ColorFactory -->
<g id="node37" class="node"><title>\\Chameleon\\ColorFactory</title>
<polygon fill="none" stroke="black" points="1003.54,-258 905.543,-258 905.543,-222 1003.54,-222 1003.54,-258"/>
<text text-anchor="middle" x="954.543" y="-237.2" font-family="Courier,monospace" font-size="11.00">ColorFactory</text>
</g>
<!-- \\Chameleon\\Image -->
<g id="node38" class="node"><title>\\Chameleon\\Image</title>
<polygon fill="none" stroke="black" points="981.543,-204 927.543,-204 927.543,-168 981.543,-168 981.543,-204"/>
<text text-anchor="middle" x="954.543" y="-183.2" font-family="Courier,monospace" font-size="11.00">Image</text>
</g>
</g>
</svg>
