<?xml version="1.0" encoding="UTF-8" standalone="no"?>
<!DOCTYPE svg PUBLIC "-//W3C//DTD SVG 1.1//EN"
 "http://www.w3.org/Graphics/SVG/1.1/DTD/svg11.dtd">
<!-- Generated by graphviz version 2.38.0 (20140413.2041)
 -->
<!-- Title: G Pages: 1 -->
<svg width="732pt" height="1828pt"
 viewBox="0.00 0.00 732.18 1828.00" xmlns="http://www.w3.org/2000/svg" xmlns:xlink="http://www.w3.org/1999/xlink">
<g id="graph0" class="graph" transform="scale(1 1) rotate(0) translate(4 1824)">
<title>G</title>
<polygon fill="white" stroke="none" points="-4,4 -4,-1824 728.183,-1824 728.183,4 -4,4"/>
<g id="clust1" class="cluster"><title>cluster_Global</title>
<path fill="none" stroke="gray" d="M137.095,-8C137.095,-8 704.183,-8 704.183,-8 710.183,-8 716.183,-14 716.183,-20 716.183,-20 716.183,-1800 716.183,-1800 716.183,-1806 710.183,-1812 704.183,-1812 704.183,-1812 137.095,-1812 137.095,-1812 131.095,-1812 125.095,-1806 125.095,-1800 125.095,-1800 125.095,-20 125.095,-20 125.095,-14 131.095,-8 137.095,-8"/>
<text text-anchor="middle" x="420.639" y="-1799.2" font-family="Times,serif" font-size="11.00" fill="gray">Global</text>
</g>
<g id="clust2" class="cluster"><title>cluster_\Chameleon</title>
<path fill="none" stroke="gray" d="M156.639,-16C156.639,-16 696.183,-16 696.183,-16 702.183,-16 708.183,-22 708.183,-28 708.183,-28 708.183,-1612 708.183,-1612 708.183,-1618 702.183,-1624 696.183,-1624 696.183,-1624 156.639,-1624 156.639,-1624 150.639,-1624 144.639,-1618 144.639,-1612 144.639,-1612 144.639,-28 144.639,-28 144.639,-22 150.639,-16 156.639,-16"/>
<text text-anchor="middle" x="426.411" y="-1611.2" font-family="Times,serif" font-size="11.00" fill="gray">Chameleon</text>
</g>
<g id="clust3" class="cluster"><title>cluster_\Chameleon\Colors</title>
<path fill="none" stroke="gray" d="M164.639,-1228C164.639,-1228 634.183,-1228 634.183,-1228 640.183,-1228 646.183,-1234 646.183,-1240 646.183,-1240 646.183,-1450 646.183,-1450 646.183,-1456 640.183,-1462 634.183,-1462 634.183,-1462 164.639,-1462 164.639,-1462 158.639,-1462 152.639,-1456 152.639,-1450 152.639,-1450 152.639,-1240 152.639,-1240 152.639,-1234 158.639,-1228 164.639,-1228"/>
<text text-anchor="middle" x="399.411" y="-1449.2" font-family="Times,serif" font-size="11.00" fill="gray">Colors</text>
</g>
<g id="clust4" class="cluster"><title>cluster_\Chameleon\Patterns</title>
<path fill="none" stroke="gray" d="M164.639,-852C164.639,-852 654.683,-852 654.683,-852 660.683,-852 666.683,-858 666.683,-864 666.683,-864 666.683,-1020 666.683,-1020 666.683,-1026 660.683,-1032 654.683,-1032 654.683,-1032 164.639,-1032 164.639,-1032 158.639,-1032 152.639,-1026 152.639,-1020 152.639,-1020 152.639,-864 152.639,-864 152.639,-858 158.639,-852 164.639,-852"/>
<text text-anchor="middle" x="409.661" y="-1019.2" font-family="Times,serif" font-size="11.00" fill="gray">Patterns</text>
</g>
<g id="clust5" class="cluster"><title>cluster_\Chameleon\Exceptions</title>
<path fill="none" stroke="gray" d="M511.183,-1470C511.183,-1470 688.183,-1470 688.183,-1470 694.183,-1470 700.183,-1476 700.183,-1482 700.183,-1482 700.183,-1584 700.183,-1584 700.183,-1590 694.183,-1596 688.183,-1596 688.183,-1596 511.183,-1596 511.183,-1596 505.183,-1596 499.183,-1590 499.183,-1584 499.183,-1584 499.183,-1482 499.183,-1482 499.183,-1476 505.183,-1470 511.183,-1470"/>
<text text-anchor="middle" x="599.683" y="-1583.2" font-family="Times,serif" font-size="11.00" fill="gray">Exceptions</text>
</g>
<g id="clust6" class="cluster"><title>cluster_\Chameleon\Primitives</title>
<path fill="none" stroke="gray" d="M345.183,-1040C345.183,-1040 634.183,-1040 634.183,-1040 640.183,-1040 646.183,-1046 646.183,-1052 646.183,-1052 646.183,-1208 646.183,-1208 646.183,-1214 640.183,-1220 634.183,-1220 634.183,-1220 345.183,-1220 345.183,-1220 339.183,-1220 333.183,-1214 333.183,-1208 333.183,-1208 333.183,-1052 333.183,-1052 333.183,-1046 339.183,-1040 345.183,-1040"/>
<text text-anchor="middle" x="489.683" y="-1207.2" font-family="Times,serif" font-size="11.00" fill="gray">Primitives</text>
</g>
<g id="clust7" class="cluster"><title>cluster_\Chameleon\Filters</title>
<path fill="none" stroke="gray" d="M168.139,-178C168.139,-178 668.183,-178 668.183,-178 674.183,-178 680.183,-184 680.183,-190 680.183,-190 680.183,-832 680.183,-832 680.183,-838 674.183,-844 668.183,-844 668.183,-844 168.139,-844 168.139,-844 162.139,-844 156.139,-838 156.139,-832 156.139,-832 156.139,-190 156.139,-190 156.139,-184 162.139,-178 168.139,-178"/>
<text text-anchor="middle" x="418.161" y="-831.2" font-family="Times,serif" font-size="11.00" fill="gray">Filters</text>
</g>
<g id="clust8" class="cluster"><title>cluster_Global\Chameleon</title>
<path fill="none" stroke="gray" d="M334.987,-1676C334.987,-1676 431.379,-1676 431.379,-1676 437.379,-1676 443.379,-1682 443.379,-1688 443.379,-1688 443.379,-1772 443.379,-1772 443.379,-1778 437.379,-1784 431.379,-1784 431.379,-1784 334.987,-1784 334.987,-1784 328.987,-1784 322.987,-1778 322.987,-1772 322.987,-1772 322.987,-1688 322.987,-1688 322.987,-1682 328.987,-1676 334.987,-1676"/>
<text text-anchor="middle" x="383.183" y="-1771.2" font-family="Times,serif" font-size="11.00" fill="gray">Chameleon</text>
</g>
<g id="clust9" class="cluster"><title>cluster_Global\Chameleon\Primitives</title>
<path fill="none" stroke="gray" d="M342.987,-1684C342.987,-1684 423.379,-1684 423.379,-1684 429.379,-1684 435.379,-1690 435.379,-1696 435.379,-1696 435.379,-1744 435.379,-1744 435.379,-1750 429.379,-1756 423.379,-1756 423.379,-1756 342.987,-1756 342.987,-1756 336.987,-1756 330.987,-1750 330.987,-1744 330.987,-1744 330.987,-1696 330.987,-1696 330.987,-1690 336.987,-1684 342.987,-1684"/>
<text text-anchor="middle" x="383.183" y="-1743.2" font-family="Times,serif" font-size="11.00" fill="gray">Primitives</text>
</g>
<!-- \\Chameleon\\Colors\\HSLColor -->
<g id="node1" class="node"><title>\\Chameleon\\Colors\\HSLColor</title>
<polygon fill="none" stroke="black" points="418.683,-1272 347.683,-1272 347.683,-1236 418.683,-1236 418.683,-1272"/>
<text text-anchor="middle" x="383.183" y="-1251.2" font-family="Courier,monospace" font-size="11.00">HSLColor</text>
</g>
<!-- Color -->
<g id="node40" class="node"><title>Color</title>
<ellipse fill="none" stroke="black" cx="30.5473" cy="-747" rx="30.5947" ry="18"/>
<text text-anchor="middle" x="30.5473" y="-743.3" font-family="Times,serif" font-size="14.00">Color</text>
</g>
<!-- \\Chameleon\\Colors\\HSLColor&#45;&gt;Color -->
<g id="edge1" class="edge"><title>\\Chameleon\\Colors\\HSLColor&#45;&gt;Color</title>
<path fill="none" stroke="black" d="M347.593,-1243.75C338.089,-1239.23 328.807,-1232.86 322.987,-1224 194.642,-1028.62 410.631,-352.071 259.183,-174 240.869,-152.466 225.397,-159.229 197.139,-160"/>
</g>
<!-- \\Chameleon\\Colors\\RGBColor -->
<g id="node2" class="node"><title>\\Chameleon\\Colors\\RGBColor</title>
<polygon fill="none" stroke="black" points="231.639,-1353 160.639,-1353 160.639,-1317 231.639,-1317 231.639,-1353"/>
<text text-anchor="middle" x="196.139" y="-1332.2" font-family="Courier,monospace" font-size="11.00">RGBColor</text>
</g>
<!-- \\Chameleon\\Colors\\RGBColor&#45;&gt;Color -->
<g id="edge2" class="edge"><title>\\Chameleon\\Colors\\RGBColor&#45;&gt;Color</title>
<path fill="none" stroke="black" d="M190.064,-1316.76C166.494,-1232.04 67.6664,-876.823 39.2313,-774.619"/>
<polygon fill="none" stroke="black" points="42.5357,-773.438 36.4833,-764.742 35.7918,-775.314 42.5357,-773.438"/>
</g>
<!-- \\Chameleon\\Colors\\Hex6Color -->
<g id="node3" class="node"><title>\\Chameleon\\Colors\\Hex6Color</title>
<polygon fill="none" stroke="black" points="421.683,-1420 344.683,-1420 344.683,-1384 421.683,-1384 421.683,-1420"/>
<text text-anchor="middle" x="383.183" y="-1399.2" font-family="Courier,monospace" font-size="11.00">Hex6Color</text>
</g>
<!-- \\Chameleon\\Colors\\Hex6Color&#45;&gt;\\Chameleon\\Colors\\RGBColor -->
<g id="edge3" class="edge"><title>\\Chameleon\\Colors\\Hex6Color&#45;&gt;\\Chameleon\\Colors\\RGBColor</title>
<path fill="none" stroke="black" d="M344.536,-1388.12C320.206,-1379.17 287.85,-1367.33 259.183,-1357 253.535,-1354.97 247.592,-1352.84 241.714,-1350.75"/>
<polygon fill="none" stroke="black" points="242.539,-1347.32 231.944,-1347.27 240.195,-1353.92 242.539,-1347.32"/>
</g>
<!-- \\Chameleon\\Colors\\Hex8Color -->
<g id="node4" class="node"><title>\\Chameleon\\Colors\\Hex8Color</title>
<polygon fill="none" stroke="black" points="638.183,-1434 561.183,-1434 561.183,-1398 638.183,-1398 638.183,-1434"/>
<text text-anchor="middle" x="599.683" y="-1413.2" font-family="Courier,monospace" font-size="11.00">Hex8Color</text>
</g>
<!-- \\Chameleon\\Colors\\Hex8Color&#45;&gt;\\Chameleon\\Colors\\Hex6Color -->
<g id="edge8" class="edge"><title>\\Chameleon\\Colors\\Hex8Color&#45;&gt;\\Chameleon\\Colors\\Hex6Color</title>
<path fill="none" stroke="black" d="M560.829,-1413.53C524.947,-1411.19 470.905,-1407.66 432.049,-1405.12"/>
<polygon fill="none" stroke="black" points="432.226,-1401.63 422.02,-1404.47 431.77,-1408.61 432.226,-1401.63"/>
</g>
<!-- \\Chameleon\\Colors\\RGBAColor -->
<g id="node5" class="node"><title>\\Chameleon\\Colors\\RGBAColor</title>
<polygon fill="none" stroke="black" points="421.683,-1353 344.683,-1353 344.683,-1317 421.683,-1317 421.683,-1353"/>
<text text-anchor="middle" x="383.183" y="-1332.2" font-family="Courier,monospace" font-size="11.00">RGBAColor</text>
</g>
<!-- \\Chameleon\\Colors\\RGBAColor&#45;&gt;\\Chameleon\\Colors\\RGBColor -->
<g id="edge9" class="edge"><title>\\Chameleon\\Colors\\RGBAColor&#45;&gt;\\Chameleon\\Colors\\RGBColor</title>
<path fill="none" stroke="black" d="M344.29,-1335C314.651,-1335 273.359,-1335 242.057,-1335"/>
<polygon fill="none" stroke="black" points="241.856,-1331.5 231.856,-1335 241.856,-1338.5 241.856,-1331.5"/>
</g>
<!-- \\Chameleon\\Colors\\HSVColor -->
<g id="node6" class="node"><title>\\Chameleon\\Colors\\HSVColor</title>
<polygon fill="none" stroke="black" points="635.183,-1326 564.183,-1326 564.183,-1290 635.183,-1290 635.183,-1326"/>
<text text-anchor="middle" x="599.683" y="-1305.2" font-family="Courier,monospace" font-size="11.00">HSVColor</text>
</g>
<!-- \\Chameleon\\Colors\\HSVColor&#45;&gt;Color -->
<g id="edge11" class="edge"><title>\\Chameleon\\Colors\\HSVColor&#45;&gt;Color</title>
<path fill="none" stroke="black" d="M564.143,-1308.3C541.98,-1306.49 514.566,-1300.1 499.183,-1281 421.926,-1185.09 530.184,-261.364 443.379,-174 366.118,-96.2404 306.715,-157.012 197.139,-160"/>
<path fill="none" stroke="black" d="M195.139,-160C163.405,-160.888 147.141,-151.158 125.095,-174 48.6143,-253.24 34.5396,-614.693 32.0577,-718.841"/>
<polygon fill="none" stroke="black" points="28.5571,-718.833 31.8355,-728.908 35.5554,-718.987 28.5571,-718.833"/>
</g>
<!-- \\Chameleon\\Colors\\HSLAColor -->
<g id="node7" class="node"><title>\\Chameleon\\Colors\\HSLAColor</title>
<polygon fill="none" stroke="black" points="638.183,-1380 561.183,-1380 561.183,-1344 638.183,-1344 638.183,-1380"/>
<text text-anchor="middle" x="599.683" y="-1359.2" font-family="Courier,monospace" font-size="11.00">HSLAColor</text>
</g>
<!-- \\Chameleon\\Colors\\HSLAColor&#45;&gt;\\Chameleon\\Colors\\HSLColor -->
<g id="edge14" class="edge"><title>\\Chameleon\\Colors\\HSLAColor&#45;&gt;\\Chameleon\\Colors\\HSLColor</title>
<path fill="none" stroke="black" d="M560.734,-1354.97C541.7,-1350.64 518.623,-1344.14 499.183,-1335 467.63,-1320.17 435.506,-1296.69 413.26,-1278.82"/>
<polygon fill="none" stroke="black" points="415.2,-1275.89 405.239,-1272.28 410.774,-1281.31 415.2,-1275.89"/>
</g>
<!-- \\Chameleon\\Colors\\IColor -->
<g id="node8" class="node"><title>\\Chameleon\\Colors\\IColor</title>
<polygon fill="none" stroke="black" points="628.183,-1272 571.183,-1272 571.183,-1236 628.183,-1236 628.183,-1272"/>
<text text-anchor="middle" x="599.683" y="-1251.2" font-family="Courier,monospace" font-size="11.00">IColor</text>
</g>
<!-- \\Chameleon\\Patterns\\Pattern -->
<g id="node9" class="node"><title>\\Chameleon\\Patterns\\Pattern</title>
<polygon fill="none" stroke="black" points="425.183,-977 341.183,-977 341.183,-941 425.183,-941 425.183,-977"/>
<text text-anchor="start" x="349.183" y="-962.2" font-family="Courier,monospace" font-size="11.00">«abstract»</text>
<text text-anchor="start" x="359.183" y="-950.2" font-family="Courier,monospace" font-size="11.00">Pattern</text>
</g>
<!-- \\Chameleon\\Patterns\\IPattern -->
<g id="node13" class="node"><title>\\Chameleon\\Patterns\\IPattern</title>
<polygon fill="none" stroke="black" points="231.639,-977 160.639,-977 160.639,-941 231.639,-941 231.639,-977"/>
<text text-anchor="middle" x="196.139" y="-956.2" font-family="Courier,monospace" font-size="11.00">IPattern</text>
</g>
<!-- \\Chameleon\\Patterns\\Pattern&#45;&gt;\\Chameleon\\Patterns\\IPattern -->
<g id="edge6" class="edge"><title>\\Chameleon\\Patterns\\Pattern&#45;&gt;\\Chameleon\\Patterns\\IPattern</title>
<path fill="none" stroke="black" stroke-dasharray="1,5" d="M341.116,-959C311.78,-959 272.325,-959 242.136,-959"/>
<polygon fill="none" stroke="black" points="241.877,-955.5 231.877,-959 241.877,-962.5 241.877,-955.5"/>
</g>
<!-- SplFixedArray -->
<g id="node39" class="node"><title>SplFixedArray</title>
<ellipse fill="none" stroke="black" cx="196.139" cy="-1650" rx="63.0888" ry="18"/>
<text text-anchor="middle" x="196.139" y="-1646.3" font-family="Times,serif" font-size="14.00" fill="gray">SplFixedArray</text>
</g>
<!-- \\Chameleon\\Patterns\\Pattern&#45;&gt;SplFixedArray -->
<g id="edge5" class="edge"><title>\\Chameleon\\Patterns\\Pattern&#45;&gt;SplFixedArray</title>
<path fill="none" stroke="black" d="M363.834,-977.181C350.262,-991.78 332.539,-1013.49 322.987,-1036 247.508,-1213.85 304.407,-1278.16 259.183,-1466 245.538,-1522.68 222.016,-1586.74 208.188,-1622.35"/>
<polygon fill="none" stroke="black" points="204.785,-1621.45 204.395,-1632.03 211.302,-1624 204.785,-1621.45"/>
</g>
<!-- \\Chameleon\\Patterns\\BackgroundColor -->
<g id="node10" class="node"><title>\\Chameleon\\Patterns\\BackgroundColor</title>
<polygon fill="none" stroke="black" points="658.683,-1004 540.683,-1004 540.683,-968 658.683,-968 658.683,-1004"/>
<text text-anchor="middle" x="599.683" y="-983.2" font-family="Courier,monospace" font-size="11.00">BackgroundColor</text>
</g>
<!-- \\Chameleon\\Patterns\\BackgroundColor&#45;&gt;\\Chameleon\\Patterns\\Pattern -->
<g id="edge10" class="edge"><title>\\Chameleon\\Patterns\\BackgroundColor&#45;&gt;\\Chameleon\\Patterns\\Pattern</title>
<path fill="none" stroke="black" d="M540.637,-978.693C507.722,-974.55 466.913,-969.413 435.227,-965.425"/>
<polygon fill="none" stroke="black" points="435.64,-961.95 425.281,-964.173 434.766,-968.895 435.64,-961.95"/>
</g>
<!-- \\Chameleon\\Patterns\\RGBNoise -->
<g id="node11" class="node"><title>\\Chameleon\\Patterns\\RGBNoise</title>
<polygon fill="none" stroke="black" points="635.183,-950 564.183,-950 564.183,-914 635.183,-914 635.183,-950"/>
<text text-anchor="middle" x="599.683" y="-929.2" font-family="Courier,monospace" font-size="11.00">RGBNoise</text>
</g>
<!-- \\Chameleon\\Patterns\\RGBNoise&#45;&gt;\\Chameleon\\Patterns\\Pattern -->
<g id="edge16" class="edge"><title>\\Chameleon\\Patterns\\RGBNoise&#45;&gt;\\Chameleon\\Patterns\\Pattern</title>
<path fill="none" stroke="black" d="M563.743,-936.398C528.906,-940.783 475.016,-947.566 435.359,-952.558"/>
<polygon fill="none" stroke="black" points="434.832,-949.097 425.348,-953.818 435.707,-956.042 434.832,-949.097"/>
</g>
<!-- \\Chameleon\\Patterns\\Grid -->
<g id="node12" class="node"><title>\\Chameleon\\Patterns\\Grid</title>
<polygon fill="none" stroke="black" points="626.683,-896 572.683,-896 572.683,-860 626.683,-860 626.683,-896"/>
<text text-anchor="middle" x="599.683" y="-875.2" font-family="Courier,monospace" font-size="11.00">Grid</text>
</g>
<!-- \\Chameleon\\Patterns\\Grid&#45;&gt;\\Chameleon\\Patterns\\Pattern -->
<g id="edge17" class="edge"><title>\\Chameleon\\Patterns\\Grid&#45;&gt;\\Chameleon\\Patterns\\Pattern</title>
<path fill="none" stroke="black" d="M572.527,-883.78C552.231,-888.578 523.546,-896.052 499.183,-905 474.926,-913.91 448.784,-925.975 427.564,-936.441"/>
<polygon fill="none" stroke="black" points="425.876,-933.371 418.489,-940.967 429,-939.636 425.876,-933.371"/>
</g>
<!-- \\Chameleon\\Exceptions\\ColorNotFoundException -->
<g id="node14" class="node"><title>\\Chameleon\\Exceptions\\ColorNotFoundException</title>
<polygon fill="none" stroke="black" points="682.183,-1568 517.183,-1568 517.183,-1532 682.183,-1532 682.183,-1568"/>
<text text-anchor="middle" x="599.683" y="-1547.2" font-family="Courier,monospace" font-size="11.00">ColorNotFoundException</text>
</g>
<!-- Exception -->
<g id="node38" class="node"><title>Exception</title>
<ellipse fill="none" stroke="black" cx="383.183" cy="-1650" rx="46.2923" ry="18"/>
<text text-anchor="middle" x="383.183" y="-1646.3" font-family="Times,serif" font-size="14.00" fill="gray">Exception</text>
</g>
<!-- \\Chameleon\\Exceptions\\ColorNotFoundException&#45;&gt;Exception -->
<g id="edge4" class="edge"><title>\\Chameleon\\Exceptions\\ColorNotFoundException&#45;&gt;Exception</title>
<path fill="none" stroke="black" d="M559.839,-1568.11C520.997,-1586.22 461.609,-1613.9 422.835,-1631.98"/>
<polygon fill="none" stroke="black" points="421.031,-1628.96 413.446,-1636.36 423.988,-1635.3 421.031,-1628.96"/>
</g>
<!-- \\Chameleon\\Exceptions\\ValueOutOfBoundsException -->
<g id="node15" class="node"><title>\\Chameleon\\Exceptions\\ValueOutOfBoundsException</title>
<polygon fill="none" stroke="black" points="692.183,-1514 507.183,-1514 507.183,-1478 692.183,-1478 692.183,-1514"/>
<text text-anchor="middle" x="599.683" y="-1493.2" font-family="Courier,monospace" font-size="11.00">ValueOutOfBoundsException</text>
</g>
<!-- \\Chameleon\\Exceptions\\ValueOutOfBoundsException&#45;&gt;Exception -->
<g id="edge13" class="edge"><title>\\Chameleon\\Exceptions\\ValueOutOfBoundsException&#45;&gt;Exception</title>
<path fill="none" stroke="black" d="M516.704,-1514.09C510.593,-1516.68 504.677,-1519.63 499.183,-1523 456.898,-1548.92 420.907,-1594.96 400.951,-1623.91"/>
<polygon fill="none" stroke="black" points="397.979,-1622.05 395.284,-1632.3 403.78,-1625.97 397.979,-1622.05"/>
</g>
<!-- \\Chameleon\\Primitives\\Ellipse -->
<g id="node16" class="node"><title>\\Chameleon\\Primitives\\Ellipse</title>
<polygon fill="none" stroke="black" points="631.683,-1192 567.683,-1192 567.683,-1156 631.683,-1156 631.683,-1192"/>
<text text-anchor="middle" x="599.683" y="-1171.2" font-family="Courier,monospace" font-size="11.00">Ellipse</text>
</g>
<!-- Primitive -->
<g id="node37" class="node"><title>Primitive</title>
<ellipse fill="none" stroke="black" cx="383.183" cy="-1710" rx="44.393" ry="18"/>
<text text-anchor="middle" x="383.183" y="-1706.3" font-family="Times,serif" font-size="14.00" fill="gray">Primitive</text>
</g>
<!-- \\Chameleon\\Primitives\\Ellipse&#45;&gt;Primitive -->
<g id="edge7" class="edge"><title>\\Chameleon\\Primitives\\Ellipse&#45;&gt;Primitive</title>
<path fill="none" stroke="black" d="M567.402,-1181.26C544.669,-1188.25 515.187,-1201.22 499.183,-1224 379.783,-1393.96 571.928,-1524.85 443.379,-1688 440.358,-1691.83 436.596,-1695 432.444,-1697.62"/>
<polygon fill="none" stroke="black" points="430.761,-1694.55 423.482,-1702.24 433.973,-1700.77 430.761,-1694.55"/>
</g>
<!-- \\Chameleon\\Primitives\\Line -->
<g id="node17" class="node"><title>\\Chameleon\\Primitives\\Line</title>
<polygon fill="none" stroke="black" points="626.683,-1084 572.683,-1084 572.683,-1048 626.683,-1048 626.683,-1084"/>
<text text-anchor="middle" x="599.683" y="-1063.2" font-family="Courier,monospace" font-size="11.00">Line</text>
</g>
<!-- \\Chameleon\\Primitives\\IPrimitive -->
<g id="node19" class="node"><title>\\Chameleon\\Primitives\\IPrimitive</title>
<polygon fill="none" stroke="black" points="425.183,-1084 341.183,-1084 341.183,-1048 425.183,-1048 425.183,-1084"/>
<text text-anchor="middle" x="383.183" y="-1063.2" font-family="Courier,monospace" font-size="11.00">IPrimitive</text>
</g>
<!-- \\Chameleon\\Primitives\\Line&#45;&gt;\\Chameleon\\Primitives\\IPrimitive -->
<g id="edge12" class="edge"><title>\\Chameleon\\Primitives\\Line&#45;&gt;\\Chameleon\\Primitives\\IPrimitive</title>
<path fill="none" stroke="black" stroke-dasharray="1,5" d="M572.381,-1066C538.411,-1066 478.538,-1066 435.435,-1066"/>
<polygon fill="none" stroke="black" points="435.414,-1062.5 425.414,-1066 435.414,-1069.5 435.414,-1062.5"/>
</g>
<!-- \\Chameleon\\Primitives\\Rectangle -->
<g id="node18" class="node"><title>\\Chameleon\\Primitives\\Rectangle</title>
<polygon fill="none" stroke="black" points="638.183,-1138 561.183,-1138 561.183,-1102 638.183,-1102 638.183,-1138"/>
<text text-anchor="middle" x="599.683" y="-1117.2" font-family="Courier,monospace" font-size="11.00">Rectangle</text>
</g>
<!-- \\Chameleon\\Primitives\\Rectangle&#45;&gt;Primitive -->
<g id="edge15" class="edge"><title>\\Chameleon\\Primitives\\Rectangle&#45;&gt;Primitive</title>
<path fill="none" stroke="black" d="M561.049,-1120.3C539.673,-1122.58 514.25,-1129.27 499.183,-1147 342.669,-1331.21 591.368,-1496.88 443.379,-1688 440.39,-1691.86 436.65,-1695.04 432.51,-1697.67"/>
<polygon fill="none" stroke="black" points="430.829,-1694.6 423.564,-1702.31 434.053,-1700.81 430.829,-1694.6"/>
</g>
<!-- \\Chameleon\\Filters\\EmbossFilter -->
<g id="node20" class="node"><title>\\Chameleon\\Filters\\EmbossFilter</title>
<polygon fill="none" stroke="black" points="648.683,-492 550.683,-492 550.683,-456 648.683,-456 648.683,-492"/>
<text text-anchor="middle" x="599.683" y="-471.2" font-family="Courier,monospace" font-size="11.00">EmbossFilter</text>
</g>
<!-- \\Chameleon\\Filters\\BuiltinFilter -->
<g id="node31" class="node"><title>\\Chameleon\\Filters\\BuiltinFilter</title>
<polygon fill="none" stroke="black" points="435.183,-519 331.183,-519 331.183,-483 435.183,-483 435.183,-519"/>
<text text-anchor="start" x="349.183" y="-504.2" font-family="Courier,monospace" font-size="11.00">«abstract»</text>
<text text-anchor="start" x="339.183" y="-492.2" font-family="Courier,monospace" font-size="11.00">BuiltinFilter</text>
</g>
<!-- \\Chameleon\\Filters\\EmbossFilter&#45;&gt;\\Chameleon\\Filters\\BuiltinFilter -->
<g id="edge18" class="edge"><title>\\Chameleon\\Filters\\EmbossFilter&#45;&gt;\\Chameleon\\Filters\\BuiltinFilter</title>
<path fill="none" stroke="black" d="M550.545,-480.059C519.538,-483.962 478.945,-489.072 445.619,-493.267"/>
<polygon fill="none" stroke="black" points="445.013,-489.815 435.528,-494.537 445.887,-496.761 445.013,-489.815"/>
</g>
<!-- \\Chameleon\\Filters\\InvertFilter -->
<g id="node21" class="node"><title>\\Chameleon\\Filters\\InvertFilter</title>
<polygon fill="none" stroke="black" points="648.683,-438 550.683,-438 550.683,-402 648.683,-402 648.683,-438"/>
<text text-anchor="middle" x="599.683" y="-417.2" font-family="Courier,monospace" font-size="11.00">InvertFilter</text>
</g>
<!-- \\Chameleon\\Filters\\InvertFilter&#45;&gt;\\Chameleon\\Filters\\BuiltinFilter -->
<g id="edge19" class="edge"><title>\\Chameleon\\Filters\\InvertFilter&#45;&gt;\\Chameleon\\Filters\\BuiltinFilter</title>
<path fill="none" stroke="black" d="M550.58,-431.248C534.089,-435.578 515.649,-440.952 499.183,-447 474.926,-455.91 448.784,-467.975 427.564,-478.441"/>
<polygon fill="none" stroke="black" points="425.876,-475.371 418.489,-482.967 429,-481.636 425.876,-475.371"/>
</g>
<!-- \\Chameleon\\Filters\\GrayscaleFilter -->
<g id="node22" class="node"><title>\\Chameleon\\Filters\\GrayscaleFilter</title>
<polygon fill="none" stroke="black" points="658.683,-384 540.683,-384 540.683,-348 658.683,-348 658.683,-384"/>
<text text-anchor="middle" x="599.683" y="-363.2" font-family="Courier,monospace" font-size="11.00">GrayscaleFilter</text>
</g>
<!-- \\Chameleon\\Filters\\GrayscaleFilter&#45;&gt;\\Chameleon\\Filters\\BuiltinFilter -->
<g id="edge20" class="edge"><title>\\Chameleon\\Filters\\GrayscaleFilter&#45;&gt;\\Chameleon\\Filters\\BuiltinFilter</title>
<path fill="none" stroke="black" d="M540.507,-376.688C526.449,-380.629 511.84,-385.929 499.183,-393 461.375,-414.124 426.398,-450.357 405.179,-474.975"/>
<polygon fill="none" stroke="black" points="402.313,-472.944 398.527,-482.839 407.657,-477.465 402.313,-472.944"/>
</g>
<!-- \\Chameleon\\Filters\\MeanRemovalFilter -->
<g id="node23" class="node"><title>\\Chameleon\\Filters\\MeanRemovalFilter</title>
<polygon fill="none" stroke="black" points="665.183,-330 534.183,-330 534.183,-294 665.183,-294 665.183,-330"/>
<text text-anchor="middle" x="599.683" y="-309.2" font-family="Courier,monospace" font-size="11.00">MeanRemovalFilter</text>
</g>
<!-- \\Chameleon\\Filters\\MeanRemovalFilter&#45;&gt;\\Chameleon\\Filters\\BuiltinFilter -->
<g id="edge21" class="edge"><title>\\Chameleon\\Filters\\MeanRemovalFilter&#45;&gt;\\Chameleon\\Filters\\BuiltinFilter</title>
<path fill="none" stroke="black" d="M533.966,-322.611C521.727,-326.488 509.532,-331.779 499.183,-339 449.542,-373.638 413.916,-436.92 396.42,-473.293"/>
<polygon fill="none" stroke="black" points="393.043,-472.252 391.969,-482.793 399.381,-475.222 393.043,-472.252"/>
</g>
<!-- \\Chameleon\\Filters\\BrightnessFilter -->
<g id="node24" class="node"><title>\\Chameleon\\Filters\\BrightnessFilter</title>
<polygon fill="none" stroke="black" points="662.183,-276 537.183,-276 537.183,-240 662.183,-240 662.183,-276"/>
<text text-anchor="middle" x="599.683" y="-255.2" font-family="Courier,monospace" font-size="11.00">BrightnessFilter</text>
</g>
<!-- \\Chameleon\\Filters\\BrightnessFilter&#45;&gt;\\Chameleon\\Filters\\BuiltinFilter -->
<g id="edge22" class="edge"><title>\\Chameleon\\Filters\\BrightnessFilter&#45;&gt;\\Chameleon\\Filters\\BuiltinFilter</title>
<path fill="none" stroke="black" d="M537.096,-266.382C523.599,-270.387 510.098,-276.295 499.183,-285 437.119,-334.502 404.387,-426.827 391.235,-473.081"/>
<polygon fill="none" stroke="black" points="387.854,-472.177 388.583,-482.747 394.604,-474.03 387.854,-472.177"/>
</g>
<!-- \\Chameleon\\Filters\\ColorizeFilter -->
<g id="node25" class="node"><title>\\Chameleon\\Filters\\ColorizeFilter</title>
<polygon fill="none" stroke="black" points="655.183,-222 544.183,-222 544.183,-186 655.183,-186 655.183,-222"/>
<text text-anchor="middle" x="599.683" y="-201.2" font-family="Courier,monospace" font-size="11.00">ColorizeFilter</text>
</g>
<!-- \\Chameleon\\Filters\\ColorizeFilter&#45;&gt;\\Chameleon\\Filters\\BuiltinFilter -->
<g id="edge23" class="edge"><title>\\Chameleon\\Filters\\ColorizeFilter&#45;&gt;\\Chameleon\\Filters\\BuiltinFilter</title>
<path fill="none" stroke="black" d="M544.045,-209.665C528.121,-213.585 511.668,-220.126 499.183,-231 424.625,-295.94 397.021,-417.579 388.028,-472.637"/>
<polygon fill="none" stroke="black" points="384.537,-472.307 386.469,-482.725 391.455,-473.376 384.537,-472.307"/>
</g>
<!-- \\Chameleon\\Filters\\SelectiveBlurFilter -->
<g id="node26" class="node"><title>\\Chameleon\\Filters\\SelectiveBlurFilter</title>
<polygon fill="none" stroke="black" points="672.183,-816 527.183,-816 527.183,-780 672.183,-780 672.183,-816"/>
<text text-anchor="middle" x="599.683" y="-795.2" font-family="Courier,monospace" font-size="11.00">SelectiveBlurFilter</text>
</g>
<!-- \\Chameleon\\Filters\\SelectiveBlurFilter&#45;&gt;\\Chameleon\\Filters\\BuiltinFilter -->
<g id="edge24" class="edge"><title>\\Chameleon\\Filters\\SelectiveBlurFilter&#45;&gt;\\Chameleon\\Filters\\BuiltinFilter</title>
<path fill="none" stroke="black" d="M527.004,-787.061C516.887,-783.197 507.214,-777.995 499.183,-771 424.625,-706.06 397.021,-584.421 388.028,-529.363"/>
<polygon fill="none" stroke="black" points="391.455,-528.624 386.469,-519.275 384.537,-529.693 391.455,-528.624"/>
</g>
<!-- \\Chameleon\\Filters\\SmoothFilter -->
<g id="node27" class="node"><title>\\Chameleon\\Filters\\SmoothFilter</title>
<polygon fill="none" stroke="black" points="648.683,-762 550.683,-762 550.683,-726 648.683,-726 648.683,-762"/>
<text text-anchor="middle" x="599.683" y="-741.2" font-family="Courier,monospace" font-size="11.00">SmoothFilter</text>
</g>
<!-- \\Chameleon\\Filters\\SmoothFilter&#45;&gt;\\Chameleon\\Filters\\BuiltinFilter -->
<g id="edge25" class="edge"><title>\\Chameleon\\Filters\\SmoothFilter&#45;&gt;\\Chameleon\\Filters\\BuiltinFilter</title>
<path fill="none" stroke="black" d="M550.497,-739.024C532.886,-735.24 513.736,-728.607 499.183,-717 437.119,-667.498 404.387,-575.173 391.235,-528.919"/>
<polygon fill="none" stroke="black" points="394.604,-527.97 388.583,-519.253 387.854,-529.823 394.604,-527.97"/>
</g>
<!-- \\Chameleon\\Filters\\GaussianBlurFilter -->
<g id="node28" class="node"><title>\\Chameleon\\Filters\\GaussianBlurFilter</title>
<polygon fill="none" stroke="black" points="668.683,-708 530.683,-708 530.683,-672 668.683,-672 668.683,-708"/>
<text text-anchor="middle" x="599.683" y="-687.2" font-family="Courier,monospace" font-size="11.00">GaussianBlurFilter</text>
</g>
<!-- \\Chameleon\\Filters\\GaussianBlurFilter&#45;&gt;\\Chameleon\\Filters\\BuiltinFilter -->
<g id="edge26" class="edge"><title>\\Chameleon\\Filters\\GaussianBlurFilter&#45;&gt;\\Chameleon\\Filters\\BuiltinFilter</title>
<path fill="none" stroke="black" d="M530.583,-678.281C519.494,-674.52 508.578,-669.555 499.183,-663 449.542,-628.362 413.916,-565.08 396.42,-528.707"/>
<polygon fill="none" stroke="black" points="399.381,-526.778 391.969,-519.207 393.043,-529.748 399.381,-526.778"/>
</g>
<!-- \\Chameleon\\Filters\\EdgedetectFilter -->
<g id="node29" class="node"><title>\\Chameleon\\Filters\\EdgedetectFilter</title>
<polygon fill="none" stroke="black" points="662.183,-654 537.183,-654 537.183,-618 662.183,-618 662.183,-654"/>
<text text-anchor="middle" x="599.683" y="-633.2" font-family="Courier,monospace" font-size="11.00">EdgedetectFilter</text>
</g>
<!-- \\Chameleon\\Filters\\EdgedetectFilter&#45;&gt;\\Chameleon\\Filters\\BuiltinFilter -->
<g id="edge27" class="edge"><title>\\Chameleon\\Filters\\EdgedetectFilter&#45;&gt;\\Chameleon\\Filters\\BuiltinFilter</title>
<path fill="none" stroke="black" d="M537.113,-624.337C524.117,-620.509 510.824,-615.504 499.183,-609 461.375,-587.876 426.398,-551.643 405.179,-527.025"/>
<polygon fill="none" stroke="black" points="407.657,-524.535 398.527,-519.161 402.313,-529.056 407.657,-524.535"/>
</g>
<!-- \\Chameleon\\Filters\\ContrastFilter -->
<g id="node30" class="node"><title>\\Chameleon\\Filters\\ContrastFilter</title>
<polygon fill="none" stroke="black" points="655.183,-600 544.183,-600 544.183,-564 655.183,-564 655.183,-600"/>
<text text-anchor="middle" x="599.683" y="-579.2" font-family="Courier,monospace" font-size="11.00">ContrastFilter</text>
</g>
<!-- \\Chameleon\\Filters\\ContrastFilter&#45;&gt;\\Chameleon\\Filters\\BuiltinFilter -->
<g id="edge28" class="edge"><title>\\Chameleon\\Filters\\ContrastFilter&#45;&gt;\\Chameleon\\Filters\\BuiltinFilter</title>
<path fill="none" stroke="black" d="M544.183,-569.045C529.417,-565.04 513.549,-560.276 499.183,-555 474.926,-546.09 448.784,-534.025 427.564,-523.559"/>
<polygon fill="none" stroke="black" points="429,-520.364 418.489,-519.033 425.876,-526.629 429,-520.364"/>
</g>
<!-- \\Chameleon\\Filters\\IFilter -->
<g id="node33" class="node"><title>\\Chameleon\\Filters\\IFilter</title>
<polygon fill="none" stroke="black" points="228.139,-519 164.139,-519 164.139,-483 228.139,-483 228.139,-519"/>
<text text-anchor="middle" x="196.139" y="-498.2" font-family="Courier,monospace" font-size="11.00">IFilter</text>
</g>
<!-- \\Chameleon\\Filters\\BuiltinFilter&#45;&gt;\\Chameleon\\Filters\\IFilter -->
<g id="edge29" class="edge"><title>\\Chameleon\\Filters\\BuiltinFilter&#45;&gt;\\Chameleon\\Filters\\IFilter</title>
<path fill="none" stroke="black" stroke-dasharray="1,5" d="M331.129,-501C301.913,-501 265.741,-501 238.347,-501"/>
<polygon fill="none" stroke="black" points="238.31,-497.5 228.31,-501 238.31,-504.5 238.31,-497.5"/>
</g>
<!-- \\Chameleon\\Filters\\PixelateFilter -->
<g id="node32" class="node"><title>\\Chameleon\\Filters\\PixelateFilter</title>
<polygon fill="none" stroke="black" points="655.183,-546 544.183,-546 544.183,-510 655.183,-510 655.183,-546"/>
<text text-anchor="middle" x="599.683" y="-525.2" font-family="Courier,monospace" font-size="11.00">PixelateFilter</text>
</g>
<!-- \\Chameleon\\Filters\\PixelateFilter&#45;&gt;\\Chameleon\\Filters\\BuiltinFilter -->
<g id="edge30" class="edge"><title>\\Chameleon\\Filters\\PixelateFilter&#45;&gt;\\Chameleon\\Filters\\BuiltinFilter</title>
<path fill="none" stroke="black" d="M544.001,-521.117C514.003,-517.341 476.715,-512.647 445.704,-508.744"/>
<polygon fill="none" stroke="black" points="445.806,-505.229 435.448,-507.453 444.932,-512.174 445.806,-505.229"/>
</g>
<!-- \\Chameleon\\Vector2 -->
<g id="node34" class="node"><title>\\Chameleon\\Vector2</title>
<polygon fill="none" stroke="black" points="631.683,-168 567.683,-168 567.683,-132 631.683,-132 631.683,-168"/>
<text text-anchor="middle" x="599.683" y="-147.2" font-family="Courier,monospace" font-size="11.00">Vector2</text>
</g>
<!-- \\Chameleon\\ColorFactory -->
<g id="node35" class="node"><title>\\Chameleon\\ColorFactory</title>
<polygon fill="none" stroke="black" points="648.683,-114 550.683,-114 550.683,-78 648.683,-78 648.683,-114"/>
<text text-anchor="middle" x="599.683" y="-93.2" font-family="Courier,monospace" font-size="11.00">ColorFactory</text>
</g>
<!-- \\Chameleon\\Image -->
<g id="node36" class="node"><title>\\Chameleon\\Image</title>
<polygon fill="none" stroke="black" points="626.683,-60 572.683,-60 572.683,-24 626.683,-24 626.683,-60"/>
<text text-anchor="middle" x="599.683" y="-39.2" font-family="Courier,monospace" font-size="11.00">Image</text>
</g>
</g>
</svg>
